<?xml version="1.0" encoding="utf-8" standalone="no"?>
<!DOCTYPE svg PUBLIC "-//W3C//DTD SVG 1.1//EN"
  "http://www.w3.org/Graphics/SVG/1.1/DTD/svg11.dtd">
<svg xmlns:xlink="http://www.w3.org/1999/xlink" width="684pt" height="241.70425pt" viewBox="0 0 684 241.70425" xmlns="http://www.w3.org/2000/svg" version="1.1">
 <metadata>
  <rdf:RDF xmlns:dc="http://purl.org/dc/elements/1.1/" xmlns:cc="http://creativecommons.org/ns#" xmlns:rdf="http://www.w3.org/1999/02/22-rdf-syntax-ns#">
   <cc:Work>
    <dc:type rdf:resource="http://purl.org/dc/dcmitype/StillImage"/>
    <dc:format>image/svg+xml</dc:format>
    <dc:creator>
     <cc:Agent>
      <dc:title>Matplotlib v3.11.1, https://matplotlib.org/</dc:title>
     </cc:Agent>
    </dc:creator>
   </cc:Work>
  </rdf:RDF>
 </metadata>
 <defs>
  <style type="text/css">*{stroke-linejoin: round; stroke-linecap: butt}</style>
 </defs>
 <g id="figure_1">
  <g id="patch_1">
   <path d="M 0 241.70425 
L 684 241.70425 
L 684 0 
L 0 0 
z
" style="fill: #ffffff"/>
  </g>
  <g id="axes_1">
   <g id="patch_2">
    <path d="M 30.636 152.45305 
L 97.596 152.45305 
Q 121.032 152.45305 121.032 145.27357 
L 121.032 100.14541 
Q 121.032 92.96593 97.596 92.96593 
L 30.636 92.96593 
Q 7.2 92.96593 7.2 100.14541 
L 7.2 145.27357 
Q 7.2 152.45305 30.636 152.45305 
z
" clip-path="url(#p1380e9a173)" style="fill: #e8f2f8; stroke: #24313b; stroke-width: 1.2; stroke-linejoin: miter"/>
   </g>
   <g id="patch_3">
    <path d="M 151.164 152.45305 
L 218.124 152.45305 
Q 241.56 152.45305 241.56 145.27357 
L 241.56 100.14541 
Q 241.56 92.96593 218.124 92.96593 
L 151.164 92.96593 
Q 127.728 92.96593 127.728 100.14541 
L 127.728 145.27357 
Q 127.728 152.45305 151.164 152.45305 
z
" clip-path="url(#p1380e9a173)" style="fill: #fff3d6; stroke: #24313b; stroke-width: 1.2; stroke-linejoin: miter"/>
   </g>
   <g id="patch_4">
    <path d="M 112.987073 122.70949 
Q 123.375623 122.70949 132.087121 122.70949 
" clip-path="url(#p1380e9a173)" style="fill: none; stroke: #4a4a4a; stroke-width: 1.5; stroke-linecap: round"/>
    <path d="M 126.487121 119.90949 
L 132.087121 122.70949 
L 126.487121 125.50949 
z
" clip-path="url(#p1380e9a173)" style="fill: #4a4a4a; stroke: #4a4a4a; stroke-width: 1.5; stroke-linecap: round"/>
   </g>
   <g id="patch_5">
    <path d="M 271.692 152.45305 
L 338.652 152.45305 
Q 362.088 152.45305 362.088 145.27357 
L 362.088 100.14541 
Q 362.088 92.96593 338.652 92.96593 
L 271.692 92.96593 
Q 248.256 92.96593 248.256 100.14541 
L 248.256 145.27357 
Q 248.256 152.45305 271.692 152.45305 
z
" clip-path="url(#p1380e9a173)" style="fill: #e7f5ef; stroke: #24313b; stroke-width: 1.2; stroke-linejoin: miter"/>
   </g>
   <g id="patch_6">
    <path d="M 233.515073 122.70949 
Q 243.903623 122.70949 252.615121 122.70949 
" clip-path="url(#p1380e9a173)" style="fill: none; stroke: #4a4a4a; stroke-width: 1.5; stroke-linecap: round"/>
    <path d="M 247.015121 119.90949 
L 252.615121 122.70949 
L 247.015121 125.50949 
z
" clip-path="url(#p1380e9a173)" style="fill: #4a4a4a; stroke: #4a4a4a; stroke-width: 1.5; stroke-linecap: round"/>
   </g>
   <g id="patch_7">
    <path d="M 405.612 152.45305 
L 472.572 152.45305 
Q 496.008 152.45305 496.008 145.27357 
L 496.008 100.14541 
Q 496.008 92.96593 472.572 92.96593 
L 405.612 92.96593 
Q 382.176 92.96593 382.176 100.14541 
L 382.176 145.27357 
Q 382.176 152.45305 405.612 152.45305 
z
" clip-path="url(#p1380e9a173)" style="fill: #e8f2f8; stroke: #24313b; stroke-width: 1.2; stroke-linejoin: miter"/>
   </g>
   <g id="patch_8">
    <path d="M 354.042746 122.70949 
Q 371.126954 122.70949 386.534111 122.70949 
" clip-path="url(#p1380e9a173)" style="fill: none; stroke: #4a4a4a; stroke-width: 1.5; stroke-linecap: round"/>
    <path d="M 380.934111 119.90949 
L 386.534111 122.70949 
L 380.934111 125.50949 
z
" clip-path="url(#p1380e9a173)" style="fill: #4a4a4a; stroke: #4a4a4a; stroke-width: 1.5; stroke-linecap: round"/>
   </g>
   <g id="patch_9">
    <path d="M 512.748 152.45305 
L 579.708 152.45305 
Q 603.144 152.45305 603.144 145.27357 
L 603.144 100.14541 
Q 603.144 92.96593 579.708 92.96593 
L 512.748 92.96593 
Q 489.312 92.96593 489.312 100.14541 
L 489.312 145.27357 
Q 489.312 152.45305 512.748 152.45305 
z
" clip-path="url(#p1380e9a173)" style="fill: #fff3d6; stroke: #24313b; stroke-width: 1.2; stroke-linejoin: miter"/>
   </g>
   <g id="patch_10">
    <path d="M 487.962174 122.70949 
Q 491.653404 122.70949 493.667582 122.70949 
" clip-path="url(#p1380e9a173)" style="fill: none; stroke: #4a4a4a; stroke-width: 1.5; stroke-linecap: round"/>
    <path d="M 488.067582 119.90949 
L 493.667582 122.70949 
L 488.067582 125.50949 
z
" clip-path="url(#p1380e9a173)" style="fill: #4a4a4a; stroke: #4a4a4a; stroke-width: 1.5; stroke-linecap: round"/>
   </g>
   <g id="patch_11">
    <path d="M 619.884 152.45305 
L 650.016 152.45305 
Q 673.452 152.45305 673.452 145.27357 
L 673.452 100.14541 
Q 673.452 92.96593 650.016 92.96593 
L 619.884 92.96593 
Q 596.448 92.96593 596.448 100.14541 
L 596.448 145.27357 
Q 596.448 152.45305 619.884 152.45305 
z
" clip-path="url(#p1380e9a173)" style="fill: #e7f5ef; stroke: #24313b; stroke-width: 1.2; stroke-linejoin: miter"/>
   </g>
   <g id="patch_12">
    <path d="M 595.098174 122.70949 
Q 598.789404 122.70949 600.803582 122.70949 
" clip-path="url(#p1380e9a173)" style="fill: none; stroke: #4a4a4a; stroke-width: 1.5; stroke-linecap: round"/>
    <path d="M 595.203582 119.90949 
L 600.803582 122.70949 
L 595.203582 125.50949 
z
" clip-path="url(#p1380e9a173)" style="fill: #4a4a4a; stroke: #4a4a4a; stroke-width: 1.5; stroke-linecap: round"/>
   </g>
   <g id="text_1">
    <!-- Строка-сессия -->
    <g style="fill: #24313b" transform="translate(27.91432 119.475965) scale(0.095 -0.095)">
     <defs>
      <path id="DejaVuSans-3b5" d="M 4122 4306 
L 4122 3641 
Q 3803 3938 3442 4084 
Q 3081 4231 2675 4231 
Q 1875 4231 1450 3742 
Q 1025 3253 1025 2328 
Q 1025 1406 1450 917 
Q 1875 428 2675 428 
Q 3081 428 3442 575 
Q 3803 722 4122 1019 
L 4122 359 
Q 3791 134 3420 21 
Q 3050 -91 2638 -91 
Q 1578 -91 968 557 
Q 359 1206 359 2328 
Q 359 3453 968 4101 
Q 1578 4750 2638 4750 
Q 3056 4750 3426 4639 
Q 3797 4528 4122 4306 
z
" transform="scale(0.015625)"/>
      <path id="DejaVuSans-3d6" d="M 188 3500 
L 3541 3500 
L 3541 3041 
L 2147 3041 
L 2147 0 
L 1581 0 
L 1581 3041 
L 188 3041 
L 188 3500 
z
" transform="scale(0.015625)"/>
      <path id="DejaVuSans-3d4" d="M 1159 525 
L 1159 -1331 
L 581 -1331 
L 581 3500 
L 1159 3500 
L 1159 2969 
Q 1341 3281 1617 3432 
Q 1894 3584 2278 3584 
Q 2916 3584 3314 3078 
Q 3713 2572 3713 1747 
Q 3713 922 3314 415 
Q 2916 -91 2278 -91 
Q 1894 -91 1617 61 
Q 1341 213 1159 525 
z
M 3116 1747 
Q 3116 2381 2855 2742 
Q 2594 3103 2138 3103 
Q 1681 3103 1420 2742 
Q 1159 2381 1159 1747 
Q 1159 1113 1420 752 
Q 1681 391 2138 391 
Q 2594 391 2855 752 
Q 3116 1113 3116 1747 
z
" transform="scale(0.015625)"/>
      <path id="DejaVuSans-3d2" d="M 1959 3097 
Q 1497 3097 1228 2736 
Q 959 2375 959 1747 
Q 959 1119 1226 758 
Q 1494 397 1959 397 
Q 2419 397 2687 759 
Q 2956 1122 2956 1747 
Q 2956 2369 2687 2733 
Q 2419 3097 1959 3097 
z
M 1959 3584 
Q 2709 3584 3137 3096 
Q 3566 2609 3566 1747 
Q 3566 888 3137 398 
Q 2709 -91 1959 -91 
Q 1206 -91 779 398 
Q 353 888 353 1747 
Q 353 2609 779 3096 
Q 1206 3584 1959 3584 
z
" transform="scale(0.015625)"/>
      <path id="DejaVuSans-3ce" d="M 581 3500 
L 1153 3500 
L 1153 1856 
L 2775 3500 
L 3481 3500 
L 2144 2147 
L 3653 0 
L 3009 0 
L 1769 1766 
L 1153 1141 
L 1153 0 
L 581 0 
L 581 3500 
z
" transform="scale(0.015625)"/>
      <path id="DejaVuSans-3c4" d="M 2194 1759 
Q 1497 1759 1228 1600 
Q 959 1441 959 1056 
Q 959 750 1161 570 
Q 1363 391 1709 391 
Q 2188 391 2477 730 
Q 2766 1069 2766 1631 
L 2766 1759 
L 2194 1759 
z
M 3341 1997 
L 3341 0 
L 2766 0 
L 2766 531 
Q 2569 213 2275 61 
Q 1981 -91 1556 -91 
Q 1019 -91 701 211 
Q 384 513 384 1019 
Q 384 1609 779 1909 
Q 1175 2209 1959 2209 
L 2766 2209 
L 2766 2266 
Q 2766 2663 2505 2880 
Q 2244 3097 1772 3097 
Q 1472 3097 1187 3025 
Q 903 2953 641 2809 
L 641 3341 
Q 956 3463 1253 3523 
Q 1550 3584 1831 3584 
Q 2591 3584 2966 3190 
Q 3341 2797 3341 1997 
z
" transform="scale(0.015625)"/>
      <path id="DejaVuSans-10" d="M 313 2009 
L 1997 2009 
L 1997 1497 
L 313 1497 
L 313 2009 
z
" transform="scale(0.015625)"/>
      <path id="DejaVuSans-3d5" d="M 3122 3366 
L 3122 2828 
Q 2878 2963 2633 3030 
Q 2388 3097 2138 3097 
Q 1578 3097 1268 2742 
Q 959 2388 959 1747 
Q 959 1106 1268 751 
Q 1578 397 2138 397 
Q 2388 397 2633 464 
Q 2878 531 3122 666 
L 3122 134 
Q 2881 22 2623 -34 
Q 2366 -91 2075 -91 
Q 1284 -91 818 406 
Q 353 903 353 1747 
Q 353 2603 823 3093 
Q 1294 3584 2113 3584 
Q 2378 3584 2631 3529 
Q 2884 3475 3122 3366 
z
" transform="scale(0.015625)"/>
      <path id="DejaVuSans-3c9" d="M 3597 1894 
L 3597 1613 
L 953 1613 
Q 991 1019 1311 708 
Q 1631 397 2203 397 
Q 2534 397 2845 478 
Q 3156 559 3463 722 
L 3463 178 
Q 3153 47 2828 -22 
Q 2503 -91 2169 -91 
Q 1331 -91 842 396 
Q 353 884 353 1716 
Q 353 2575 817 3079 
Q 1281 3584 2069 3584 
Q 2775 3584 3186 3129 
Q 3597 2675 3597 1894 
z
M 3022 2063 
Q 3016 2534 2758 2815 
Q 2500 3097 2075 3097 
Q 1594 3097 1305 2825 
Q 1016 2553 972 2059 
L 3022 2063 
z
" transform="scale(0.015625)"/>
      <path id="DejaVuSans-3cc" d="M 3578 3500 
L 3578 0 
L 3006 0 
L 3006 2809 
L 1319 0 
L 581 0 
L 581 3500 
L 1153 3500 
L 1153 697 
L 2838 3500 
L 3578 3500 
z
" transform="scale(0.015625)"/>
      <path id="DejaVuSans-3e3" d="M 1181 2491 
Q 1181 2231 1381 2084 
Q 1581 1938 1953 1938 
L 2728 1938 
L 2728 3041 
L 1953 3041 
Q 1581 3041 1381 2897 
Q 1181 2753 1181 2491 
z
M 363 0 
L 1431 1534 
Q 1069 1616 828 1830 
Q 588 2044 588 2491 
Q 588 2997 923 3248 
Q 1259 3500 1938 3500 
L 3306 3500 
L 3306 0 
L 2728 0 
L 2728 1478 
L 2013 1478 
L 981 0 
L 363 0 
z
" transform="scale(0.015625)"/>
     </defs>
     <use xlink:href="#DejaVuSans-3b5"/>
     <use xlink:href="#DejaVuSans-3d6" transform="translate(69.828125 0)"/>
     <use xlink:href="#DejaVuSans-3d4" transform="translate(128.078125 0)"/>
     <use xlink:href="#DejaVuSans-3d2" transform="translate(191.5625 0)"/>
     <use xlink:href="#DejaVuSans-3ce" transform="translate(252.75 0)"/>
     <use xlink:href="#DejaVuSans-3c4" transform="translate(313.15625 0)"/>
     <use xlink:href="#DejaVuSans-10" transform="translate(374.4375 0)"/>
     <use xlink:href="#DejaVuSans-3d5" transform="translate(410.515625 0)"/>
     <use xlink:href="#DejaVuSans-3c9" transform="translate(465.5 0)"/>
     <use xlink:href="#DejaVuSans-3d5" transform="translate(527.03125 0)"/>
     <use xlink:href="#DejaVuSans-3d5" transform="translate(582.015625 0)"/>
     <use xlink:href="#DejaVuSans-3cc" transform="translate(637 0)"/>
     <use xlink:href="#DejaVuSans-3e3" transform="translate(701.984375 0)"/>
    </g>
    <!-- (raw data) -->
    <g style="fill: #24313b" transform="translate(39.452367 130.878562) scale(0.095 -0.095)">
     <defs>
      <path id="DejaVuSans-b" d="M 1984 4856 
Q 1566 4138 1362 3434 
Q 1159 2731 1159 2009 
Q 1159 1288 1364 580 
Q 1569 -128 1984 -844 
L 1484 -844 
Q 1016 -109 783 600 
Q 550 1309 550 2009 
Q 550 2706 781 3412 
Q 1013 4119 1484 4856 
L 1984 4856 
z
" transform="scale(0.015625)"/>
      <path id="DejaVuSans-55" d="M 2631 2963 
Q 2534 3019 2420 3045 
Q 2306 3072 2169 3072 
Q 1681 3072 1420 2755 
Q 1159 2438 1159 1844 
L 1159 0 
L 581 0 
L 581 3500 
L 1159 3500 
L 1159 2956 
Q 1341 3275 1631 3429 
Q 1922 3584 2338 3584 
Q 2397 3584 2469 3576 
Q 2541 3569 2628 3553 
L 2631 2963 
z
" transform="scale(0.015625)"/>
      <path id="DejaVuSans-44" d="M 2194 1759 
Q 1497 1759 1228 1600 
Q 959 1441 959 1056 
Q 959 750 1161 570 
Q 1363 391 1709 391 
Q 2188 391 2477 730 
Q 2766 1069 2766 1631 
L 2766 1759 
L 2194 1759 
z
M 3341 1997 
L 3341 0 
L 2766 0 
L 2766 531 
Q 2569 213 2275 61 
Q 1981 -91 1556 -91 
Q 1019 -91 701 211 
Q 384 513 384 1019 
Q 384 1609 779 1909 
Q 1175 2209 1959 2209 
L 2766 2209 
L 2766 2266 
Q 2766 2663 2505 2880 
Q 2244 3097 1772 3097 
Q 1472 3097 1187 3025 
Q 903 2953 641 2809 
L 641 3341 
Q 956 3463 1253 3523 
Q 1550 3584 1831 3584 
Q 2591 3584 2966 3190 
Q 3341 2797 3341 1997 
z
" transform="scale(0.015625)"/>
      <path id="DejaVuSans-5a" d="M 269 3500 
L 844 3500 
L 1563 769 
L 2278 3500 
L 2956 3500 
L 3675 769 
L 4391 3500 
L 4966 3500 
L 4050 0 
L 3372 0 
L 2619 2869 
L 1863 0 
L 1184 0 
L 269 3500 
z
" transform="scale(0.015625)"/>
      <path id="DejaVuSans-3" transform="scale(0.015625)"/>
      <path id="DejaVuSans-47" d="M 2906 2969 
L 2906 4863 
L 3481 4863 
L 3481 0 
L 2906 0 
L 2906 525 
Q 2725 213 2448 61 
Q 2172 -91 1784 -91 
Q 1150 -91 751 415 
Q 353 922 353 1747 
Q 353 2572 751 3078 
Q 1150 3584 1784 3584 
Q 2172 3584 2448 3432 
Q 2725 3281 2906 2969 
z
M 947 1747 
Q 947 1113 1208 752 
Q 1469 391 1925 391 
Q 2381 391 2643 752 
Q 2906 1113 2906 1747 
Q 2906 2381 2643 2742 
Q 2381 3103 1925 3103 
Q 1469 3103 1208 2742 
Q 947 2381 947 1747 
z
" transform="scale(0.015625)"/>
      <path id="DejaVuSans-57" d="M 1172 4494 
L 1172 3500 
L 2356 3500 
L 2356 3053 
L 1172 3053 
L 1172 1153 
Q 1172 725 1289 603 
Q 1406 481 1766 481 
L 2356 481 
L 2356 0 
L 1766 0 
Q 1100 0 847 248 
Q 594 497 594 1153 
L 594 3053 
L 172 3053 
L 172 3500 
L 594 3500 
L 594 4494 
L 1172 4494 
z
" transform="scale(0.015625)"/>
      <path id="DejaVuSans-c" d="M 513 4856 
L 1013 4856 
Q 1481 4119 1714 3412 
Q 1947 2706 1947 2009 
Q 1947 1309 1714 600 
Q 1481 -109 1013 -844 
L 513 -844 
Q 928 -128 1133 580 
Q 1338 1288 1338 2009 
Q 1338 2731 1133 3434 
Q 928 4138 513 4856 
z
" transform="scale(0.015625)"/>
     </defs>
     <use xlink:href="#DejaVuSans-b"/>
     <use xlink:href="#DejaVuSans-55" transform="translate(39.015625 0)"/>
     <use xlink:href="#DejaVuSans-44" transform="translate(80.125 0)"/>
     <use xlink:href="#DejaVuSans-5a" transform="translate(141.40625 0)"/>
     <use xlink:href="#DejaVuSans-3" transform="translate(223.1875 0)"/>
     <use xlink:href="#DejaVuSans-47" transform="translate(254.96875 0)"/>
     <use xlink:href="#DejaVuSans-44" transform="translate(318.453125 0)"/>
     <use xlink:href="#DejaVuSans-57" transform="translate(379.734375 0)"/>
     <use xlink:href="#DejaVuSans-44" transform="translate(418.9375 0)"/>
     <use xlink:href="#DejaVuSans-c" transform="translate(480.21875 0)"/>
    </g>
   </g>
   <g id="text_2">
    <!-- X: признаки -->
    <g style="fill: #24313b" transform="translate(154.575016 119.476336) scale(0.095 -0.095)">
     <defs>
      <path id="DejaVuSans-3b" d="M 403 4666 
L 1081 4666 
L 2241 2931 
L 3406 4666 
L 4084 4666 
L 2584 2425 
L 4184 0 
L 3506 0 
L 2194 1984 
L 872 0 
L 191 0 
L 1856 2491 
L 403 4666 
z
" transform="scale(0.015625)"/>
      <path id="DejaVuSans-1d" d="M 750 794 
L 1409 794 
L 1409 0 
L 750 0 
L 750 794 
z
M 750 3309 
L 1409 3309 
L 1409 2516 
L 750 2516 
L 750 3309 
z
" transform="scale(0.015625)"/>
      <path id="DejaVuSans-3d3" d="M 3603 3500 
L 3603 0 
L 3025 0 
L 3025 3041 
L 1159 3041 
L 1159 0 
L 581 0 
L 581 3500 
L 3603 3500 
z
" transform="scale(0.015625)"/>
      <path id="DejaVuSans-3cb" d="M 2206 1888 
Q 2594 1813 2809 1584 
Q 3025 1356 3025 1019 
Q 3025 478 2622 193 
Q 2219 -91 1475 -91 
Q 1225 -91 961 -47 
Q 697 -3 416 84 
L 416 619 
Q 638 503 903 445 
Q 1169 388 1459 388 
Q 1931 388 2195 563 
Q 2459 738 2459 1019 
Q 2459 1294 2225 1461 
Q 1991 1628 1563 1628 
L 1100 1628 
L 1100 2103 
L 1584 2103 
Q 1947 2103 2158 2242 
Q 2369 2381 2369 2600 
Q 2369 2800 2151 2944 
Q 1934 3088 1563 3088 
Q 1341 3088 1089 3047 
Q 838 3006 534 2916 
L 534 3438 
Q 841 3513 1106 3550 
Q 1372 3588 1609 3588 
Q 2222 3588 2576 3342 
Q 2931 3097 2931 2656 
Q 2931 2366 2743 2164 
Q 2556 1963 2206 1888 
z
" transform="scale(0.015625)"/>
      <path id="DejaVuSans-3d1" d="M 581 3500 
L 1159 3500 
L 1159 2072 
L 3025 2072 
L 3025 3500 
L 3603 3500 
L 3603 0 
L 3025 0 
L 3025 1613 
L 1159 1613 
L 1159 0 
L 581 0 
L 581 3500 
z
" transform="scale(0.015625)"/>
     </defs>
     <use xlink:href="#DejaVuSans-3b"/>
     <use xlink:href="#DejaVuSans-1d" transform="translate(68.5 0)"/>
     <use xlink:href="#DejaVuSans-3" transform="translate(102.1875 0)"/>
     <use xlink:href="#DejaVuSans-3d3" transform="translate(133.96875 0)"/>
     <use xlink:href="#DejaVuSans-3d4" transform="translate(199.34375 0)"/>
     <use xlink:href="#DejaVuSans-3cc" transform="translate(262.828125 0)"/>
     <use xlink:href="#DejaVuSans-3cb" transform="translate(327.8125 0)"/>
     <use xlink:href="#DejaVuSans-3d1" transform="translate(380.984375 0)"/>
     <use xlink:href="#DejaVuSans-3c4" transform="translate(446.359375 0)"/>
     <use xlink:href="#DejaVuSans-3ce" transform="translate(507.640625 0)"/>
     <use xlink:href="#DejaVuSans-3cc" transform="translate(568.046875 0)"/>
    </g>
    <!-- y: Revenue -->
    <g style="fill: #24313b" transform="translate(158.380953 130.878191) scale(0.095 -0.095)">
     <defs>
      <path id="DejaVuSans-5c" d="M 2059 -325 
Q 1816 -950 1584 -1140 
Q 1353 -1331 966 -1331 
L 506 -1331 
L 506 -850 
L 844 -850 
Q 1081 -850 1212 -737 
Q 1344 -625 1503 -206 
L 1606 56 
L 191 3500 
L 800 3500 
L 1894 763 
L 2988 3500 
L 3597 3500 
L 2059 -325 
z
" transform="scale(0.015625)"/>
      <path id="DejaVuSans-35" d="M 2841 2188 
Q 3044 2119 3236 1894 
Q 3428 1669 3622 1275 
L 4263 0 
L 3584 0 
L 2988 1197 
Q 2756 1666 2539 1819 
Q 2322 1972 1947 1972 
L 1259 1972 
L 1259 0 
L 628 0 
L 628 4666 
L 2053 4666 
Q 2853 4666 3247 4331 
Q 3641 3997 3641 3322 
Q 3641 2881 3436 2590 
Q 3231 2300 2841 2188 
z
M 1259 4147 
L 1259 2491 
L 2053 2491 
Q 2509 2491 2742 2702 
Q 2975 2913 2975 3322 
Q 2975 3731 2742 3939 
Q 2509 4147 2053 4147 
L 1259 4147 
z
" transform="scale(0.015625)"/>
      <path id="DejaVuSans-48" d="M 3597 1894 
L 3597 1613 
L 953 1613 
Q 991 1019 1311 708 
Q 1631 397 2203 397 
Q 2534 397 2845 478 
Q 3156 559 3463 722 
L 3463 178 
Q 3153 47 2828 -22 
Q 2503 -91 2169 -91 
Q 1331 -91 842 396 
Q 353 884 353 1716 
Q 353 2575 817 3079 
Q 1281 3584 2069 3584 
Q 2775 3584 3186 3129 
Q 3597 2675 3597 1894 
z
M 3022 2063 
Q 3016 2534 2758 2815 
Q 2500 3097 2075 3097 
Q 1594 3097 1305 2825 
Q 1016 2553 972 2059 
L 3022 2063 
z
" transform="scale(0.015625)"/>
      <path id="DejaVuSans-59" d="M 191 3500 
L 800 3500 
L 1894 563 
L 2988 3500 
L 3597 3500 
L 2284 0 
L 1503 0 
L 191 3500 
z
" transform="scale(0.015625)"/>
      <path id="DejaVuSans-51" d="M 3513 2113 
L 3513 0 
L 2938 0 
L 2938 2094 
Q 2938 2591 2744 2837 
Q 2550 3084 2163 3084 
Q 1697 3084 1428 2787 
Q 1159 2491 1159 1978 
L 1159 0 
L 581 0 
L 581 3500 
L 1159 3500 
L 1159 2956 
Q 1366 3272 1645 3428 
Q 1925 3584 2291 3584 
Q 2894 3584 3203 3211 
Q 3513 2838 3513 2113 
z
" transform="scale(0.015625)"/>
      <path id="DejaVuSans-58" d="M 544 1381 
L 544 3500 
L 1119 3500 
L 1119 1403 
Q 1119 906 1312 657 
Q 1506 409 1894 409 
Q 2359 409 2629 706 
Q 2900 1003 2900 1516 
L 2900 3500 
L 3475 3500 
L 3475 0 
L 2900 0 
L 2900 538 
Q 2691 219 2414 64 
Q 2138 -91 1772 -91 
Q 1169 -91 856 284 
Q 544 659 544 1381 
z
M 1991 3584 
L 1991 3584 
z
" transform="scale(0.015625)"/>
     </defs>
     <use xlink:href="#DejaVuSans-5c"/>
     <use xlink:href="#DejaVuSans-1d" transform="translate(51.90625 0)"/>
     <use xlink:href="#DejaVuSans-3" transform="translate(85.59375 0)"/>
     <use xlink:href="#DejaVuSans-35" transform="translate(117.375 0)"/>
     <use xlink:href="#DejaVuSans-48" transform="translate(182.375 0)"/>
     <use xlink:href="#DejaVuSans-59" transform="translate(243.90625 0)"/>
     <use xlink:href="#DejaVuSans-48" transform="translate(303.09375 0)"/>
     <use xlink:href="#DejaVuSans-51" transform="translate(364.625 0)"/>
     <use xlink:href="#DejaVuSans-58" transform="translate(428 0)"/>
     <use xlink:href="#DejaVuSans-48" transform="translate(491.375 0)"/>
    </g>
   </g>
   <g id="text_3">
    <!-- Train / CV / -->
    <g style="fill: #24313b" transform="translate(279.480438 119.476336) scale(0.095 -0.095)">
     <defs>
      <path id="DejaVuSans-37" d="M -19 4666 
L 3928 4666 
L 3928 4134 
L 2272 4134 
L 2272 0 
L 1638 0 
L 1638 4134 
L -19 4134 
L -19 4666 
z
" transform="scale(0.015625)"/>
      <path id="DejaVuSans-4c" d="M 603 3500 
L 1178 3500 
L 1178 0 
L 603 0 
L 603 3500 
z
M 603 4863 
L 1178 4863 
L 1178 4134 
L 603 4134 
L 603 4863 
z
" transform="scale(0.015625)"/>
      <path id="DejaVuSans-12" d="M 1625 4666 
L 2156 4666 
L 531 -594 
L 0 -594 
L 1625 4666 
z
" transform="scale(0.015625)"/>
      <path id="DejaVuSans-26" d="M 4122 4306 
L 4122 3641 
Q 3803 3938 3442 4084 
Q 3081 4231 2675 4231 
Q 1875 4231 1450 3742 
Q 1025 3253 1025 2328 
Q 1025 1406 1450 917 
Q 1875 428 2675 428 
Q 3081 428 3442 575 
Q 3803 722 4122 1019 
L 4122 359 
Q 3791 134 3420 21 
Q 3050 -91 2638 -91 
Q 1578 -91 968 557 
Q 359 1206 359 2328 
Q 359 3453 968 4101 
Q 1578 4750 2638 4750 
Q 3056 4750 3426 4639 
Q 3797 4528 4122 4306 
z
" transform="scale(0.015625)"/>
      <path id="DejaVuSans-39" d="M 1831 0 
L 50 4666 
L 709 4666 
L 2188 738 
L 3669 4666 
L 4325 4666 
L 2547 0 
L 1831 0 
z
" transform="scale(0.015625)"/>
     </defs>
     <use xlink:href="#DejaVuSans-37"/>
     <use xlink:href="#DejaVuSans-55" transform="translate(46.375 0)"/>
     <use xlink:href="#DejaVuSans-44" transform="translate(87.484375 0)"/>
     <use xlink:href="#DejaVuSans-4c" transform="translate(148.765625 0)"/>
     <use xlink:href="#DejaVuSans-51" transform="translate(176.546875 0)"/>
     <use xlink:href="#DejaVuSans-3" transform="translate(239.921875 0)"/>
     <use xlink:href="#DejaVuSans-12" transform="translate(271.703125 0)"/>
     <use xlink:href="#DejaVuSans-3" transform="translate(305.390625 0)"/>
     <use xlink:href="#DejaVuSans-26" transform="translate(337.171875 0)"/>
     <use xlink:href="#DejaVuSans-39" transform="translate(407 0)"/>
     <use xlink:href="#DejaVuSans-3" transform="translate(475.40625 0)"/>
     <use xlink:href="#DejaVuSans-12" transform="translate(507.1875 0)"/>
    </g>
    <!-- untouched test -->
    <g style="fill: #24313b" transform="translate(269.181102 130.878933) scale(0.095 -0.095)">
     <defs>
      <path id="DejaVuSans-52" d="M 1959 3097 
Q 1497 3097 1228 2736 
Q 959 2375 959 1747 
Q 959 1119 1226 758 
Q 1494 397 1959 397 
Q 2419 397 2687 759 
Q 2956 1122 2956 1747 
Q 2956 2369 2687 2733 
Q 2419 3097 1959 3097 
z
M 1959 3584 
Q 2709 3584 3137 3096 
Q 3566 2609 3566 1747 
Q 3566 888 3137 398 
Q 2709 -91 1959 -91 
Q 1206 -91 779 398 
Q 353 888 353 1747 
Q 353 2609 779 3096 
Q 1206 3584 1959 3584 
z
" transform="scale(0.015625)"/>
      <path id="DejaVuSans-46" d="M 3122 3366 
L 3122 2828 
Q 2878 2963 2633 3030 
Q 2388 3097 2138 3097 
Q 1578 3097 1268 2742 
Q 959 2388 959 1747 
Q 959 1106 1268 751 
Q 1578 397 2138 397 
Q 2388 397 2633 464 
Q 2878 531 3122 666 
L 3122 134 
Q 2881 22 2623 -34 
Q 2366 -91 2075 -91 
Q 1284 -91 818 406 
Q 353 903 353 1747 
Q 353 2603 823 3093 
Q 1294 3584 2113 3584 
Q 2378 3584 2631 3529 
Q 2884 3475 3122 3366 
z
" transform="scale(0.015625)"/>
      <path id="DejaVuSans-4b" d="M 3513 2113 
L 3513 0 
L 2938 0 
L 2938 2094 
Q 2938 2591 2744 2837 
Q 2550 3084 2163 3084 
Q 1697 3084 1428 2787 
Q 1159 2491 1159 1978 
L 1159 0 
L 581 0 
L 581 4863 
L 1159 4863 
L 1159 2956 
Q 1366 3272 1645 3428 
Q 1925 3584 2291 3584 
Q 2894 3584 3203 3211 
Q 3513 2838 3513 2113 
z
" transform="scale(0.015625)"/>
      <path id="DejaVuSans-56" d="M 2834 3397 
L 2834 2853 
Q 2591 2978 2328 3040 
Q 2066 3103 1784 3103 
Q 1356 3103 1142 2972 
Q 928 2841 928 2578 
Q 928 2378 1081 2264 
Q 1234 2150 1697 2047 
L 1894 2003 
Q 2506 1872 2764 1633 
Q 3022 1394 3022 966 
Q 3022 478 2636 193 
Q 2250 -91 1575 -91 
Q 1294 -91 989 -36 
Q 684 19 347 128 
L 347 722 
Q 666 556 975 473 
Q 1284 391 1588 391 
Q 1994 391 2212 530 
Q 2431 669 2431 922 
Q 2431 1156 2273 1281 
Q 2116 1406 1581 1522 
L 1381 1569 
Q 847 1681 609 1914 
Q 372 2147 372 2553 
Q 372 3047 722 3315 
Q 1072 3584 1716 3584 
Q 2034 3584 2315 3537 
Q 2597 3491 2834 3397 
z
" transform="scale(0.015625)"/>
     </defs>
     <use xlink:href="#DejaVuSans-58"/>
     <use xlink:href="#DejaVuSans-51" transform="translate(63.375 0)"/>
     <use xlink:href="#DejaVuSans-57" transform="translate(126.75 0)"/>
     <use xlink:href="#DejaVuSans-52" transform="translate(165.953125 0)"/>
     <use xlink:href="#DejaVuSans-58" transform="translate(227.140625 0)"/>
     <use xlink:href="#DejaVuSans-46" transform="translate(290.515625 0)"/>
     <use xlink:href="#DejaVuSans-4b" transform="translate(345.5 0)"/>
     <use xlink:href="#DejaVuSans-48" transform="translate(408.875 0)"/>
     <use xlink:href="#DejaVuSans-47" transform="translate(470.40625 0)"/>
     <use xlink:href="#DejaVuSans-3" transform="translate(533.890625 0)"/>
     <use xlink:href="#DejaVuSans-57" transform="translate(565.671875 0)"/>
     <use xlink:href="#DejaVuSans-48" transform="translate(604.875 0)"/>
     <use xlink:href="#DejaVuSans-56" transform="translate(666.40625 0)"/>
     <use xlink:href="#DejaVuSans-57" transform="translate(718.5 0)"/>
    </g>
   </g>
   <g id="text_4">
    <!-- Pipeline + -->
    <g style="fill: #24313b" transform="translate(415.012469 119.476707) scale(0.095 -0.095)">
     <defs>
      <path id="DejaVuSans-33" d="M 1259 4147 
L 1259 2394 
L 2053 2394 
Q 2494 2394 2734 2622 
Q 2975 2850 2975 3272 
Q 2975 3691 2734 3919 
Q 2494 4147 2053 4147 
L 1259 4147 
z
M 628 4666 
L 2053 4666 
Q 2838 4666 3239 4311 
Q 3641 3956 3641 3272 
Q 3641 2581 3239 2228 
Q 2838 1875 2053 1875 
L 1259 1875 
L 1259 0 
L 628 0 
L 628 4666 
z
" transform="scale(0.015625)"/>
      <path id="DejaVuSans-53" d="M 1159 525 
L 1159 -1331 
L 581 -1331 
L 581 3500 
L 1159 3500 
L 1159 2969 
Q 1341 3281 1617 3432 
Q 1894 3584 2278 3584 
Q 2916 3584 3314 3078 
Q 3713 2572 3713 1747 
Q 3713 922 3314 415 
Q 2916 -91 2278 -91 
Q 1894 -91 1617 61 
Q 1341 213 1159 525 
z
M 3116 1747 
Q 3116 2381 2855 2742 
Q 2594 3103 2138 3103 
Q 1681 3103 1420 2742 
Q 1159 2381 1159 1747 
Q 1159 1113 1420 752 
Q 1681 391 2138 391 
Q 2594 391 2855 752 
Q 3116 1113 3116 1747 
z
" transform="scale(0.015625)"/>
      <path id="DejaVuSans-4f" d="M 603 4863 
L 1178 4863 
L 1178 0 
L 603 0 
L 603 4863 
z
" transform="scale(0.015625)"/>
      <path id="DejaVuSans-e" d="M 2944 4013 
L 2944 2272 
L 4684 2272 
L 4684 1741 
L 2944 1741 
L 2944 0 
L 2419 0 
L 2419 1741 
L 678 1741 
L 678 2272 
L 2419 2272 
L 2419 4013 
L 2944 4013 
z
" transform="scale(0.015625)"/>
     </defs>
     <use xlink:href="#DejaVuSans-33"/>
     <use xlink:href="#DejaVuSans-4c" transform="translate(58.09375 0)"/>
     <use xlink:href="#DejaVuSans-53" transform="translate(85.875 0)"/>
     <use xlink:href="#DejaVuSans-48" transform="translate(149.359375 0)"/>
     <use xlink:href="#DejaVuSans-4f" transform="translate(210.890625 0)"/>
     <use xlink:href="#DejaVuSans-4c" transform="translate(238.671875 0)"/>
     <use xlink:href="#DejaVuSans-51" transform="translate(266.453125 0)"/>
     <use xlink:href="#DejaVuSans-48" transform="translate(329.828125 0)"/>
     <use xlink:href="#DejaVuSans-3" transform="translate(391.359375 0)"/>
     <use xlink:href="#DejaVuSans-e" transform="translate(423.140625 0)"/>
    </g>
    <!-- модель -->
    <g style="fill: #24313b" transform="translate(420.559578 130.878562) scale(0.095 -0.095)">
     <defs>
      <path id="DejaVuSans-3d0" d="M 581 3500 
L 1422 3500 
L 2416 1156 
L 3413 3500 
L 4247 3500 
L 4247 0 
L 3669 0 
L 3669 2950 
L 2703 672 
L 2128 672 
L 1159 2950 
L 1159 0 
L 581 0 
L 581 3500 
z
" transform="scale(0.015625)"/>
      <path id="DejaVuSans-3c8" d="M 1384 459 
L 3053 459 
L 3053 3041 
L 1844 3041 
L 1844 2603 
Q 1844 1316 1475 628 
L 1384 459 
z
M 550 459 
Q 834 584 959 850 
Q 1266 1509 1266 2838 
L 1266 3500 
L 3631 3500 
L 3631 459 
L 4091 459 
L 4091 -884 
L 3631 -884 
L 3631 0 
L 794 0 
L 794 -884 
L 334 -884 
L 334 459 
L 550 459 
z
" transform="scale(0.015625)"/>
      <path id="DejaVuSans-3cf" d="M 238 0 
L 238 478 
Q 806 566 981 959 
Q 1194 1513 1194 2928 
L 1194 3500 
L 3559 3500 
L 3559 0 
L 2984 0 
L 2984 3041 
L 1769 3041 
L 1769 2694 
Q 1769 1344 1494 738 
Q 1200 91 238 0 
z
" transform="scale(0.015625)"/>
      <path id="DejaVuSans-3e0" d="M 2781 1038 
Q 2781 1319 2576 1466 
Q 2372 1613 1978 1613 
L 1159 1613 
L 1159 459 
L 1978 459 
Q 2372 459 2576 607 
Q 2781 756 2781 1038 
z
M 581 3500 
L 1159 3500 
L 1159 2072 
L 2003 2072 
Q 2672 2072 3033 1817 
Q 3394 1563 3394 1038 
Q 3394 513 3033 256 
Q 2672 0 2003 0 
L 581 0 
L 581 3500 
z
" transform="scale(0.015625)"/>
     </defs>
     <use xlink:href="#DejaVuSans-3d0"/>
     <use xlink:href="#DejaVuSans-3d2" transform="translate(75.4375 0)"/>
     <use xlink:href="#DejaVuSans-3c8" transform="translate(136.625 0)"/>
     <use xlink:href="#DejaVuSans-3c9" transform="translate(205.765625 0)"/>
     <use xlink:href="#DejaVuSans-3cf" transform="translate(267.296875 0)"/>
     <use xlink:href="#DejaVuSans-3e0" transform="translate(331.21875 0)"/>
    </g>
   </g>
   <g id="text_5">
    <!-- Score -->
    <g style="fill: #24313b" transform="translate(532.923547 119.476336) scale(0.095 -0.095)">
     <defs>
      <path id="DejaVuSans-36" d="M 3425 4513 
L 3425 3897 
Q 3066 4069 2747 4153 
Q 2428 4238 2131 4238 
Q 1616 4238 1336 4038 
Q 1056 3838 1056 3469 
Q 1056 3159 1242 3001 
Q 1428 2844 1947 2747 
L 2328 2669 
Q 3034 2534 3370 2195 
Q 3706 1856 3706 1288 
Q 3706 609 3251 259 
Q 2797 -91 1919 -91 
Q 1588 -91 1214 -16 
Q 841 59 441 206 
L 441 856 
Q 825 641 1194 531 
Q 1563 422 1919 422 
Q 2459 422 2753 634 
Q 3047 847 3047 1241 
Q 3047 1584 2836 1778 
Q 2625 1972 2144 2069 
L 1759 2144 
Q 1053 2284 737 2584 
Q 422 2884 422 3419 
Q 422 4038 858 4394 
Q 1294 4750 2059 4750 
Q 2388 4750 2728 4690 
Q 3069 4631 3425 4513 
z
" transform="scale(0.015625)"/>
     </defs>
     <use xlink:href="#DejaVuSans-36"/>
     <use xlink:href="#DejaVuSans-46" transform="translate(63.484375 0)"/>
     <use xlink:href="#DejaVuSans-52" transform="translate(118.46875 0)"/>
     <use xlink:href="#DejaVuSans-55" transform="translate(179.65625 0)"/>
     <use xlink:href="#DejaVuSans-48" transform="translate(218.5625 0)"/>
    </g>
    <!-- 0.00...1.00 -->
    <g style="fill: #24313b" transform="translate(520.546828 130.878191) scale(0.095 -0.095)">
     <defs>
      <path id="DejaVuSans-13" d="M 2034 4250 
Q 1547 4250 1301 3770 
Q 1056 3291 1056 2328 
Q 1056 1369 1301 889 
Q 1547 409 2034 409 
Q 2525 409 2770 889 
Q 3016 1369 3016 2328 
Q 3016 3291 2770 3770 
Q 2525 4250 2034 4250 
z
M 2034 4750 
Q 2819 4750 3233 4129 
Q 3647 3509 3647 2328 
Q 3647 1150 3233 529 
Q 2819 -91 2034 -91 
Q 1250 -91 836 529 
Q 422 1150 422 2328 
Q 422 3509 836 4129 
Q 1250 4750 2034 4750 
z
" transform="scale(0.015625)"/>
      <path id="DejaVuSans-11" d="M 684 794 
L 1344 794 
L 1344 0 
L 684 0 
L 684 794 
z
" transform="scale(0.015625)"/>
      <path id="DejaVuSans-14" d="M 794 531 
L 1825 531 
L 1825 4091 
L 703 3866 
L 703 4441 
L 1819 4666 
L 2450 4666 
L 2450 531 
L 3481 531 
L 3481 0 
L 794 0 
L 794 531 
z
" transform="scale(0.015625)"/>
     </defs>
     <use xlink:href="#DejaVuSans-13"/>
     <use xlink:href="#DejaVuSans-11" transform="translate(63.625 0)"/>
     <use xlink:href="#DejaVuSans-13" transform="translate(95.40625 0)"/>
     <use xlink:href="#DejaVuSans-13" transform="translate(159.03125 0)"/>
     <use xlink:href="#DejaVuSans-11" transform="translate(222.65625 0)"/>
     <use xlink:href="#DejaVuSans-11" transform="translate(254.4375 0)"/>
     <use xlink:href="#DejaVuSans-11" transform="translate(286.21875 0)"/>
     <use xlink:href="#DejaVuSans-14" transform="translate(318 0)"/>
     <use xlink:href="#DejaVuSans-11" transform="translate(381.625 0)"/>
     <use xlink:href="#DejaVuSans-13" transform="translate(413.40625 0)"/>
     <use xlink:href="#DejaVuSans-13" transform="translate(477.03125 0)"/>
    </g>
   </g>
   <g id="text_6">
    <!-- Решение -->
    <g style="fill: #24313b" transform="translate(612.779375 119.476336) scale(0.095 -0.095)">
     <defs>
      <path id="DejaVuSans-3b4" d="M 1259 4147 
L 1259 2394 
L 2053 2394 
Q 2494 2394 2734 2622 
Q 2975 2850 2975 3272 
Q 2975 3691 2734 3919 
Q 2494 4147 2053 4147 
L 1259 4147 
z
M 628 4666 
L 2053 4666 
Q 2838 4666 3239 4311 
Q 3641 3956 3641 3272 
Q 3641 2581 3239 2228 
Q 2838 1875 2053 1875 
L 1259 1875 
L 1259 0 
L 628 0 
L 628 4666 
z
" transform="scale(0.015625)"/>
      <path id="DejaVuSans-3dc" d="M 3216 459 
L 4697 459 
L 4697 3500 
L 5275 3500 
L 5275 0 
L 581 0 
L 581 3500 
L 1159 3500 
L 1159 459 
L 2638 459 
L 2638 3500 
L 3216 3500 
L 3216 459 
z
" transform="scale(0.015625)"/>
     </defs>
     <use xlink:href="#DejaVuSans-3b4"/>
     <use xlink:href="#DejaVuSans-3c9" transform="translate(60.296875 0)"/>
     <use xlink:href="#DejaVuSans-3dc" transform="translate(121.828125 0)"/>
     <use xlink:href="#DejaVuSans-3c9" transform="translate(213.328125 0)"/>
     <use xlink:href="#DejaVuSans-3d1" transform="translate(274.859375 0)"/>
     <use xlink:href="#DejaVuSans-3cc" transform="translate(340.234375 0)"/>
     <use xlink:href="#DejaVuSans-3c9" transform="translate(405.21875 0)"/>
    </g>
    <!-- по порогу -->
    <g style="fill: #24313b" transform="translate(610.187656 130.878191) scale(0.095 -0.095)">
     <defs>
      <path id="DejaVuSans-3c7" d="M 581 0 
L 581 3500 
L 3050 3500 
L 3050 3041 
L 1159 3041 
L 1159 0 
L 581 0 
z
" transform="scale(0.015625)"/>
      <path id="DejaVuSans-3d7" d="M 2059 -325 
Q 1816 -950 1584 -1140 
Q 1353 -1331 966 -1331 
L 506 -1331 
L 506 -850 
L 844 -850 
Q 1081 -850 1212 -737 
Q 1344 -625 1503 -206 
L 1606 56 
L 191 3500 
L 800 3500 
L 1894 763 
L 2988 3500 
L 3597 3500 
L 2059 -325 
z
" transform="scale(0.015625)"/>
     </defs>
     <use xlink:href="#DejaVuSans-3d3"/>
     <use xlink:href="#DejaVuSans-3d2" transform="translate(65.375 0)"/>
     <use xlink:href="#DejaVuSans-3" transform="translate(126.5625 0)"/>
     <use xlink:href="#DejaVuSans-3d3" transform="translate(158.34375 0)"/>
     <use xlink:href="#DejaVuSans-3d2" transform="translate(223.71875 0)"/>
     <use xlink:href="#DejaVuSans-3d4" transform="translate(284.90625 0)"/>
     <use xlink:href="#DejaVuSans-3d2" transform="translate(348.390625 0)"/>
     <use xlink:href="#DejaVuSans-3c7" transform="translate(409.578125 0)"/>
     <use xlink:href="#DejaVuSans-3d7" transform="translate(462.125 0)"/>
    </g>
   </g>
   <g id="text_7">
    <!-- Сначала проверяем данные и границы. Затем модель ранжирует сессии score; threshold превращает score в действие. -->
    <g style="fill: #24313b" transform="translate(20.592 209.88889) scale(0.1 -0.1)">
     <defs>
      <path id="DejaVuSans-3db" d="M 2625 0 
L 2625 1472 
L 1553 1472 
Q 1075 1472 756 1769 
Q 469 2038 469 2613 
L 469 3500 
L 1044 3500 
L 1044 2666 
Q 1044 2300 1206 2116 
Q 1372 1931 1697 1931 
L 2625 1931 
L 2625 3500 
L 3200 3500 
L 3200 0 
L 2625 0 
z
" transform="scale(0.015625)"/>
      <path id="DejaVuSans-3c6" d="M 1156 1613 
L 1156 459 
L 1975 459 
Q 2369 459 2575 607 
Q 2781 756 2781 1038 
Q 2781 1319 2575 1466 
Q 2369 1613 1975 1613 
L 1156 1613 
z
M 1156 3041 
L 1156 2072 
L 1913 2072 
Q 2238 2072 2444 2201 
Q 2650 2331 2650 2563 
Q 2650 2794 2444 2917 
Q 2238 3041 1913 3041 
L 1156 3041 
z
M 581 3500 
L 1950 3500 
Q 2566 3500 2897 3275 
Q 3228 3050 3228 2634 
Q 3228 2313 3059 2123 
Q 2891 1934 2559 1888 
Q 2956 1813 3175 1575 
Q 3394 1338 3394 981 
Q 3394 513 3033 256 
Q 2672 0 2003 0 
L 581 0 
L 581 3500 
z
" transform="scale(0.015625)"/>
      <path id="DejaVuSans-3df" d="M 3909 3500 
L 4484 3500 
L 4484 0 
L 3909 0 
L 3909 3500 
z
M 4197 3584 
L 4197 3584 
z
M 2781 1038 
Q 2781 1319 2576 1466 
Q 2372 1613 1978 1613 
L 1159 1613 
L 1159 459 
L 1978 459 
Q 2372 459 2576 607 
Q 2781 756 2781 1038 
z
M 581 3500 
L 1159 3500 
L 1159 2072 
L 2003 2072 
Q 2672 2072 3033 1817 
Q 3394 1563 3394 1038 
Q 3394 513 3033 256 
Q 2672 0 2003 0 
L 581 0 
L 581 3500 
z
" transform="scale(0.015625)"/>
      <path id="DejaVuSans-3da" d="M 3603 0 
L 581 0 
L 581 3500 
L 1159 3500 
L 1159 459 
L 3025 459 
L 3025 3500 
L 3603 3500 
L 3603 459 
L 4063 459 
L 4063 -884 
L 3603 -884 
L 3603 0 
z
" transform="scale(0.015625)"/>
      <path id="DejaVuSans-3ab" d="M 1828 4750 
Q 2597 4750 3084 4423 
Q 3572 4097 3572 3541 
Q 3572 3153 3350 2886 
Q 3128 2619 2719 2516 
Q 3172 2419 3426 2112 
Q 3681 1806 3681 1356 
Q 3681 638 3126 273 
Q 2572 -91 1828 -91 
Q 1447 -91 1003 12 
Q 559 116 422 203 
L 422 853 
Q 900 575 1164 508 
Q 1428 441 1816 441 
Q 2403 441 2728 666 
Q 3053 891 3053 1356 
Q 3053 1769 2764 2001 
Q 2475 2234 1866 2234 
L 1228 2234 
L 1228 2753 
L 1891 2753 
Q 2450 2753 2697 2939 
Q 2944 3125 2944 3475 
Q 2944 3834 2689 4026 
Q 2434 4219 1816 4219 
Q 1397 4219 1253 4181 
Q 1109 4144 469 3903 
L 469 4519 
Q 822 4644 1190 4697 
Q 1559 4750 1828 4750 
z
" transform="scale(0.015625)"/>
      <path id="DejaVuSans-3ca" d="M 2597 3500 
L 3169 3500 
L 3169 1856 
L 4697 3500 
L 5366 3500 
L 4109 2153 
L 5547 0 
L 4931 0 
L 3753 1769 
L 3169 1141 
L 3169 0 
L 2597 0 
L 2597 1141 
L 2013 1769 
L 834 0 
L 219 0 
L 1656 2153 
L 400 3500 
L 1069 3500 
L 2597 1856 
L 2597 3500 
z
" transform="scale(0.015625)"/>
      <path id="DejaVuSans-1e" d="M 750 3309 
L 1409 3309 
L 1409 2516 
L 750 2516 
L 750 3309 
z
M 750 794 
L 1409 794 
L 1409 256 
L 897 -744 
L 494 -744 
L 750 256 
L 750 794 
z
" transform="scale(0.015625)"/>
      <path id="DejaVuSans-3dd" d="M 5275 0 
L 581 0 
L 581 3500 
L 1159 3500 
L 1159 459 
L 2638 459 
L 2638 3500 
L 3216 3500 
L 3216 459 
L 4697 459 
L 4697 3500 
L 5275 3500 
L 5275 459 
L 5734 459 
L 5734 -884 
L 5275 -884 
L 5275 0 
z
" transform="scale(0.015625)"/>
      <path id="DejaVuSans-3cd" d="M 3578 3500 
L 3578 0 
L 3006 0 
L 3006 2809 
L 1319 0 
L 581 0 
L 581 3500 
L 1153 3500 
L 1153 697 
L 2838 3500 
L 3578 3500 
z
M 1103 4862 
L 1472 4862 
Q 1506 4628 1657 4510 
Q 1809 4393 2081 4393 
Q 2350 4393 2500 4509 
Q 2650 4625 2690 4862 
L 3059 4862 
Q 3028 4415 2781 4190 
Q 2534 3965 2081 3965 
Q 1628 3965 1381 4190 
Q 1134 4415 1103 4862 
z
" transform="scale(0.015625)"/>
     </defs>
     <use xlink:href="#DejaVuSans-3b5"/>
     <use xlink:href="#DejaVuSans-3d1" transform="translate(69.828125 0)"/>
     <use xlink:href="#DejaVuSans-3c4" transform="translate(135.203125 0)"/>
     <use xlink:href="#DejaVuSans-3db" transform="translate(196.484375 0)"/>
     <use xlink:href="#DejaVuSans-3c4" transform="translate(255.5625 0)"/>
     <use xlink:href="#DejaVuSans-3cf" transform="translate(316.84375 0)"/>
     <use xlink:href="#DejaVuSans-3c4" transform="translate(380.765625 0)"/>
     <use xlink:href="#DejaVuSans-3" transform="translate(442.046875 0)"/>
     <use xlink:href="#DejaVuSans-3d3" transform="translate(473.828125 0)"/>
     <use xlink:href="#DejaVuSans-3d4" transform="translate(539.203125 0)"/>
     <use xlink:href="#DejaVuSans-3d2" transform="translate(602.6875 0)"/>
     <use xlink:href="#DejaVuSans-3c6" transform="translate(663.875 0)"/>
     <use xlink:href="#DejaVuSans-3c9" transform="translate(722.8125 0)"/>
     <use xlink:href="#DejaVuSans-3d4" transform="translate(784.34375 0)"/>
     <use xlink:href="#DejaVuSans-3e3" transform="translate(847.828125 0)"/>
     <use xlink:href="#DejaVuSans-3c9" transform="translate(907.984375 0)"/>
     <use xlink:href="#DejaVuSans-3d0" transform="translate(969.515625 0)"/>
     <use xlink:href="#DejaVuSans-3" transform="translate(1044.953125 0)"/>
     <use xlink:href="#DejaVuSans-3c8" transform="translate(1076.734375 0)"/>
     <use xlink:href="#DejaVuSans-3c4" transform="translate(1145.875 0)"/>
     <use xlink:href="#DejaVuSans-3d1" transform="translate(1207.15625 0)"/>
     <use xlink:href="#DejaVuSans-3d1" transform="translate(1272.53125 0)"/>
     <use xlink:href="#DejaVuSans-3df" transform="translate(1337.90625 0)"/>
     <use xlink:href="#DejaVuSans-3c9" transform="translate(1416.859375 0)"/>
     <use xlink:href="#DejaVuSans-3" transform="translate(1478.390625 0)"/>
     <use xlink:href="#DejaVuSans-3cc" transform="translate(1510.171875 0)"/>
     <use xlink:href="#DejaVuSans-3" transform="translate(1575.15625 0)"/>
     <use xlink:href="#DejaVuSans-3c7" transform="translate(1606.9375 0)"/>
     <use xlink:href="#DejaVuSans-3d4" transform="translate(1659.484375 0)"/>
     <use xlink:href="#DejaVuSans-3c4" transform="translate(1722.96875 0)"/>
     <use xlink:href="#DejaVuSans-3d1" transform="translate(1784.25 0)"/>
     <use xlink:href="#DejaVuSans-3cc" transform="translate(1849.625 0)"/>
     <use xlink:href="#DejaVuSans-3da" transform="translate(1914.609375 0)"/>
     <use xlink:href="#DejaVuSans-3df" transform="translate(1982.671875 0)"/>
     <use xlink:href="#DejaVuSans-11" transform="translate(2061.625 0)"/>
     <use xlink:href="#DejaVuSans-3" transform="translate(2093.40625 0)"/>
     <use xlink:href="#DejaVuSans-3ab" transform="translate(2125.1875 0)"/>
     <use xlink:href="#DejaVuSans-3c4" transform="translate(2189.296875 0)"/>
     <use xlink:href="#DejaVuSans-3d6" transform="translate(2250.578125 0)"/>
     <use xlink:href="#DejaVuSans-3c9" transform="translate(2308.828125 0)"/>
     <use xlink:href="#DejaVuSans-3d0" transform="translate(2370.359375 0)"/>
     <use xlink:href="#DejaVuSans-3" transform="translate(2445.796875 0)"/>
     <use xlink:href="#DejaVuSans-3d0" transform="translate(2477.578125 0)"/>
     <use xlink:href="#DejaVuSans-3d2" transform="translate(2553.015625 0)"/>
     <use xlink:href="#DejaVuSans-3c8" transform="translate(2614.203125 0)"/>
     <use xlink:href="#DejaVuSans-3c9" transform="translate(2683.34375 0)"/>
     <use xlink:href="#DejaVuSans-3cf" transform="translate(2744.875 0)"/>
     <use xlink:href="#DejaVuSans-3e0" transform="translate(2808.796875 0)"/>
     <use xlink:href="#DejaVuSans-3" transform="translate(2867.734375 0)"/>
     <use xlink:href="#DejaVuSans-3d4" transform="translate(2899.515625 0)"/>
     <use xlink:href="#DejaVuSans-3c4" transform="translate(2963 0)"/>
     <use xlink:href="#DejaVuSans-3d1" transform="translate(3024.28125 0)"/>
     <use xlink:href="#DejaVuSans-3ca" transform="translate(3089.65625 0)"/>
     <use xlink:href="#DejaVuSans-3cc" transform="translate(3179.75 0)"/>
     <use xlink:href="#DejaVuSans-3d4" transform="translate(3244.734375 0)"/>
     <use xlink:href="#DejaVuSans-3d7" transform="translate(3308.21875 0)"/>
     <use xlink:href="#DejaVuSans-3c9" transform="translate(3367.40625 0)"/>
     <use xlink:href="#DejaVuSans-3d6" transform="translate(3428.9375 0)"/>
     <use xlink:href="#DejaVuSans-3" transform="translate(3487.1875 0)"/>
     <use xlink:href="#DejaVuSans-3d5" transform="translate(3518.96875 0)"/>
     <use xlink:href="#DejaVuSans-3c9" transform="translate(3573.953125 0)"/>
     <use xlink:href="#DejaVuSans-3d5" transform="translate(3635.484375 0)"/>
     <use xlink:href="#DejaVuSans-3d5" transform="translate(3690.46875 0)"/>
     <use xlink:href="#DejaVuSans-3cc" transform="translate(3745.453125 0)"/>
     <use xlink:href="#DejaVuSans-3cc" transform="translate(3810.4375 0)"/>
     <use xlink:href="#DejaVuSans-3" transform="translate(3875.421875 0)"/>
     <use xlink:href="#DejaVuSans-56" transform="translate(3907.203125 0)"/>
     <use xlink:href="#DejaVuSans-46" transform="translate(3959.296875 0)"/>
     <use xlink:href="#DejaVuSans-52" transform="translate(4014.28125 0)"/>
     <use xlink:href="#DejaVuSans-55" transform="translate(4075.46875 0)"/>
     <use xlink:href="#DejaVuSans-48" transform="translate(4114.375 0)"/>
     <use xlink:href="#DejaVuSans-1e" transform="translate(4175.90625 0)"/>
     <use xlink:href="#DejaVuSans-3" transform="translate(4209.59375 0)"/>
     <use xlink:href="#DejaVuSans-57" transform="translate(4241.375 0)"/>
     <use xlink:href="#DejaVuSans-4b" transform="translate(4280.578125 0)"/>
     <use xlink:href="#DejaVuSans-55" transform="translate(4343.953125 0)"/>
     <use xlink:href="#DejaVuSans-48" transform="translate(4382.859375 0)"/>
     <use xlink:href="#DejaVuSans-56" transform="translate(4444.390625 0)"/>
     <use xlink:href="#DejaVuSans-4b" transform="translate(4496.484375 0)"/>
     <use xlink:href="#DejaVuSans-52" transform="translate(4559.859375 0)"/>
     <use xlink:href="#DejaVuSans-4f" transform="translate(4621.046875 0)"/>
     <use xlink:href="#DejaVuSans-47" transform="translate(4648.828125 0)"/>
     <use xlink:href="#DejaVuSans-3" transform="translate(4712.3125 0)"/>
     <use xlink:href="#DejaVuSans-3d3" transform="translate(4744.09375 0)"/>
     <use xlink:href="#DejaVuSans-3d4" transform="translate(4809.46875 0)"/>
     <use xlink:href="#DejaVuSans-3c9" transform="translate(4872.953125 0)"/>
     <use xlink:href="#DejaVuSans-3c6" transform="translate(4934.484375 0)"/>
     <use xlink:href="#DejaVuSans-3d4" transform="translate(4993.421875 0)"/>
     <use xlink:href="#DejaVuSans-3c4" transform="translate(5056.90625 0)"/>
     <use xlink:href="#DejaVuSans-3dd" transform="translate(5118.1875 0)"/>
     <use xlink:href="#DejaVuSans-3c4" transform="translate(5212.375 0)"/>
     <use xlink:href="#DejaVuSans-3c9" transform="translate(5273.65625 0)"/>
     <use xlink:href="#DejaVuSans-3d6" transform="translate(5335.1875 0)"/>
     <use xlink:href="#DejaVuSans-3" transform="translate(5393.4375 0)"/>
     <use xlink:href="#DejaVuSans-56" transform="translate(5425.21875 0)"/>
     <use xlink:href="#DejaVuSans-46" transform="translate(5477.3125 0)"/>
     <use xlink:href="#DejaVuSans-52" transform="translate(5532.296875 0)"/>
     <use xlink:href="#DejaVuSans-55" transform="translate(5593.484375 0)"/>
     <use xlink:href="#DejaVuSans-48" transform="translate(5632.390625 0)"/>
     <use xlink:href="#DejaVuSans-3" transform="translate(5693.921875 0)"/>
     <use xlink:href="#DejaVuSans-3c6" transform="translate(5725.703125 0)"/>
     <use xlink:href="#DejaVuSans-3" transform="translate(5784.640625 0)"/>
     <use xlink:href="#DejaVuSans-3c8" transform="translate(5816.421875 0)"/>
     <use xlink:href="#DejaVuSans-3c9" transform="translate(5885.5625 0)"/>
     <use xlink:href="#DejaVuSans-3cd" transform="translate(5947.09375 0)"/>
     <use xlink:href="#DejaVuSans-3d5" transform="translate(6012.078125 0)"/>
     <use xlink:href="#DejaVuSans-3d6" transform="translate(6067.0625 0)"/>
     <use xlink:href="#DejaVuSans-3c6" transform="translate(6125.3125 0)"/>
     <use xlink:href="#DejaVuSans-3cc" transform="translate(6184.25 0)"/>
     <use xlink:href="#DejaVuSans-3c9" transform="translate(6249.234375 0)"/>
     <use xlink:href="#DejaVuSans-11" transform="translate(6310.765625 0)"/>
    </g>
   </g>
   <g id="text_8">
    <!-- Путь одной ML-задачи: от сессии к решению -->
    <g transform="translate(7.2 16.37625) scale(0.12 -0.12)">
     <defs>
      <path id="DejaVuSans-Bold-3b3" d="M 4769 4666 
L 4769 0 
L 3566 0 
L 3566 3756 
L 1791 3756 
L 1791 0 
L 588 0 
L 588 4666 
L 4769 4666 
z
" transform="scale(0.015625)"/>
      <path id="DejaVuSans-Bold-3d7" d="M 78 3500 
L 1197 3500 
L 2138 1125 
L 2938 3500 
L 4056 3500 
L 2584 -331 
Q 2363 -916 2067 -1148 
Q 1772 -1381 1288 -1381 
L 641 -1381 
L 641 -647 
L 991 -647 
Q 1275 -647 1404 -556 
Q 1534 -466 1606 -231 
L 1638 -134 
L 78 3500 
z
" transform="scale(0.015625)"/>
      <path id="DejaVuSans-Bold-3d6" d="M 25 3500 
L 3681 3500 
L 3681 2809 
L 2413 2809 
L 2413 0 
L 1297 0 
L 1297 2809 
L 25 2809 
L 25 3500 
z
" transform="scale(0.015625)"/>
      <path id="DejaVuSans-Bold-3e0" d="M 2719 1094 
Q 2719 1291 2594 1388 
Q 2472 1481 2222 1481 
L 1656 1481 
L 1656 700 
L 2222 700 
Q 2469 700 2594 800 
Q 2719 897 2719 1094 
z
M 538 3500 
L 1656 3500 
L 1656 2172 
L 2291 2172 
Q 3000 2172 3381 1913 
Q 3766 1650 3766 1081 
Q 3766 513 3381 256 
Q 3000 0 2291 0 
L 538 0 
L 538 3500 
z
" transform="scale(0.015625)"/>
      <path id="DejaVuSans-Bold-3" transform="scale(0.015625)"/>
      <path id="DejaVuSans-Bold-3d2" d="M 2203 2784 
Q 1831 2784 1636 2517 
Q 1441 2250 1441 1747 
Q 1441 1244 1636 976 
Q 1831 709 2203 709 
Q 2569 709 2762 976 
Q 2956 1244 2956 1747 
Q 2956 2250 2762 2517 
Q 2569 2784 2203 2784 
z
M 2203 3584 
Q 3106 3584 3614 3096 
Q 4122 2609 4122 1747 
Q 4122 884 3614 396 
Q 3106 -91 2203 -91 
Q 1297 -91 786 396 
Q 275 884 275 1747 
Q 275 2609 786 3096 
Q 1297 3584 2203 3584 
z
" transform="scale(0.015625)"/>
      <path id="DejaVuSans-Bold-3c8" d="M 547 800 
Q 903 919 1053 1314 
Q 1203 1709 1203 2838 
L 1203 3500 
L 4228 3500 
L 4228 800 
L 4809 800 
L 4809 -884 
L 4009 -884 
L 4009 0 
L 1159 0 
L 1159 -884 
L 359 -884 
L 359 800 
L 547 800 
z
M 3109 2700 
L 2322 2700 
L 2322 2603 
Q 2322 1456 2063 800 
L 3109 800 
L 3109 2700 
z
" transform="scale(0.015625)"/>
      <path id="DejaVuSans-Bold-3d1" d="M 538 3500 
L 1656 3500 
L 1656 2169 
L 2766 2169 
L 2766 3500 
L 3884 3500 
L 3884 0 
L 2766 0 
L 2766 1478 
L 1656 1478 
L 1656 0 
L 538 0 
L 538 3500 
z
" transform="scale(0.015625)"/>
      <path id="DejaVuSans-Bold-3cd" d="M 3947 3500 
L 3947 0 
L 2828 0 
L 2828 1863 
L 1700 0 
L 538 0 
L 538 3500 
L 1656 3500 
L 1656 1638 
L 2784 3500 
L 3947 3500 
z
M 1194 4894 
L 1641 4894 
Q 1675 4675 1830 4559 
Q 1985 4444 2244 4444 
Q 2503 4444 2658 4559 
Q 2813 4675 2847 4894 
L 3294 4894 
Q 3275 4444 3003 4205 
Q 2732 3966 2244 3966 
Q 1757 3966 1485 4205 
Q 1213 4444 1194 4894 
z
" transform="scale(0.015625)"/>
      <path id="DejaVuSans-Bold-30" d="M 588 4666 
L 2119 4666 
L 3181 2169 
L 4250 4666 
L 5778 4666 
L 5778 0 
L 4641 0 
L 4641 3413 
L 3566 897 
L 2803 897 
L 1728 3413 
L 1728 0 
L 588 0 
L 588 4666 
z
" transform="scale(0.015625)"/>
      <path id="DejaVuSans-Bold-2f" d="M 588 4666 
L 1791 4666 
L 1791 909 
L 3903 909 
L 3903 0 
L 588 0 
L 588 4666 
z
" transform="scale(0.015625)"/>
      <path id="DejaVuSans-Bold-10" d="M 347 2297 
L 2309 2297 
L 2309 1388 
L 347 1388 
L 347 2297 
z
" transform="scale(0.015625)"/>
      <path id="DejaVuSans-Bold-3cb" d="M 900 2181 
L 1413 2181 
Q 1872 2181 2039 2281 
Q 2206 2381 2206 2519 
Q 2206 2841 1469 2841 
Q 853 2841 472 2625 
L 472 3434 
Q 1041 3584 1713 3584 
Q 2500 3584 2862 3361 
Q 3225 3138 3225 2666 
Q 3225 2047 2541 1888 
Q 3313 1697 3313 994 
Q 3313 453 2888 181 
Q 2463 -91 1553 -91 
Q 875 -91 313 84 
L 313 947 
Q 1013 653 1428 653 
Q 1884 653 2089 776 
Q 2294 900 2294 1056 
Q 2294 1491 1394 1491 
L 900 1491 
L 900 2181 
z
" transform="scale(0.015625)"/>
      <path id="DejaVuSans-Bold-3c4" d="M 2106 1575 
Q 1756 1575 1579 1456 
Q 1403 1338 1403 1106 
Q 1403 894 1545 773 
Q 1688 653 1941 653 
Q 2256 653 2472 879 
Q 2688 1106 2688 1447 
L 2688 1575 
L 2106 1575 
z
M 3816 1997 
L 3816 0 
L 2688 0 
L 2688 519 
Q 2463 200 2181 54 
Q 1900 -91 1497 -91 
Q 953 -91 614 226 
Q 275 544 275 1050 
Q 275 1666 698 1953 
Q 1122 2241 2028 2241 
L 2688 2241 
L 2688 2328 
Q 2688 2594 2478 2717 
Q 2269 2841 1825 2841 
Q 1466 2841 1156 2769 
Q 847 2697 581 2553 
L 581 3406 
Q 941 3494 1303 3539 
Q 1666 3584 2028 3584 
Q 2975 3584 3395 3211 
Q 3816 2838 3816 1997 
z
" transform="scale(0.015625)"/>
      <path id="DejaVuSans-Bold-3db" d="M 2550 0 
L 2550 1353 
L 1400 1353 
Q 931 1353 672 1629 
Q 413 1906 413 2450 
L 413 3500 
L 1531 3500 
L 1531 2878 
Q 1531 2322 1622 2183 
Q 1713 2044 1950 2044 
L 2550 2044 
L 2550 3500 
L 3669 3500 
L 3669 0 
L 2550 0 
z
" transform="scale(0.015625)"/>
      <path id="DejaVuSans-Bold-3cc" d="M 3947 3500 
L 3947 0 
L 2828 0 
L 2828 1863 
L 1700 0 
L 538 0 
L 538 3500 
L 1656 3500 
L 1656 1638 
L 2784 3500 
L 3947 3500 
z
" transform="scale(0.015625)"/>
      <path id="DejaVuSans-Bold-1d" d="M 716 3500 
L 1844 3500 
L 1844 2291 
L 716 2291 
L 716 3500 
z
M 716 1209 
L 1844 1209 
L 1844 0 
L 716 0 
L 716 1209 
z
" transform="scale(0.015625)"/>
      <path id="DejaVuSans-Bold-3d5" d="M 3366 3391 
L 3366 2478 
Q 3138 2634 2908 2709 
Q 2678 2784 2431 2784 
Q 1963 2784 1702 2511 
Q 1441 2238 1441 1747 
Q 1441 1256 1702 982 
Q 1963 709 2431 709 
Q 2694 709 2930 787 
Q 3166 866 3366 1019 
L 3366 103 
Q 3103 6 2833 -42 
Q 2563 -91 2291 -91 
Q 1344 -91 809 395 
Q 275 881 275 1747 
Q 275 2613 809 3098 
Q 1344 3584 2291 3584 
Q 2566 3584 2833 3536 
Q 3100 3488 3366 3391 
z
" transform="scale(0.015625)"/>
      <path id="DejaVuSans-Bold-3c9" d="M 4031 1759 
L 4031 1441 
L 1416 1441 
Q 1456 1047 1700 850 
Q 1944 653 2381 653 
Q 2734 653 3104 758 
Q 3475 863 3866 1075 
L 3866 213 
Q 3469 63 3072 -14 
Q 2675 -91 2278 -91 
Q 1328 -91 801 392 
Q 275 875 275 1747 
Q 275 2603 792 3093 
Q 1309 3584 2216 3584 
Q 3041 3584 3536 3087 
Q 4031 2591 4031 1759 
z
M 2881 2131 
Q 2881 2450 2695 2645 
Q 2509 2841 2209 2841 
Q 1884 2841 1681 2658 
Q 1478 2475 1428 2131 
L 2881 2131 
z
" transform="scale(0.015625)"/>
      <path id="DejaVuSans-Bold-3ce" d="M 538 3500 
L 1656 3500 
L 1656 2316 
L 2903 3500 
L 4128 3500 
L 2634 2078 
L 4250 0 
L 3094 0 
L 1972 1447 
L 1656 1147 
L 1656 0 
L 538 0 
L 538 3500 
z
" transform="scale(0.015625)"/>
      <path id="DejaVuSans-Bold-3d4" d="M 1656 506 
L 1656 -1331 
L 538 -1331 
L 538 3500 
L 1656 3500 
L 1656 2988 
Q 1888 3294 2169 3439 
Q 2450 3584 2816 3584 
Q 3463 3584 3878 3070 
Q 4294 2556 4294 1747 
Q 4294 938 3878 423 
Q 3463 -91 2816 -91 
Q 2450 -91 2169 54 
Q 1888 200 1656 506 
z
M 2400 2772 
Q 2041 2772 1848 2508 
Q 1656 2244 1656 1747 
Q 1656 1250 1848 986 
Q 2041 722 2400 722 
Q 2759 722 2948 984 
Q 3138 1247 3138 1747 
Q 3138 2247 2948 2509 
Q 2759 2772 2400 2772 
z
" transform="scale(0.015625)"/>
      <path id="DejaVuSans-Bold-3dc" d="M 3938 800 
L 5100 800 
L 5100 3500 
L 6219 3500 
L 6219 0 
L 538 0 
L 538 3500 
L 1656 3500 
L 1656 800 
L 2819 800 
L 2819 3500 
L 3938 3500 
L 3938 800 
z
" transform="scale(0.015625)"/>
      <path id="DejaVuSans-Bold-3e2" d="M 538 3500 
L 1656 3500 
L 1656 2097 
L 2113 2097 
Q 2175 2697 2644 3141 
Q 3113 3584 4019 3584 
Q 4922 3584 5430 3096 
Q 5938 2609 5938 1747 
Q 5938 884 5430 396 
Q 4922 -91 4019 -91 
Q 3113 -91 2644 356 
Q 2178 806 2116 1406 
L 1656 1406 
L 1656 0 
L 538 0 
L 538 3500 
z
M 4019 2784 
Q 3647 2784 3451 2517 
Q 3256 2250 3256 1747 
Q 3256 1244 3451 976 
Q 3647 709 4019 709 
Q 4384 709 4578 976 
Q 4772 1244 4772 1747 
Q 4772 2250 4578 2517 
Q 4384 2784 4019 2784 
z
" transform="scale(0.015625)"/>
     </defs>
     <use xlink:href="#DejaVuSans-Bold-3b3"/>
     <use xlink:href="#DejaVuSans-Bold-3d7" transform="translate(83.6875 0)"/>
     <use xlink:href="#DejaVuSans-Bold-3d6" transform="translate(148.875 0)"/>
     <use xlink:href="#DejaVuSans-Bold-3e0" transform="translate(206.828125 0)"/>
     <use xlink:href="#DejaVuSans-Bold-3" transform="translate(270.0625 0)"/>
     <use xlink:href="#DejaVuSans-Bold-3d2" transform="translate(304.875 0)"/>
     <use xlink:href="#DejaVuSans-Bold-3c8" transform="translate(373.578125 0)"/>
     <use xlink:href="#DejaVuSans-Bold-3d1" transform="translate(454.34375 0)"/>
     <use xlink:href="#DejaVuSans-Bold-3d2" transform="translate(523.4375 0)"/>
     <use xlink:href="#DejaVuSans-Bold-3cd" transform="translate(592.140625 0)"/>
     <use xlink:href="#DejaVuSans-Bold-3" transform="translate(662.203125 0)"/>
     <use xlink:href="#DejaVuSans-Bold-30" transform="translate(697.015625 0)"/>
     <use xlink:href="#DejaVuSans-Bold-2f" transform="translate(796.53125 0)"/>
     <use xlink:href="#DejaVuSans-Bold-10" transform="translate(860.25 0)"/>
     <use xlink:href="#DejaVuSans-Bold-3cb" transform="translate(901.75 0)"/>
     <use xlink:href="#DejaVuSans-Bold-3c4" transform="translate(959.859375 0)"/>
     <use xlink:href="#DejaVuSans-Bold-3c8" transform="translate(1027.34375 0)"/>
     <use xlink:href="#DejaVuSans-Bold-3c4" transform="translate(1108.109375 0)"/>
     <use xlink:href="#DejaVuSans-Bold-3db" transform="translate(1175.59375 0)"/>
     <use xlink:href="#DejaVuSans-Bold-3cc" transform="translate(1244.25 0)"/>
     <use xlink:href="#DejaVuSans-Bold-1d" transform="translate(1314.3125 0)"/>
     <use xlink:href="#DejaVuSans-Bold-3" transform="translate(1354.296875 0)"/>
     <use xlink:href="#DejaVuSans-Bold-3d2" transform="translate(1389.109375 0)"/>
     <use xlink:href="#DejaVuSans-Bold-3d6" transform="translate(1457.8125 0)"/>
     <use xlink:href="#DejaVuSans-Bold-3" transform="translate(1515.765625 0)"/>
     <use xlink:href="#DejaVuSans-Bold-3d5" transform="translate(1550.578125 0)"/>
     <use xlink:href="#DejaVuSans-Bold-3c9" transform="translate(1609.859375 0)"/>
     <use xlink:href="#DejaVuSans-Bold-3d5" transform="translate(1677.6875 0)"/>
     <use xlink:href="#DejaVuSans-Bold-3d5" transform="translate(1736.96875 0)"/>
     <use xlink:href="#DejaVuSans-Bold-3cc" transform="translate(1796.25 0)"/>
     <use xlink:href="#DejaVuSans-Bold-3cc" transform="translate(1866.3125 0)"/>
     <use xlink:href="#DejaVuSans-Bold-3" transform="translate(1936.375 0)"/>
     <use xlink:href="#DejaVuSans-Bold-3ce" transform="translate(1971.1875 0)"/>
     <use xlink:href="#DejaVuSans-Bold-3" transform="translate(2039.0625 0)"/>
     <use xlink:href="#DejaVuSans-Bold-3d4" transform="translate(2073.875 0)"/>
     <use xlink:href="#DejaVuSans-Bold-3c9" transform="translate(2145.453125 0)"/>
     <use xlink:href="#DejaVuSans-Bold-3dc" transform="translate(2213.28125 0)"/>
     <use xlink:href="#DejaVuSans-Bold-3c9" transform="translate(2319.484375 0)"/>
     <use xlink:href="#DejaVuSans-Bold-3d1" transform="translate(2387.3125 0)"/>
     <use xlink:href="#DejaVuSans-Bold-3cc" transform="translate(2456.40625 0)"/>
     <use xlink:href="#DejaVuSans-Bold-3e2" transform="translate(2526.46875 0)"/>
    </g>
   </g>
  </g>
 </g>
 <defs>
  <clipPath id="p1380e9a173">
   <rect x="7.2" y="29.37625" width="669.6" height="205.128"/>
  </clipPath>
 </defs>
</svg>
