<?xml version="1.0" encoding="utf-8" standalone="no"?>
<!DOCTYPE svg PUBLIC "-//W3C//DTD SVG 1.1//EN"
  "http://www.w3.org/Graphics/SVG/1.1/DTD/svg11.dtd">
<svg xmlns:xlink="http://www.w3.org/1999/xlink" width="836.39952pt" height="378.709869pt" viewBox="0 0 836.39952 378.709869" xmlns="http://www.w3.org/2000/svg" version="1.1">
 <metadata>
  <rdf:RDF xmlns:dc="http://purl.org/dc/elements/1.1/" xmlns:cc="http://creativecommons.org/ns#" xmlns:rdf="http://www.w3.org/1999/02/22-rdf-syntax-ns#">
   <cc:Work>
    <dc:type rdf:resource="http://purl.org/dc/dcmitype/StillImage"/>
    <dc:format>image/svg+xml</dc:format>
    <dc:creator>
     <cc:Agent>
      <dc:title>Matplotlib v3.11.1, https://matplotlib.org/</dc:title>
     </cc:Agent>
    </dc:creator>
   </cc:Work>
  </rdf:RDF>
 </metadata>
 <defs>
  <style type="text/css">*{stroke-linejoin: round; stroke-linecap: butt}</style>
 </defs>
 <g id="figure_1">
  <g id="patch_1">
   <path d="M 0 378.709869 
L 836.39952 378.709869 
L 836.39952 0 
L 0 0 
z
" style="fill: #ffffff"/>
  </g>
  <g id="axes_1">
   <g id="patch_2">
    <path d="M 44.103125 322.99952 
L 420.583979 322.99952 
L 420.583979 22.71 
L 44.103125 22.71 
z
" style="fill: #ffffff"/>
   </g>
   <g id="PathCollection_1">
    <defs>
     <path id="m744978979b" d="M 0 3.708099 
C 0.983399 3.708099 1.926654 3.317391 2.622022 2.622022 
C 3.317391 1.926654 3.708099 0.983399 3.708099 0 
C 3.708099 -0.983399 3.317391 -1.926654 2.622022 -2.622022 
C 1.926654 -3.317391 0.983399 -3.708099 0 -3.708099 
C -0.983399 -3.708099 -1.926654 -3.317391 -2.622022 -2.622022 
C -3.317391 -1.926654 -3.708099 -0.983399 -3.708099 0 
C -3.708099 0.983399 -3.317391 1.926654 -2.622022 2.622022 
C -1.926654 3.317391 -0.983399 3.708099 0 3.708099 
z
" style="stroke: #0072b2"/>
    </defs>
    <g clip-path="url(#p2c3f2fdc7b)">
     <use xlink:href="#m744978979b" x="104.340062" y="253.93293" style="fill: #0072b2; stroke: #0072b2"/>
     <use xlink:href="#m744978979b" x="160.81219" y="142.825808" style="fill: #0072b2; stroke: #0072b2"/>
     <use xlink:href="#m744978979b" x="205.989892" y="250.930035" style="fill: #0072b2; stroke: #0072b2"/>
     <use xlink:href="#m744978979b" x="224.813935" y="187.869236" style="fill: #0072b2; stroke: #0072b2"/>
     <use xlink:href="#m744978979b" x="138.223338" y="73.759218" style="fill: #0072b2; stroke: #0072b2"/>
     <use xlink:href="#m744978979b" x="251.167595" y="214.895293" style="fill: #0072b2; stroke: #0072b2"/>
    </g>
   </g>
   <g id="PathCollection_2">
    <defs>
     <path id="medac98d117" d="M 0 -4.031129 
L -4.031129 4.031129 
L 4.031129 4.031129 
z
" style="stroke: #e69f00"/>
    </defs>
    <g clip-path="url(#p2c3f2fdc7b)">
     <use xlink:href="#medac98d117" x="315.16934" y="112.796856" style="fill: #e69f00; stroke: #e69f00"/>
     <use xlink:href="#medac98d117" x="345.287808" y="166.84897" style="fill: #e69f00; stroke: #e69f00"/>
     <use xlink:href="#medac98d117" x="285.050871" y="70.756323" style="fill: #e69f00; stroke: #e69f00"/>
     <use xlink:href="#medac98d117" x="371.641468" y="88.773694" style="fill: #e69f00; stroke: #e69f00"/>
     <use xlink:href="#medac98d117" x="262.46202" y="145.828703" style="fill: #e69f00; stroke: #e69f00"/>
    </g>
   </g>
   <g id="matplotlib.axis_1">
    <g id="xtick_1">
     <g id="line2d_1">
      <path d="M 44.103125 322.99952 
L 44.103125 22.71 
" clip-path="url(#p2c3f2fdc7b)" style="fill: none; stroke: #e2e2e2; stroke-width: 0.7; stroke-linecap: square"/>
     </g>
     <g id="line2d_2">
      <defs>
       <path id="mb28d660c87" d="M 0 0 
L 0 3.5 
" style="stroke: #000000; stroke-width: 0.8"/>
      </defs>
      <g>
       <use xlink:href="#mb28d660c87" x="44.103125" y="322.99952" style="stroke: #000000; stroke-width: 0.8"/>
      </g>
     </g>
     <g id="text_1">
      <!-- 0.0 -->
      <g transform="translate(36.151563 337.597176) scale(0.1 -0.1)">
       <defs>
        <path id="DejaVuSans-13" d="M 2034 4250 
Q 1547 4250 1301 3770 
Q 1056 3291 1056 2328 
Q 1056 1369 1301 889 
Q 1547 409 2034 409 
Q 2525 409 2770 889 
Q 3016 1369 3016 2328 
Q 3016 3291 2770 3770 
Q 2525 4250 2034 4250 
z
M 2034 4750 
Q 2819 4750 3233 4129 
Q 3647 3509 3647 2328 
Q 3647 1150 3233 529 
Q 2819 -91 2034 -91 
Q 1250 -91 836 529 
Q 422 1150 422 2328 
Q 422 3509 836 4129 
Q 1250 4750 2034 4750 
z
" transform="scale(0.015625)"/>
        <path id="DejaVuSans-11" d="M 684 794 
L 1344 794 
L 1344 0 
L 684 0 
L 684 794 
z
" transform="scale(0.015625)"/>
       </defs>
       <use xlink:href="#DejaVuSans-13"/>
       <use xlink:href="#DejaVuSans-11" transform="translate(63.625 0)"/>
       <use xlink:href="#DejaVuSans-13" transform="translate(95.40625 0)"/>
      </g>
     </g>
    </g>
    <g id="xtick_2">
     <g id="line2d_3">
      <path d="M 119.399296 322.99952 
L 119.399296 22.71 
" clip-path="url(#p2c3f2fdc7b)" style="fill: none; stroke: #e2e2e2; stroke-width: 0.7; stroke-linecap: square"/>
     </g>
     <g id="line2d_4">
      <g>
       <use xlink:href="#mb28d660c87" x="119.399296" y="322.99952" style="stroke: #000000; stroke-width: 0.8"/>
      </g>
     </g>
     <g id="text_2">
      <!-- 0.2 -->
      <g transform="translate(111.447733 337.597176) scale(0.1 -0.1)">
       <defs>
        <path id="DejaVuSans-15" d="M 1228 531 
L 3431 531 
L 3431 0 
L 469 0 
L 469 531 
Q 828 903 1448 1529 
Q 2069 2156 2228 2338 
Q 2531 2678 2651 2914 
Q 2772 3150 2772 3378 
Q 2772 3750 2511 3984 
Q 2250 4219 1831 4219 
Q 1534 4219 1204 4116 
Q 875 4013 500 3803 
L 500 4441 
Q 881 4594 1212 4672 
Q 1544 4750 1819 4750 
Q 2544 4750 2975 4387 
Q 3406 4025 3406 3419 
Q 3406 3131 3298 2873 
Q 3191 2616 2906 2266 
Q 2828 2175 2409 1742 
Q 1991 1309 1228 531 
z
" transform="scale(0.015625)"/>
       </defs>
       <use xlink:href="#DejaVuSans-13"/>
       <use xlink:href="#DejaVuSans-11" transform="translate(63.625 0)"/>
       <use xlink:href="#DejaVuSans-15" transform="translate(95.40625 0)"/>
      </g>
     </g>
    </g>
    <g id="xtick_3">
     <g id="line2d_5">
      <path d="M 194.695466 322.99952 
L 194.695466 22.71 
" clip-path="url(#p2c3f2fdc7b)" style="fill: none; stroke: #e2e2e2; stroke-width: 0.7; stroke-linecap: square"/>
     </g>
     <g id="line2d_6">
      <g>
       <use xlink:href="#mb28d660c87" x="194.695466" y="322.99952" style="stroke: #000000; stroke-width: 0.8"/>
      </g>
     </g>
     <g id="text_3">
      <!-- 0.4 -->
      <g transform="translate(186.743904 337.597176) scale(0.1 -0.1)">
       <defs>
        <path id="DejaVuSans-17" d="M 2419 4116 
L 825 1625 
L 2419 1625 
L 2419 4116 
z
M 2253 4666 
L 3047 4666 
L 3047 1625 
L 3713 1625 
L 3713 1100 
L 3047 1100 
L 3047 0 
L 2419 0 
L 2419 1100 
L 313 1100 
L 313 1709 
L 2253 4666 
z
" transform="scale(0.015625)"/>
       </defs>
       <use xlink:href="#DejaVuSans-13"/>
       <use xlink:href="#DejaVuSans-11" transform="translate(63.625 0)"/>
       <use xlink:href="#DejaVuSans-17" transform="translate(95.40625 0)"/>
      </g>
     </g>
    </g>
    <g id="xtick_4">
     <g id="line2d_7">
      <path d="M 269.991637 322.99952 
L 269.991637 22.71 
" clip-path="url(#p2c3f2fdc7b)" style="fill: none; stroke: #e2e2e2; stroke-width: 0.7; stroke-linecap: square"/>
     </g>
     <g id="line2d_8">
      <g>
       <use xlink:href="#mb28d660c87" x="269.991637" y="322.99952" style="stroke: #000000; stroke-width: 0.8"/>
      </g>
     </g>
     <g id="text_4">
      <!-- 0.6 -->
      <g transform="translate(262.040075 337.597176) scale(0.1 -0.1)">
       <defs>
        <path id="DejaVuSans-19" d="M 2113 2584 
Q 1688 2584 1439 2293 
Q 1191 2003 1191 1497 
Q 1191 994 1439 701 
Q 1688 409 2113 409 
Q 2538 409 2786 701 
Q 3034 994 3034 1497 
Q 3034 2003 2786 2293 
Q 2538 2584 2113 2584 
z
M 3366 4563 
L 3366 3988 
Q 3128 4100 2886 4159 
Q 2644 4219 2406 4219 
Q 1781 4219 1451 3797 
Q 1122 3375 1075 2522 
Q 1259 2794 1537 2939 
Q 1816 3084 2150 3084 
Q 2853 3084 3261 2657 
Q 3669 2231 3669 1497 
Q 3669 778 3244 343 
Q 2819 -91 2113 -91 
Q 1303 -91 875 529 
Q 447 1150 447 2328 
Q 447 3434 972 4092 
Q 1497 4750 2381 4750 
Q 2619 4750 2861 4703 
Q 3103 4656 3366 4563 
z
" transform="scale(0.015625)"/>
       </defs>
       <use xlink:href="#DejaVuSans-13"/>
       <use xlink:href="#DejaVuSans-11" transform="translate(63.625 0)"/>
       <use xlink:href="#DejaVuSans-19" transform="translate(95.40625 0)"/>
      </g>
     </g>
    </g>
    <g id="xtick_5">
     <g id="line2d_9">
      <path d="M 345.287808 322.99952 
L 345.287808 22.71 
" clip-path="url(#p2c3f2fdc7b)" style="fill: none; stroke: #e2e2e2; stroke-width: 0.7; stroke-linecap: square"/>
     </g>
     <g id="line2d_10">
      <g>
       <use xlink:href="#mb28d660c87" x="345.287808" y="322.99952" style="stroke: #000000; stroke-width: 0.8"/>
      </g>
     </g>
     <g id="text_5">
      <!-- 0.8 -->
      <g transform="translate(337.336245 337.597176) scale(0.1 -0.1)">
       <defs>
        <path id="DejaVuSans-1b" d="M 2034 2216 
Q 1584 2216 1326 1975 
Q 1069 1734 1069 1313 
Q 1069 891 1326 650 
Q 1584 409 2034 409 
Q 2484 409 2743 651 
Q 3003 894 3003 1313 
Q 3003 1734 2745 1975 
Q 2488 2216 2034 2216 
z
M 1403 2484 
Q 997 2584 770 2862 
Q 544 3141 544 3541 
Q 544 4100 942 4425 
Q 1341 4750 2034 4750 
Q 2731 4750 3128 4425 
Q 3525 4100 3525 3541 
Q 3525 3141 3298 2862 
Q 3072 2584 2669 2484 
Q 3125 2378 3379 2068 
Q 3634 1759 3634 1313 
Q 3634 634 3220 271 
Q 2806 -91 2034 -91 
Q 1263 -91 848 271 
Q 434 634 434 1313 
Q 434 1759 690 2068 
Q 947 2378 1403 2484 
z
M 1172 3481 
Q 1172 3119 1398 2916 
Q 1625 2713 2034 2713 
Q 2441 2713 2670 2916 
Q 2900 3119 2900 3481 
Q 2900 3844 2670 4047 
Q 2441 4250 2034 4250 
Q 1625 4250 1398 4047 
Q 1172 3844 1172 3481 
z
" transform="scale(0.015625)"/>
       </defs>
       <use xlink:href="#DejaVuSans-13"/>
       <use xlink:href="#DejaVuSans-11" transform="translate(63.625 0)"/>
       <use xlink:href="#DejaVuSans-1b" transform="translate(95.40625 0)"/>
      </g>
     </g>
    </g>
    <g id="xtick_6">
     <g id="line2d_11">
      <path d="M 420.583979 322.99952 
L 420.583979 22.71 
" clip-path="url(#p2c3f2fdc7b)" style="fill: none; stroke: #e2e2e2; stroke-width: 0.7; stroke-linecap: square"/>
     </g>
     <g id="line2d_12">
      <g>
       <use xlink:href="#mb28d660c87" x="420.583979" y="322.99952" style="stroke: #000000; stroke-width: 0.8"/>
      </g>
     </g>
     <g id="text_6">
      <!-- 1.0 -->
      <g transform="translate(412.632416 337.597176) scale(0.1 -0.1)">
       <defs>
        <path id="DejaVuSans-14" d="M 794 531 
L 1825 531 
L 1825 4091 
L 703 3866 
L 703 4441 
L 1819 4666 
L 2450 4666 
L 2450 531 
L 3481 531 
L 3481 0 
L 794 0 
L 794 531 
z
" transform="scale(0.015625)"/>
       </defs>
       <use xlink:href="#DejaVuSans-14"/>
       <use xlink:href="#DejaVuSans-11" transform="translate(63.625 0)"/>
       <use xlink:href="#DejaVuSans-13" transform="translate(95.40625 0)"/>
      </g>
     </g>
    </g>
    <g id="text_7">
     <!-- Признак A (условный) -->
     <g transform="translate(174.271677 351.597176) scale(0.1 -0.1)">
      <defs>
       <path id="DejaVuSans-3b3" d="M 4184 4666 
L 4184 0 
L 3553 0 
L 3553 4134 
L 1259 4134 
L 1259 0 
L 628 0 
L 628 4666 
L 4184 4666 
z
" transform="scale(0.015625)"/>
       <path id="DejaVuSans-3d4" d="M 1159 525 
L 1159 -1331 
L 581 -1331 
L 581 3500 
L 1159 3500 
L 1159 2969 
Q 1341 3281 1617 3432 
Q 1894 3584 2278 3584 
Q 2916 3584 3314 3078 
Q 3713 2572 3713 1747 
Q 3713 922 3314 415 
Q 2916 -91 2278 -91 
Q 1894 -91 1617 61 
Q 1341 213 1159 525 
z
M 3116 1747 
Q 3116 2381 2855 2742 
Q 2594 3103 2138 3103 
Q 1681 3103 1420 2742 
Q 1159 2381 1159 1747 
Q 1159 1113 1420 752 
Q 1681 391 2138 391 
Q 2594 391 2855 752 
Q 3116 1113 3116 1747 
z
" transform="scale(0.015625)"/>
       <path id="DejaVuSans-3cc" d="M 3578 3500 
L 3578 0 
L 3006 0 
L 3006 2809 
L 1319 0 
L 581 0 
L 581 3500 
L 1153 3500 
L 1153 697 
L 2838 3500 
L 3578 3500 
z
" transform="scale(0.015625)"/>
       <path id="DejaVuSans-3cb" d="M 2206 1888 
Q 2594 1813 2809 1584 
Q 3025 1356 3025 1019 
Q 3025 478 2622 193 
Q 2219 -91 1475 -91 
Q 1225 -91 961 -47 
Q 697 -3 416 84 
L 416 619 
Q 638 503 903 445 
Q 1169 388 1459 388 
Q 1931 388 2195 563 
Q 2459 738 2459 1019 
Q 2459 1294 2225 1461 
Q 1991 1628 1563 1628 
L 1100 1628 
L 1100 2103 
L 1584 2103 
Q 1947 2103 2158 2242 
Q 2369 2381 2369 2600 
Q 2369 2800 2151 2944 
Q 1934 3088 1563 3088 
Q 1341 3088 1089 3047 
Q 838 3006 534 2916 
L 534 3438 
Q 841 3513 1106 3550 
Q 1372 3588 1609 3588 
Q 2222 3588 2576 3342 
Q 2931 3097 2931 2656 
Q 2931 2366 2743 2164 
Q 2556 1963 2206 1888 
z
" transform="scale(0.015625)"/>
       <path id="DejaVuSans-3d1" d="M 581 3500 
L 1159 3500 
L 1159 2072 
L 3025 2072 
L 3025 3500 
L 3603 3500 
L 3603 0 
L 3025 0 
L 3025 1613 
L 1159 1613 
L 1159 0 
L 581 0 
L 581 3500 
z
" transform="scale(0.015625)"/>
       <path id="DejaVuSans-3c4" d="M 2194 1759 
Q 1497 1759 1228 1600 
Q 959 1441 959 1056 
Q 959 750 1161 570 
Q 1363 391 1709 391 
Q 2188 391 2477 730 
Q 2766 1069 2766 1631 
L 2766 1759 
L 2194 1759 
z
M 3341 1997 
L 3341 0 
L 2766 0 
L 2766 531 
Q 2569 213 2275 61 
Q 1981 -91 1556 -91 
Q 1019 -91 701 211 
Q 384 513 384 1019 
Q 384 1609 779 1909 
Q 1175 2209 1959 2209 
L 2766 2209 
L 2766 2266 
Q 2766 2663 2505 2880 
Q 2244 3097 1772 3097 
Q 1472 3097 1187 3025 
Q 903 2953 641 2809 
L 641 3341 
Q 956 3463 1253 3523 
Q 1550 3584 1831 3584 
Q 2591 3584 2966 3190 
Q 3341 2797 3341 1997 
z
" transform="scale(0.015625)"/>
       <path id="DejaVuSans-3ce" d="M 581 3500 
L 1153 3500 
L 1153 1856 
L 2775 3500 
L 3481 3500 
L 2144 2147 
L 3653 0 
L 3009 0 
L 1769 1766 
L 1153 1141 
L 1153 0 
L 581 0 
L 581 3500 
z
" transform="scale(0.015625)"/>
       <path id="DejaVuSans-3" transform="scale(0.015625)"/>
       <path id="DejaVuSans-24" d="M 2188 4044 
L 1331 1722 
L 3047 1722 
L 2188 4044 
z
M 1831 4666 
L 2547 4666 
L 4325 0 
L 3669 0 
L 3244 1197 
L 1141 1197 
L 716 0 
L 50 0 
L 1831 4666 
z
" transform="scale(0.015625)"/>
       <path id="DejaVuSans-b" d="M 1984 4856 
Q 1566 4138 1362 3434 
Q 1159 2731 1159 2009 
Q 1159 1288 1364 580 
Q 1569 -128 1984 -844 
L 1484 -844 
Q 1016 -109 783 600 
Q 550 1309 550 2009 
Q 550 2706 781 3412 
Q 1013 4119 1484 4856 
L 1984 4856 
z
" transform="scale(0.015625)"/>
       <path id="DejaVuSans-3d7" d="M 2059 -325 
Q 1816 -950 1584 -1140 
Q 1353 -1331 966 -1331 
L 506 -1331 
L 506 -850 
L 844 -850 
Q 1081 -850 1212 -737 
Q 1344 -625 1503 -206 
L 1606 56 
L 191 3500 
L 800 3500 
L 1894 763 
L 2988 3500 
L 3597 3500 
L 2059 -325 
z
" transform="scale(0.015625)"/>
       <path id="DejaVuSans-3d5" d="M 3122 3366 
L 3122 2828 
Q 2878 2963 2633 3030 
Q 2388 3097 2138 3097 
Q 1578 3097 1268 2742 
Q 959 2388 959 1747 
Q 959 1106 1268 751 
Q 1578 397 2138 397 
Q 2388 397 2633 464 
Q 2878 531 3122 666 
L 3122 134 
Q 2881 22 2623 -34 
Q 2366 -91 2075 -91 
Q 1284 -91 818 406 
Q 353 903 353 1747 
Q 353 2603 823 3093 
Q 1294 3584 2113 3584 
Q 2378 3584 2631 3529 
Q 2884 3475 3122 3366 
z
" transform="scale(0.015625)"/>
       <path id="DejaVuSans-3cf" d="M 238 0 
L 238 478 
Q 806 566 981 959 
Q 1194 1513 1194 2928 
L 1194 3500 
L 3559 3500 
L 3559 0 
L 2984 0 
L 2984 3041 
L 1769 3041 
L 1769 2694 
Q 1769 1344 1494 738 
Q 1200 91 238 0 
z
" transform="scale(0.015625)"/>
       <path id="DejaVuSans-3d2" d="M 1959 3097 
Q 1497 3097 1228 2736 
Q 959 2375 959 1747 
Q 959 1119 1226 758 
Q 1494 397 1959 397 
Q 2419 397 2687 759 
Q 2956 1122 2956 1747 
Q 2956 2369 2687 2733 
Q 2419 3097 1959 3097 
z
M 1959 3584 
Q 2709 3584 3137 3096 
Q 3566 2609 3566 1747 
Q 3566 888 3137 398 
Q 2709 -91 1959 -91 
Q 1206 -91 779 398 
Q 353 888 353 1747 
Q 353 2609 779 3096 
Q 1206 3584 1959 3584 
z
" transform="scale(0.015625)"/>
       <path id="DejaVuSans-3c6" d="M 1156 1613 
L 1156 459 
L 1975 459 
Q 2369 459 2575 607 
Q 2781 756 2781 1038 
Q 2781 1319 2575 1466 
Q 2369 1613 1975 1613 
L 1156 1613 
z
M 1156 3041 
L 1156 2072 
L 1913 2072 
Q 2238 2072 2444 2201 
Q 2650 2331 2650 2563 
Q 2650 2794 2444 2917 
Q 2238 3041 1913 3041 
L 1156 3041 
z
M 581 3500 
L 1950 3500 
Q 2566 3500 2897 3275 
Q 3228 3050 3228 2634 
Q 3228 2313 3059 2123 
Q 2891 1934 2559 1888 
Q 2956 1813 3175 1575 
Q 3394 1338 3394 981 
Q 3394 513 3033 256 
Q 2672 0 2003 0 
L 581 0 
L 581 3500 
z
" transform="scale(0.015625)"/>
       <path id="DejaVuSans-3df" d="M 3909 3500 
L 4484 3500 
L 4484 0 
L 3909 0 
L 3909 3500 
z
M 4197 3584 
L 4197 3584 
z
M 2781 1038 
Q 2781 1319 2576 1466 
Q 2372 1613 1978 1613 
L 1159 1613 
L 1159 459 
L 1978 459 
Q 2372 459 2576 607 
Q 2781 756 2781 1038 
z
M 581 3500 
L 1159 3500 
L 1159 2072 
L 2003 2072 
Q 2672 2072 3033 1817 
Q 3394 1563 3394 1038 
Q 3394 513 3033 256 
Q 2672 0 2003 0 
L 581 0 
L 581 3500 
z
" transform="scale(0.015625)"/>
       <path id="DejaVuSans-3cd" d="M 3578 3500 
L 3578 0 
L 3006 0 
L 3006 2809 
L 1319 0 
L 581 0 
L 581 3500 
L 1153 3500 
L 1153 697 
L 2838 3500 
L 3578 3500 
z
M 1103 4862 
L 1472 4862 
Q 1506 4628 1657 4510 
Q 1809 4393 2081 4393 
Q 2350 4393 2500 4509 
Q 2650 4625 2690 4862 
L 3059 4862 
Q 3028 4415 2781 4190 
Q 2534 3965 2081 3965 
Q 1628 3965 1381 4190 
Q 1134 4415 1103 4862 
z
" transform="scale(0.015625)"/>
       <path id="DejaVuSans-c" d="M 513 4856 
L 1013 4856 
Q 1481 4119 1714 3412 
Q 1947 2706 1947 2009 
Q 1947 1309 1714 600 
Q 1481 -109 1013 -844 
L 513 -844 
Q 928 -128 1133 580 
Q 1338 1288 1338 2009 
Q 1338 2731 1133 3434 
Q 928 4138 513 4856 
z
" transform="scale(0.015625)"/>
      </defs>
      <use xlink:href="#DejaVuSans-3b3"/>
      <use xlink:href="#DejaVuSans-3d4" transform="translate(75.203125 0)"/>
      <use xlink:href="#DejaVuSans-3cc" transform="translate(138.6875 0)"/>
      <use xlink:href="#DejaVuSans-3cb" transform="translate(203.671875 0)"/>
      <use xlink:href="#DejaVuSans-3d1" transform="translate(256.84375 0)"/>
      <use xlink:href="#DejaVuSans-3c4" transform="translate(322.21875 0)"/>
      <use xlink:href="#DejaVuSans-3ce" transform="translate(383.5 0)"/>
      <use xlink:href="#DejaVuSans-3" transform="translate(443.90625 0)"/>
      <use xlink:href="#DejaVuSans-24" transform="translate(475.6875 0)"/>
      <use xlink:href="#DejaVuSans-3" transform="translate(544.09375 0)"/>
      <use xlink:href="#DejaVuSans-b" transform="translate(575.875 0)"/>
      <use xlink:href="#DejaVuSans-3d7" transform="translate(614.890625 0)"/>
      <use xlink:href="#DejaVuSans-3d5" transform="translate(674.078125 0)"/>
      <use xlink:href="#DejaVuSans-3cf" transform="translate(729.0625 0)"/>
      <use xlink:href="#DejaVuSans-3d2" transform="translate(792.984375 0)"/>
      <use xlink:href="#DejaVuSans-3c6" transform="translate(854.171875 0)"/>
      <use xlink:href="#DejaVuSans-3d1" transform="translate(913.109375 0)"/>
      <use xlink:href="#DejaVuSans-3df" transform="translate(978.484375 0)"/>
      <use xlink:href="#DejaVuSans-3cd" transform="translate(1057.4375 0)"/>
      <use xlink:href="#DejaVuSans-c" transform="translate(1122.421875 0)"/>
     </g>
    </g>
   </g>
   <g id="matplotlib.axis_2">
    <g id="ytick_1">
     <g id="line2d_13">
      <path d="M 44.103125 322.99952 
L 420.583979 322.99952 
" clip-path="url(#p2c3f2fdc7b)" style="fill: none; stroke: #e2e2e2; stroke-width: 0.7; stroke-linecap: square"/>
     </g>
     <g id="line2d_14">
      <defs>
       <path id="m90a82c6a00" d="M 0 0 
L -3.5 0 
" style="stroke: #000000; stroke-width: 0.8"/>
      </defs>
      <g>
       <use xlink:href="#m90a82c6a00" x="44.103125" y="322.99952" style="stroke: #000000; stroke-width: 0.8"/>
      </g>
     </g>
     <g id="text_8">
      <!-- 0.0 -->
      <g transform="translate(21.2 326.798348) scale(0.1 -0.1)">
       <use xlink:href="#DejaVuSans-13"/>
       <use xlink:href="#DejaVuSans-11" transform="translate(63.625 0)"/>
       <use xlink:href="#DejaVuSans-13" transform="translate(95.40625 0)"/>
      </g>
     </g>
    </g>
    <g id="ytick_2">
     <g id="line2d_15">
      <path d="M 44.103125 262.941616 
L 420.583979 262.941616 
" clip-path="url(#p2c3f2fdc7b)" style="fill: none; stroke: #e2e2e2; stroke-width: 0.7; stroke-linecap: square"/>
     </g>
     <g id="line2d_16">
      <g>
       <use xlink:href="#m90a82c6a00" x="44.103125" y="262.941616" style="stroke: #000000; stroke-width: 0.8"/>
      </g>
     </g>
     <g id="text_9">
      <!-- 0.2 -->
      <g transform="translate(21.2 266.740444) scale(0.1 -0.1)">
       <use xlink:href="#DejaVuSans-13"/>
       <use xlink:href="#DejaVuSans-11" transform="translate(63.625 0)"/>
       <use xlink:href="#DejaVuSans-15" transform="translate(95.40625 0)"/>
      </g>
     </g>
    </g>
    <g id="ytick_3">
     <g id="line2d_17">
      <path d="M 44.103125 202.883712 
L 420.583979 202.883712 
" clip-path="url(#p2c3f2fdc7b)" style="fill: none; stroke: #e2e2e2; stroke-width: 0.7; stroke-linecap: square"/>
     </g>
     <g id="line2d_18">
      <g>
       <use xlink:href="#m90a82c6a00" x="44.103125" y="202.883712" style="stroke: #000000; stroke-width: 0.8"/>
      </g>
     </g>
     <g id="text_10">
      <!-- 0.4 -->
      <g transform="translate(21.2 206.68254) scale(0.1 -0.1)">
       <use xlink:href="#DejaVuSans-13"/>
       <use xlink:href="#DejaVuSans-11" transform="translate(63.625 0)"/>
       <use xlink:href="#DejaVuSans-17" transform="translate(95.40625 0)"/>
      </g>
     </g>
    </g>
    <g id="ytick_4">
     <g id="line2d_19">
      <path d="M 44.103125 142.825808 
L 420.583979 142.825808 
" clip-path="url(#p2c3f2fdc7b)" style="fill: none; stroke: #e2e2e2; stroke-width: 0.7; stroke-linecap: square"/>
     </g>
     <g id="line2d_20">
      <g>
       <use xlink:href="#m90a82c6a00" x="44.103125" y="142.825808" style="stroke: #000000; stroke-width: 0.8"/>
      </g>
     </g>
     <g id="text_11">
      <!-- 0.6 -->
      <g transform="translate(21.2 146.624636) scale(0.1 -0.1)">
       <use xlink:href="#DejaVuSans-13"/>
       <use xlink:href="#DejaVuSans-11" transform="translate(63.625 0)"/>
       <use xlink:href="#DejaVuSans-19" transform="translate(95.40625 0)"/>
      </g>
     </g>
    </g>
    <g id="ytick_5">
     <g id="line2d_21">
      <path d="M 44.103125 82.767904 
L 420.583979 82.767904 
" clip-path="url(#p2c3f2fdc7b)" style="fill: none; stroke: #e2e2e2; stroke-width: 0.7; stroke-linecap: square"/>
     </g>
     <g id="line2d_22">
      <g>
       <use xlink:href="#m90a82c6a00" x="44.103125" y="82.767904" style="stroke: #000000; stroke-width: 0.8"/>
      </g>
     </g>
     <g id="text_12">
      <!-- 0.8 -->
      <g transform="translate(21.2 86.566732) scale(0.1 -0.1)">
       <use xlink:href="#DejaVuSans-13"/>
       <use xlink:href="#DejaVuSans-11" transform="translate(63.625 0)"/>
       <use xlink:href="#DejaVuSans-1b" transform="translate(95.40625 0)"/>
      </g>
     </g>
    </g>
    <g id="ytick_6">
     <g id="line2d_23">
      <path d="M 44.103125 22.71 
L 420.583979 22.71 
" clip-path="url(#p2c3f2fdc7b)" style="fill: none; stroke: #e2e2e2; stroke-width: 0.7; stroke-linecap: square"/>
     </g>
     <g id="line2d_24">
      <g>
       <use xlink:href="#m90a82c6a00" x="44.103125" y="22.71" style="stroke: #000000; stroke-width: 0.8"/>
      </g>
     </g>
     <g id="text_13">
      <!-- 1.0 -->
      <g transform="translate(21.2 26.508828) scale(0.1 -0.1)">
       <use xlink:href="#DejaVuSans-14"/>
       <use xlink:href="#DejaVuSans-11" transform="translate(63.625 0)"/>
       <use xlink:href="#DejaVuSans-13" transform="translate(95.40625 0)"/>
      </g>
     </g>
    </g>
    <g id="text_14">
     <!-- Признак B (условный) -->
     <g transform="translate(14.797656 230.936791) rotate(-90) scale(0.1 -0.1)">
      <defs>
       <path id="DejaVuSans-25" d="M 1259 2228 
L 1259 519 
L 2272 519 
Q 2781 519 3026 730 
Q 3272 941 3272 1375 
Q 3272 1813 3026 2020 
Q 2781 2228 2272 2228 
L 1259 2228 
z
M 1259 4147 
L 1259 2741 
L 2194 2741 
Q 2656 2741 2882 2914 
Q 3109 3088 3109 3444 
Q 3109 3797 2882 3972 
Q 2656 4147 2194 4147 
L 1259 4147 
z
M 628 4666 
L 2241 4666 
Q 2963 4666 3353 4366 
Q 3744 4066 3744 3513 
Q 3744 3084 3544 2831 
Q 3344 2578 2956 2516 
Q 3422 2416 3680 2098 
Q 3938 1781 3938 1306 
Q 3938 681 3513 340 
Q 3088 0 2303 0 
L 628 0 
L 628 4666 
z
" transform="scale(0.015625)"/>
      </defs>
      <use xlink:href="#DejaVuSans-3b3"/>
      <use xlink:href="#DejaVuSans-3d4" transform="translate(75.203125 0)"/>
      <use xlink:href="#DejaVuSans-3cc" transform="translate(138.6875 0)"/>
      <use xlink:href="#DejaVuSans-3cb" transform="translate(203.671875 0)"/>
      <use xlink:href="#DejaVuSans-3d1" transform="translate(256.84375 0)"/>
      <use xlink:href="#DejaVuSans-3c4" transform="translate(322.21875 0)"/>
      <use xlink:href="#DejaVuSans-3ce" transform="translate(383.5 0)"/>
      <use xlink:href="#DejaVuSans-3" transform="translate(443.90625 0)"/>
      <use xlink:href="#DejaVuSans-25" transform="translate(475.6875 0)"/>
      <use xlink:href="#DejaVuSans-3" transform="translate(544.296875 0)"/>
      <use xlink:href="#DejaVuSans-b" transform="translate(576.078125 0)"/>
      <use xlink:href="#DejaVuSans-3d7" transform="translate(615.09375 0)"/>
      <use xlink:href="#DejaVuSans-3d5" transform="translate(674.28125 0)"/>
      <use xlink:href="#DejaVuSans-3cf" transform="translate(729.265625 0)"/>
      <use xlink:href="#DejaVuSans-3d2" transform="translate(793.1875 0)"/>
      <use xlink:href="#DejaVuSans-3c6" transform="translate(854.375 0)"/>
      <use xlink:href="#DejaVuSans-3d1" transform="translate(913.3125 0)"/>
      <use xlink:href="#DejaVuSans-3df" transform="translate(978.6875 0)"/>
      <use xlink:href="#DejaVuSans-3cd" transform="translate(1057.640625 0)"/>
      <use xlink:href="#DejaVuSans-c" transform="translate(1122.625 0)"/>
     </g>
    </g>
   </g>
   <g id="line2d_25">
    <path d="M 74.221593 262.941616 
L 397.995128 49.736057 
" clip-path="url(#p2c3f2fdc7b)" style="fill: none; stroke: #d55e00; stroke-width: 2; stroke-linecap: square"/>
   </g>
   <g id="patch_3">
    <path d="M 44.103125 322.99952 
L 44.103125 22.71 
" style="fill: none; stroke: #000000; stroke-width: 0.8; stroke-linejoin: miter; stroke-linecap: square"/>
   </g>
   <g id="patch_4">
    <path d="M 420.583979 322.99952 
L 420.583979 22.71 
" style="fill: none; stroke: #000000; stroke-width: 0.8; stroke-linejoin: miter; stroke-linecap: square"/>
   </g>
   <g id="patch_5">
    <path d="M 44.103125 322.99952 
L 420.583979 322.99952 
" style="fill: none; stroke: #000000; stroke-width: 0.8; stroke-linejoin: miter; stroke-linecap: square"/>
   </g>
   <g id="patch_6">
    <path d="M 44.103125 22.71 
L 420.583979 22.71 
" style="fill: none; stroke: #000000; stroke-width: 0.8; stroke-linejoin: miter; stroke-linecap: square"/>
   </g>
   <g id="text_15">
    <!-- Logistic Regression: гладкая граница -->
    <g transform="translate(44.103125 16.71) scale(0.12 -0.12)">
     <defs>
      <path id="DejaVuSans-Bold-2f" d="M 588 4666 
L 1791 4666 
L 1791 909 
L 3903 909 
L 3903 0 
L 588 0 
L 588 4666 
z
" transform="scale(0.015625)"/>
      <path id="DejaVuSans-Bold-52" d="M 2203 2784 
Q 1831 2784 1636 2517 
Q 1441 2250 1441 1747 
Q 1441 1244 1636 976 
Q 1831 709 2203 709 
Q 2569 709 2762 976 
Q 2956 1244 2956 1747 
Q 2956 2250 2762 2517 
Q 2569 2784 2203 2784 
z
M 2203 3584 
Q 3106 3584 3614 3096 
Q 4122 2609 4122 1747 
Q 4122 884 3614 396 
Q 3106 -91 2203 -91 
Q 1297 -91 786 396 
Q 275 884 275 1747 
Q 275 2609 786 3096 
Q 1297 3584 2203 3584 
z
" transform="scale(0.015625)"/>
      <path id="DejaVuSans-Bold-4a" d="M 2919 594 
Q 2688 288 2409 144 
Q 2131 0 1766 0 
Q 1125 0 706 504 
Q 288 1009 288 1791 
Q 288 2575 706 3076 
Q 1125 3578 1766 3578 
Q 2131 3578 2409 3434 
Q 2688 3291 2919 2981 
L 2919 3500 
L 4044 3500 
L 4044 353 
Q 4044 -491 3511 -936 
Q 2978 -1381 1966 -1381 
Q 1638 -1381 1331 -1331 
Q 1025 -1281 716 -1178 
L 716 -306 
Q 1009 -475 1290 -558 
Q 1572 -641 1856 -641 
Q 2406 -641 2662 -400 
Q 2919 -159 2919 353 
L 2919 594 
z
M 2181 2772 
Q 1834 2772 1640 2515 
Q 1447 2259 1447 1791 
Q 1447 1309 1634 1061 
Q 1822 813 2181 813 
Q 2531 813 2725 1069 
Q 2919 1325 2919 1791 
Q 2919 2259 2725 2515 
Q 2531 2772 2181 2772 
z
" transform="scale(0.015625)"/>
      <path id="DejaVuSans-Bold-4c" d="M 538 3500 
L 1656 3500 
L 1656 0 
L 538 0 
L 538 3500 
z
M 538 4863 
L 1656 4863 
L 1656 3950 
L 538 3950 
L 538 4863 
z
" transform="scale(0.015625)"/>
      <path id="DejaVuSans-Bold-56" d="M 3272 3391 
L 3272 2541 
Q 2913 2691 2578 2766 
Q 2244 2841 1947 2841 
Q 1628 2841 1473 2761 
Q 1319 2681 1319 2516 
Q 1319 2381 1436 2309 
Q 1553 2238 1856 2203 
L 2053 2175 
Q 2913 2066 3209 1816 
Q 3506 1566 3506 1031 
Q 3506 472 3093 190 
Q 2681 -91 1863 -91 
Q 1516 -91 1145 -36 
Q 775 19 384 128 
L 384 978 
Q 719 816 1070 734 
Q 1422 653 1784 653 
Q 2113 653 2278 743 
Q 2444 834 2444 1013 
Q 2444 1163 2330 1236 
Q 2216 1309 1875 1350 
L 1678 1375 
Q 931 1469 631 1722 
Q 331 1975 331 2491 
Q 331 3047 712 3315 
Q 1094 3584 1881 3584 
Q 2191 3584 2531 3537 
Q 2872 3491 3272 3391 
z
" transform="scale(0.015625)"/>
      <path id="DejaVuSans-Bold-57" d="M 1759 4494 
L 1759 3500 
L 2913 3500 
L 2913 2700 
L 1759 2700 
L 1759 1216 
Q 1759 972 1856 886 
Q 1953 800 2241 800 
L 2816 800 
L 2816 0 
L 1856 0 
Q 1194 0 917 276 
Q 641 553 641 1216 
L 641 2700 
L 84 2700 
L 84 3500 
L 641 3500 
L 641 4494 
L 1759 4494 
z
" transform="scale(0.015625)"/>
      <path id="DejaVuSans-Bold-46" d="M 3366 3391 
L 3366 2478 
Q 3138 2634 2908 2709 
Q 2678 2784 2431 2784 
Q 1963 2784 1702 2511 
Q 1441 2238 1441 1747 
Q 1441 1256 1702 982 
Q 1963 709 2431 709 
Q 2694 709 2930 787 
Q 3166 866 3366 1019 
L 3366 103 
Q 3103 6 2833 -42 
Q 2563 -91 2291 -91 
Q 1344 -91 809 395 
Q 275 881 275 1747 
Q 275 2613 809 3098 
Q 1344 3584 2291 3584 
Q 2566 3584 2833 3536 
Q 3100 3488 3366 3391 
z
" transform="scale(0.015625)"/>
      <path id="DejaVuSans-Bold-3" transform="scale(0.015625)"/>
      <path id="DejaVuSans-Bold-35" d="M 2297 2597 
Q 2675 2597 2839 2737 
Q 3003 2878 3003 3200 
Q 3003 3519 2839 3656 
Q 2675 3794 2297 3794 
L 1791 3794 
L 1791 2597 
L 2297 2597 
z
M 1791 1766 
L 1791 0 
L 588 0 
L 588 4666 
L 2425 4666 
Q 3347 4666 3776 4356 
Q 4206 4047 4206 3378 
Q 4206 2916 3982 2619 
Q 3759 2322 3309 2181 
Q 3556 2125 3751 1926 
Q 3947 1728 4147 1325 
L 4800 0 
L 3519 0 
L 2950 1159 
Q 2778 1509 2601 1637 
Q 2425 1766 2131 1766 
L 1791 1766 
z
" transform="scale(0.015625)"/>
      <path id="DejaVuSans-Bold-48" d="M 4031 1759 
L 4031 1441 
L 1416 1441 
Q 1456 1047 1700 850 
Q 1944 653 2381 653 
Q 2734 653 3104 758 
Q 3475 863 3866 1075 
L 3866 213 
Q 3469 63 3072 -14 
Q 2675 -91 2278 -91 
Q 1328 -91 801 392 
Q 275 875 275 1747 
Q 275 2603 792 3093 
Q 1309 3584 2216 3584 
Q 3041 3584 3536 3087 
Q 4031 2591 4031 1759 
z
M 2881 2131 
Q 2881 2450 2695 2645 
Q 2509 2841 2209 2841 
Q 1884 2841 1681 2658 
Q 1478 2475 1428 2131 
L 2881 2131 
z
" transform="scale(0.015625)"/>
      <path id="DejaVuSans-Bold-55" d="M 3138 2547 
Q 2991 2616 2845 2648 
Q 2700 2681 2553 2681 
Q 2122 2681 1889 2404 
Q 1656 2128 1656 1613 
L 1656 0 
L 538 0 
L 538 3500 
L 1656 3500 
L 1656 2925 
Q 1872 3269 2151 3426 
Q 2431 3584 2822 3584 
Q 2878 3584 2943 3579 
Q 3009 3575 3134 3559 
L 3138 2547 
z
" transform="scale(0.015625)"/>
      <path id="DejaVuSans-Bold-51" d="M 4056 2131 
L 4056 0 
L 2931 0 
L 2931 347 
L 2931 1631 
Q 2931 2084 2911 2256 
Q 2891 2428 2841 2509 
Q 2775 2619 2662 2680 
Q 2550 2741 2406 2741 
Q 2056 2741 1856 2470 
Q 1656 2200 1656 1722 
L 1656 0 
L 538 0 
L 538 3500 
L 1656 3500 
L 1656 2988 
Q 1909 3294 2193 3439 
Q 2478 3584 2822 3584 
Q 3428 3584 3742 3212 
Q 4056 2841 4056 2131 
z
" transform="scale(0.015625)"/>
      <path id="DejaVuSans-Bold-1d" d="M 716 3500 
L 1844 3500 
L 1844 2291 
L 716 2291 
L 716 3500 
z
M 716 1209 
L 1844 1209 
L 1844 0 
L 716 0 
L 716 1209 
z
" transform="scale(0.015625)"/>
      <path id="DejaVuSans-Bold-3c7" d="M 538 0 
L 538 3500 
L 3191 3500 
L 3191 2809 
L 1656 2809 
L 1656 0 
L 538 0 
z
" transform="scale(0.015625)"/>
      <path id="DejaVuSans-Bold-3cf" d="M 353 0 
L 353 800 
Q 906 913 1031 1278 
Q 1125 1556 1125 2928 
L 1125 3500 
L 4150 3500 
L 4150 0 
L 3031 0 
L 3031 2700 
L 2244 2700 
L 2244 2584 
Q 2244 1213 2028 813 
Q 1591 0 353 0 
z
" transform="scale(0.015625)"/>
      <path id="DejaVuSans-Bold-3c4" d="M 2106 1575 
Q 1756 1575 1579 1456 
Q 1403 1338 1403 1106 
Q 1403 894 1545 773 
Q 1688 653 1941 653 
Q 2256 653 2472 879 
Q 2688 1106 2688 1447 
L 2688 1575 
L 2106 1575 
z
M 3816 1997 
L 3816 0 
L 2688 0 
L 2688 519 
Q 2463 200 2181 54 
Q 1900 -91 1497 -91 
Q 953 -91 614 226 
Q 275 544 275 1050 
Q 275 1666 698 1953 
Q 1122 2241 2028 2241 
L 2688 2241 
L 2688 2328 
Q 2688 2594 2478 2717 
Q 2269 2841 1825 2841 
Q 1466 2841 1156 2769 
Q 847 2697 581 2553 
L 581 3406 
Q 941 3494 1303 3539 
Q 1666 3584 2028 3584 
Q 2975 3584 3395 3211 
Q 3816 2838 3816 1997 
z
" transform="scale(0.015625)"/>
      <path id="DejaVuSans-Bold-3c8" d="M 547 800 
Q 903 919 1053 1314 
Q 1203 1709 1203 2838 
L 1203 3500 
L 4228 3500 
L 4228 800 
L 4809 800 
L 4809 -884 
L 4009 -884 
L 4009 0 
L 1159 0 
L 1159 -884 
L 359 -884 
L 359 800 
L 547 800 
z
M 3109 2700 
L 2322 2700 
L 2322 2603 
Q 2322 1456 2063 800 
L 3109 800 
L 3109 2700 
z
" transform="scale(0.015625)"/>
      <path id="DejaVuSans-Bold-3ce" d="M 538 3500 
L 1656 3500 
L 1656 2316 
L 2903 3500 
L 4128 3500 
L 2634 2078 
L 4250 0 
L 3094 0 
L 1972 1447 
L 1656 1147 
L 1656 0 
L 538 0 
L 538 3500 
z
" transform="scale(0.015625)"/>
      <path id="DejaVuSans-Bold-3e3" d="M 1528 2394 
Q 1528 2169 1651 2069 
Q 1775 1969 2059 1969 
L 2463 1969 
L 2463 2816 
L 2059 2816 
Q 1775 2816 1651 2719 
Q 1528 2622 1528 2394 
z
M 197 0 
L 1113 1497 
Q 847 1650 650 1917 
Q 453 2184 453 2516 
Q 453 3013 789 3256 
Q 1125 3500 1878 3500 
L 3581 3500 
L 3581 0 
L 2463 0 
L 2463 1278 
L 2069 1278 
L 1288 0 
L 197 0 
z
" transform="scale(0.015625)"/>
      <path id="DejaVuSans-Bold-3d4" d="M 1656 506 
L 1656 -1331 
L 538 -1331 
L 538 3500 
L 1656 3500 
L 1656 2988 
Q 1888 3294 2169 3439 
Q 2450 3584 2816 3584 
Q 3463 3584 3878 3070 
Q 4294 2556 4294 1747 
Q 4294 938 3878 423 
Q 3463 -91 2816 -91 
Q 2450 -91 2169 54 
Q 1888 200 1656 506 
z
M 2400 2772 
Q 2041 2772 1848 2508 
Q 1656 2244 1656 1747 
Q 1656 1250 1848 986 
Q 2041 722 2400 722 
Q 2759 722 2948 984 
Q 3138 1247 3138 1747 
Q 3138 2247 2948 2509 
Q 2759 2772 2400 2772 
z
" transform="scale(0.015625)"/>
      <path id="DejaVuSans-Bold-3d1" d="M 538 3500 
L 1656 3500 
L 1656 2169 
L 2766 2169 
L 2766 3500 
L 3884 3500 
L 3884 0 
L 2766 0 
L 2766 1478 
L 1656 1478 
L 1656 0 
L 538 0 
L 538 3500 
z
" transform="scale(0.015625)"/>
      <path id="DejaVuSans-Bold-3cc" d="M 3947 3500 
L 3947 0 
L 2828 0 
L 2828 1863 
L 1700 0 
L 538 0 
L 538 3500 
L 1656 3500 
L 1656 1638 
L 2784 3500 
L 3947 3500 
z
" transform="scale(0.015625)"/>
      <path id="DejaVuSans-Bold-3da" d="M 3666 -884 
L 3666 0 
L 538 0 
L 538 3500 
L 1656 3500 
L 1656 800 
L 2766 800 
L 2766 3500 
L 3884 3500 
L 3884 800 
L 4466 800 
L 4466 -884 
L 3666 -884 
z
" transform="scale(0.015625)"/>
     </defs>
     <use xlink:href="#DejaVuSans-Bold-2f"/>
     <use xlink:href="#DejaVuSans-Bold-52" transform="translate(63.71875 0)"/>
     <use xlink:href="#DejaVuSans-Bold-4a" transform="translate(132.421875 0)"/>
     <use xlink:href="#DejaVuSans-Bold-4c" transform="translate(204 0)"/>
     <use xlink:href="#DejaVuSans-Bold-56" transform="translate(238.28125 0)"/>
     <use xlink:href="#DejaVuSans-Bold-57" transform="translate(297.796875 0)"/>
     <use xlink:href="#DejaVuSans-Bold-4c" transform="translate(345.59375 0)"/>
     <use xlink:href="#DejaVuSans-Bold-46" transform="translate(379.875 0)"/>
     <use xlink:href="#DejaVuSans-Bold-3" transform="translate(439.15625 0)"/>
     <use xlink:href="#DejaVuSans-Bold-35" transform="translate(473.96875 0)"/>
     <use xlink:href="#DejaVuSans-Bold-48" transform="translate(550.96875 0)"/>
     <use xlink:href="#DejaVuSans-Bold-4a" transform="translate(618.796875 0)"/>
     <use xlink:href="#DejaVuSans-Bold-55" transform="translate(690.375 0)"/>
     <use xlink:href="#DejaVuSans-Bold-48" transform="translate(739.6875 0)"/>
     <use xlink:href="#DejaVuSans-Bold-56" transform="translate(807.515625 0)"/>
     <use xlink:href="#DejaVuSans-Bold-56" transform="translate(867.03125 0)"/>
     <use xlink:href="#DejaVuSans-Bold-4c" transform="translate(926.546875 0)"/>
     <use xlink:href="#DejaVuSans-Bold-52" transform="translate(960.828125 0)"/>
     <use xlink:href="#DejaVuSans-Bold-51" transform="translate(1029.53125 0)"/>
     <use xlink:href="#DejaVuSans-Bold-1d" transform="translate(1100.71875 0)"/>
     <use xlink:href="#DejaVuSans-Bold-3" transform="translate(1140.703125 0)"/>
     <use xlink:href="#DejaVuSans-Bold-3c7" transform="translate(1175.515625 0)"/>
     <use xlink:href="#DejaVuSans-Bold-3cf" transform="translate(1227.765625 0)"/>
     <use xlink:href="#DejaVuSans-Bold-3c4" transform="translate(1301.015625 0)"/>
     <use xlink:href="#DejaVuSans-Bold-3c8" transform="translate(1368.5 0)"/>
     <use xlink:href="#DejaVuSans-Bold-3ce" transform="translate(1449.265625 0)"/>
     <use xlink:href="#DejaVuSans-Bold-3c4" transform="translate(1517.140625 0)"/>
     <use xlink:href="#DejaVuSans-Bold-3e3" transform="translate(1584.625 0)"/>
     <use xlink:href="#DejaVuSans-Bold-3" transform="translate(1648.828125 0)"/>
     <use xlink:href="#DejaVuSans-Bold-3c7" transform="translate(1683.640625 0)"/>
     <use xlink:href="#DejaVuSans-Bold-3d4" transform="translate(1735.890625 0)"/>
     <use xlink:href="#DejaVuSans-Bold-3c4" transform="translate(1807.46875 0)"/>
     <use xlink:href="#DejaVuSans-Bold-3d1" transform="translate(1874.953125 0)"/>
     <use xlink:href="#DejaVuSans-Bold-3cc" transform="translate(1944.046875 0)"/>
     <use xlink:href="#DejaVuSans-Bold-3da" transform="translate(2014.109375 0)"/>
     <use xlink:href="#DejaVuSans-Bold-3c4" transform="translate(2088.234375 0)"/>
    </g>
   </g>
   <g id="legend_1">
    <g id="PathCollection_3">
     <g>
      <use xlink:href="#m744978979b" x="61.203125" y="35.286094" style="fill: #0072b2; stroke: #0072b2"/>
     </g>
    </g>
    <g id="text_16">
     <!-- Нет покупки -->
     <g transform="translate(77.403125 37.648594) scale(0.09 -0.09)">
      <defs>
       <path id="DejaVuSans-3b1" d="M 628 4666 
L 1259 4666 
L 1259 2753 
L 3553 2753 
L 3553 4666 
L 4184 4666 
L 4184 0 
L 3553 0 
L 3553 2222 
L 1259 2222 
L 1259 0 
L 628 0 
L 628 4666 
z
" transform="scale(0.015625)"/>
       <path id="DejaVuSans-3c9" d="M 3597 1894 
L 3597 1613 
L 953 1613 
Q 991 1019 1311 708 
Q 1631 397 2203 397 
Q 2534 397 2845 478 
Q 3156 559 3463 722 
L 3463 178 
Q 3153 47 2828 -22 
Q 2503 -91 2169 -91 
Q 1331 -91 842 396 
Q 353 884 353 1716 
Q 353 2575 817 3079 
Q 1281 3584 2069 3584 
Q 2775 3584 3186 3129 
Q 3597 2675 3597 1894 
z
M 3022 2063 
Q 3016 2534 2758 2815 
Q 2500 3097 2075 3097 
Q 1594 3097 1305 2825 
Q 1016 2553 972 2059 
L 3022 2063 
z
" transform="scale(0.015625)"/>
       <path id="DejaVuSans-3d6" d="M 188 3500 
L 3541 3500 
L 3541 3041 
L 2147 3041 
L 2147 0 
L 1581 0 
L 1581 3041 
L 188 3041 
L 188 3500 
z
" transform="scale(0.015625)"/>
       <path id="DejaVuSans-3d3" d="M 3603 3500 
L 3603 0 
L 3025 0 
L 3025 3041 
L 1159 3041 
L 1159 0 
L 581 0 
L 581 3500 
L 3603 3500 
z
" transform="scale(0.015625)"/>
      </defs>
      <use xlink:href="#DejaVuSans-3b1"/>
      <use xlink:href="#DejaVuSans-3c9" transform="translate(75.203125 0)"/>
      <use xlink:href="#DejaVuSans-3d6" transform="translate(136.734375 0)"/>
      <use xlink:href="#DejaVuSans-3" transform="translate(194.984375 0)"/>
      <use xlink:href="#DejaVuSans-3d3" transform="translate(226.765625 0)"/>
      <use xlink:href="#DejaVuSans-3d2" transform="translate(292.140625 0)"/>
      <use xlink:href="#DejaVuSans-3ce" transform="translate(353.328125 0)"/>
      <use xlink:href="#DejaVuSans-3d7" transform="translate(413.734375 0)"/>
      <use xlink:href="#DejaVuSans-3d3" transform="translate(472.921875 0)"/>
      <use xlink:href="#DejaVuSans-3ce" transform="translate(538.296875 0)"/>
      <use xlink:href="#DejaVuSans-3cc" transform="translate(598.703125 0)"/>
     </g>
    </g>
    <g id="PathCollection_4">
     <g>
      <use xlink:href="#medac98d117" x="61.203125" y="48.786797" style="fill: #e69f00; stroke: #e69f00"/>
     </g>
    </g>
    <g id="text_17">
     <!-- Покупка -->
     <g transform="translate(77.403125 51.149297) scale(0.09 -0.09)">
      <use xlink:href="#DejaVuSans-3b3"/>
      <use xlink:href="#DejaVuSans-3d2" transform="translate(75.203125 0)"/>
      <use xlink:href="#DejaVuSans-3ce" transform="translate(136.390625 0)"/>
      <use xlink:href="#DejaVuSans-3d7" transform="translate(196.796875 0)"/>
      <use xlink:href="#DejaVuSans-3d3" transform="translate(255.984375 0)"/>
      <use xlink:href="#DejaVuSans-3ce" transform="translate(321.359375 0)"/>
      <use xlink:href="#DejaVuSans-3c4" transform="translate(381.765625 0)"/>
     </g>
    </g>
    <g id="line2d_26">
     <path d="M 52.203125 61.5 
L 61.203125 61.5 
L 70.203125 61.5 
" style="fill: none; stroke: #d55e00; stroke-width: 2; stroke-linecap: square"/>
    </g>
    <g id="text_18">
     <!-- Линейная граница -->
     <g transform="translate(77.403125 64.65) scale(0.09 -0.09)">
      <defs>
       <path id="DejaVuSans-3af" d="M 263 0 
L 263 531 
Q 941 678 1134 1191 
Q 1406 1997 1406 3872 
L 1406 4666 
L 4181 4666 
L 4181 0 
L 3550 0 
L 3550 4134 
L 2034 4134 
L 2034 3559 
Q 2034 1791 1716 966 
Q 1409 175 263 0 
z
" transform="scale(0.015625)"/>
       <path id="DejaVuSans-3e3" d="M 1181 2491 
Q 1181 2231 1381 2084 
Q 1581 1938 1953 1938 
L 2728 1938 
L 2728 3041 
L 1953 3041 
Q 1581 3041 1381 2897 
Q 1181 2753 1181 2491 
z
M 363 0 
L 1431 1534 
Q 1069 1616 828 1830 
Q 588 2044 588 2491 
Q 588 2997 923 3248 
Q 1259 3500 1938 3500 
L 3306 3500 
L 3306 0 
L 2728 0 
L 2728 1478 
L 2013 1478 
L 981 0 
L 363 0 
z
" transform="scale(0.015625)"/>
       <path id="DejaVuSans-3c7" d="M 581 0 
L 581 3500 
L 3050 3500 
L 3050 3041 
L 1159 3041 
L 1159 0 
L 581 0 
z
" transform="scale(0.015625)"/>
       <path id="DejaVuSans-3da" d="M 3603 0 
L 581 0 
L 581 3500 
L 1159 3500 
L 1159 459 
L 3025 459 
L 3025 3500 
L 3603 3500 
L 3603 459 
L 4063 459 
L 4063 -884 
L 3603 -884 
L 3603 0 
z
" transform="scale(0.015625)"/>
      </defs>
      <use xlink:href="#DejaVuSans-3af"/>
      <use xlink:href="#DejaVuSans-3cc" transform="translate(75.203125 0)"/>
      <use xlink:href="#DejaVuSans-3d1" transform="translate(140.1875 0)"/>
      <use xlink:href="#DejaVuSans-3c9" transform="translate(205.5625 0)"/>
      <use xlink:href="#DejaVuSans-3cd" transform="translate(267.09375 0)"/>
      <use xlink:href="#DejaVuSans-3d1" transform="translate(332.078125 0)"/>
      <use xlink:href="#DejaVuSans-3c4" transform="translate(397.453125 0)"/>
      <use xlink:href="#DejaVuSans-3e3" transform="translate(458.734375 0)"/>
      <use xlink:href="#DejaVuSans-3" transform="translate(518.890625 0)"/>
      <use xlink:href="#DejaVuSans-3c7" transform="translate(550.671875 0)"/>
      <use xlink:href="#DejaVuSans-3d4" transform="translate(603.21875 0)"/>
      <use xlink:href="#DejaVuSans-3c4" transform="translate(666.703125 0)"/>
      <use xlink:href="#DejaVuSans-3d1" transform="translate(727.984375 0)"/>
      <use xlink:href="#DejaVuSans-3cc" transform="translate(793.359375 0)"/>
      <use xlink:href="#DejaVuSans-3da" transform="translate(858.34375 0)"/>
      <use xlink:href="#DejaVuSans-3c4" transform="translate(926.40625 0)"/>
     </g>
    </g>
   </g>
  </g>
  <g id="axes_2">
   <g id="patch_7">
    <path d="M 444.767104 322.99952 
L 821.247957 322.99952 
L 821.247957 22.71 
L 444.767104 22.71 
z
" style="fill: #ffffff"/>
   </g>
   <g id="patch_8">
    <path d="M 670.655616 178.86055 
L 821.247957 178.86055 
L 821.247957 22.71 
L 670.655616 22.71 
z
" clip-path="url(#p12d19ba177)" style="fill: #fde9d9; opacity: 0.55"/>
   </g>
   <g id="PathCollection_5">
    <g clip-path="url(#p12d19ba177)">
     <use xlink:href="#m744978979b" x="505.00404" y="253.93293" style="fill: #0072b2; stroke: #0072b2"/>
     <use xlink:href="#m744978979b" x="561.476168" y="142.825808" style="fill: #0072b2; stroke: #0072b2"/>
     <use xlink:href="#m744978979b" x="606.653871" y="250.930035" style="fill: #0072b2; stroke: #0072b2"/>
     <use xlink:href="#m744978979b" x="625.477914" y="187.869236" style="fill: #0072b2; stroke: #0072b2"/>
     <use xlink:href="#m744978979b" x="538.887317" y="73.759218" style="fill: #0072b2; stroke: #0072b2"/>
     <use xlink:href="#m744978979b" x="651.831573" y="214.895293" style="fill: #0072b2; stroke: #0072b2"/>
    </g>
   </g>
   <g id="PathCollection_6">
    <g clip-path="url(#p12d19ba177)">
     <use xlink:href="#medac98d117" x="715.833318" y="112.796856" style="fill: #e69f00; stroke: #e69f00"/>
     <use xlink:href="#medac98d117" x="745.951787" y="166.84897" style="fill: #e69f00; stroke: #e69f00"/>
     <use xlink:href="#medac98d117" x="685.71485" y="70.756323" style="fill: #e69f00; stroke: #e69f00"/>
     <use xlink:href="#medac98d117" x="772.305447" y="88.773694" style="fill: #e69f00; stroke: #e69f00"/>
     <use xlink:href="#medac98d117" x="663.125999" y="145.828703" style="fill: #e69f00; stroke: #e69f00"/>
    </g>
   </g>
   <g id="matplotlib.axis_3">
    <g id="xtick_7">
     <g id="line2d_27">
      <path d="M 444.767104 322.99952 
L 444.767104 22.71 
" clip-path="url(#p12d19ba177)" style="fill: none; stroke: #e2e2e2; stroke-width: 0.7; stroke-linecap: square"/>
     </g>
     <g id="line2d_28">
      <g>
       <use xlink:href="#mb28d660c87" x="444.767104" y="322.99952" style="stroke: #000000; stroke-width: 0.8"/>
      </g>
     </g>
     <g id="text_19">
      <!-- 0.0 -->
      <g transform="translate(436.815541 337.597176) scale(0.1 -0.1)">
       <use xlink:href="#DejaVuSans-13"/>
       <use xlink:href="#DejaVuSans-11" transform="translate(63.625 0)"/>
       <use xlink:href="#DejaVuSans-13" transform="translate(95.40625 0)"/>
      </g>
     </g>
    </g>
    <g id="xtick_8">
     <g id="line2d_29">
      <path d="M 520.063275 322.99952 
L 520.063275 22.71 
" clip-path="url(#p12d19ba177)" style="fill: none; stroke: #e2e2e2; stroke-width: 0.7; stroke-linecap: square"/>
     </g>
     <g id="line2d_30">
      <g>
       <use xlink:href="#mb28d660c87" x="520.063275" y="322.99952" style="stroke: #000000; stroke-width: 0.8"/>
      </g>
     </g>
     <g id="text_20">
      <!-- 0.2 -->
      <g transform="translate(512.111712 337.597176) scale(0.1 -0.1)">
       <use xlink:href="#DejaVuSans-13"/>
       <use xlink:href="#DejaVuSans-11" transform="translate(63.625 0)"/>
       <use xlink:href="#DejaVuSans-15" transform="translate(95.40625 0)"/>
      </g>
     </g>
    </g>
    <g id="xtick_9">
     <g id="line2d_31">
      <path d="M 595.359445 322.99952 
L 595.359445 22.71 
" clip-path="url(#p12d19ba177)" style="fill: none; stroke: #e2e2e2; stroke-width: 0.7; stroke-linecap: square"/>
     </g>
     <g id="line2d_32">
      <g>
       <use xlink:href="#mb28d660c87" x="595.359445" y="322.99952" style="stroke: #000000; stroke-width: 0.8"/>
      </g>
     </g>
     <g id="text_21">
      <!-- 0.4 -->
      <g transform="translate(587.407883 337.597176) scale(0.1 -0.1)">
       <use xlink:href="#DejaVuSans-13"/>
       <use xlink:href="#DejaVuSans-11" transform="translate(63.625 0)"/>
       <use xlink:href="#DejaVuSans-17" transform="translate(95.40625 0)"/>
      </g>
     </g>
    </g>
    <g id="xtick_10">
     <g id="line2d_33">
      <path d="M 670.655616 322.99952 
L 670.655616 22.71 
" clip-path="url(#p12d19ba177)" style="fill: none; stroke: #e2e2e2; stroke-width: 0.7; stroke-linecap: square"/>
     </g>
     <g id="line2d_34">
      <g>
       <use xlink:href="#mb28d660c87" x="670.655616" y="322.99952" style="stroke: #000000; stroke-width: 0.8"/>
      </g>
     </g>
     <g id="text_22">
      <!-- 0.6 -->
      <g transform="translate(662.704053 337.597176) scale(0.1 -0.1)">
       <use xlink:href="#DejaVuSans-13"/>
       <use xlink:href="#DejaVuSans-11" transform="translate(63.625 0)"/>
       <use xlink:href="#DejaVuSans-19" transform="translate(95.40625 0)"/>
      </g>
     </g>
    </g>
    <g id="xtick_11">
     <g id="line2d_35">
      <path d="M 745.951787 322.99952 
L 745.951787 22.71 
" clip-path="url(#p12d19ba177)" style="fill: none; stroke: #e2e2e2; stroke-width: 0.7; stroke-linecap: square"/>
     </g>
     <g id="line2d_36">
      <g>
       <use xlink:href="#mb28d660c87" x="745.951787" y="322.99952" style="stroke: #000000; stroke-width: 0.8"/>
      </g>
     </g>
     <g id="text_23">
      <!-- 0.8 -->
      <g transform="translate(738.000224 337.597176) scale(0.1 -0.1)">
       <use xlink:href="#DejaVuSans-13"/>
       <use xlink:href="#DejaVuSans-11" transform="translate(63.625 0)"/>
       <use xlink:href="#DejaVuSans-1b" transform="translate(95.40625 0)"/>
      </g>
     </g>
    </g>
    <g id="xtick_12">
     <g id="line2d_37">
      <path d="M 821.247957 322.99952 
L 821.247957 22.71 
" clip-path="url(#p12d19ba177)" style="fill: none; stroke: #e2e2e2; stroke-width: 0.7; stroke-linecap: square"/>
     </g>
     <g id="line2d_38">
      <g>
       <use xlink:href="#mb28d660c87" x="821.247957" y="322.99952" style="stroke: #000000; stroke-width: 0.8"/>
      </g>
     </g>
     <g id="text_24">
      <!-- 1.0 -->
      <g transform="translate(813.296395 337.597176) scale(0.1 -0.1)">
       <use xlink:href="#DejaVuSans-14"/>
       <use xlink:href="#DejaVuSans-11" transform="translate(63.625 0)"/>
       <use xlink:href="#DejaVuSans-13" transform="translate(95.40625 0)"/>
      </g>
     </g>
    </g>
    <g id="text_25">
     <!-- Признак A (условный) -->
     <g transform="translate(574.935656 351.597176) scale(0.1 -0.1)">
      <use xlink:href="#DejaVuSans-3b3"/>
      <use xlink:href="#DejaVuSans-3d4" transform="translate(75.203125 0)"/>
      <use xlink:href="#DejaVuSans-3cc" transform="translate(138.6875 0)"/>
      <use xlink:href="#DejaVuSans-3cb" transform="translate(203.671875 0)"/>
      <use xlink:href="#DejaVuSans-3d1" transform="translate(256.84375 0)"/>
      <use xlink:href="#DejaVuSans-3c4" transform="translate(322.21875 0)"/>
      <use xlink:href="#DejaVuSans-3ce" transform="translate(383.5 0)"/>
      <use xlink:href="#DejaVuSans-3" transform="translate(443.90625 0)"/>
      <use xlink:href="#DejaVuSans-24" transform="translate(475.6875 0)"/>
      <use xlink:href="#DejaVuSans-3" transform="translate(544.09375 0)"/>
      <use xlink:href="#DejaVuSans-b" transform="translate(575.875 0)"/>
      <use xlink:href="#DejaVuSans-3d7" transform="translate(614.890625 0)"/>
      <use xlink:href="#DejaVuSans-3d5" transform="translate(674.078125 0)"/>
      <use xlink:href="#DejaVuSans-3cf" transform="translate(729.0625 0)"/>
      <use xlink:href="#DejaVuSans-3d2" transform="translate(792.984375 0)"/>
      <use xlink:href="#DejaVuSans-3c6" transform="translate(854.171875 0)"/>
      <use xlink:href="#DejaVuSans-3d1" transform="translate(913.109375 0)"/>
      <use xlink:href="#DejaVuSans-3df" transform="translate(978.484375 0)"/>
      <use xlink:href="#DejaVuSans-3cd" transform="translate(1057.4375 0)"/>
      <use xlink:href="#DejaVuSans-c" transform="translate(1122.421875 0)"/>
     </g>
    </g>
   </g>
   <g id="matplotlib.axis_4">
    <g id="ytick_7">
     <g id="line2d_39">
      <path d="M 444.767104 322.99952 
L 821.247957 322.99952 
" clip-path="url(#p12d19ba177)" style="fill: none; stroke: #e2e2e2; stroke-width: 0.7; stroke-linecap: square"/>
     </g>
     <g id="line2d_40">
      <g>
       <use xlink:href="#m90a82c6a00" x="444.767104" y="322.99952" style="stroke: #000000; stroke-width: 0.8"/>
      </g>
     </g>
    </g>
    <g id="ytick_8">
     <g id="line2d_41">
      <path d="M 444.767104 262.941616 
L 821.247957 262.941616 
" clip-path="url(#p12d19ba177)" style="fill: none; stroke: #e2e2e2; stroke-width: 0.7; stroke-linecap: square"/>
     </g>
     <g id="line2d_42">
      <g>
       <use xlink:href="#m90a82c6a00" x="444.767104" y="262.941616" style="stroke: #000000; stroke-width: 0.8"/>
      </g>
     </g>
    </g>
    <g id="ytick_9">
     <g id="line2d_43">
      <path d="M 444.767104 202.883712 
L 821.247957 202.883712 
" clip-path="url(#p12d19ba177)" style="fill: none; stroke: #e2e2e2; stroke-width: 0.7; stroke-linecap: square"/>
     </g>
     <g id="line2d_44">
      <g>
       <use xlink:href="#m90a82c6a00" x="444.767104" y="202.883712" style="stroke: #000000; stroke-width: 0.8"/>
      </g>
     </g>
    </g>
    <g id="ytick_10">
     <g id="line2d_45">
      <path d="M 444.767104 142.825808 
L 821.247957 142.825808 
" clip-path="url(#p12d19ba177)" style="fill: none; stroke: #e2e2e2; stroke-width: 0.7; stroke-linecap: square"/>
     </g>
     <g id="line2d_46">
      <g>
       <use xlink:href="#m90a82c6a00" x="444.767104" y="142.825808" style="stroke: #000000; stroke-width: 0.8"/>
      </g>
     </g>
    </g>
    <g id="ytick_11">
     <g id="line2d_47">
      <path d="M 444.767104 82.767904 
L 821.247957 82.767904 
" clip-path="url(#p12d19ba177)" style="fill: none; stroke: #e2e2e2; stroke-width: 0.7; stroke-linecap: square"/>
     </g>
     <g id="line2d_48">
      <g>
       <use xlink:href="#m90a82c6a00" x="444.767104" y="82.767904" style="stroke: #000000; stroke-width: 0.8"/>
      </g>
     </g>
    </g>
    <g id="ytick_12">
     <g id="line2d_49">
      <path d="M 444.767104 22.71 
L 821.247957 22.71 
" clip-path="url(#p12d19ba177)" style="fill: none; stroke: #e2e2e2; stroke-width: 0.7; stroke-linecap: square"/>
     </g>
     <g id="line2d_50">
      <g>
       <use xlink:href="#m90a82c6a00" x="444.767104" y="22.71" style="stroke: #000000; stroke-width: 0.8"/>
      </g>
     </g>
    </g>
   </g>
   <g id="line2d_51">
    <path d="M 670.655616 322.99952 
L 670.655616 22.71 
" clip-path="url(#p12d19ba177)" style="fill: none; stroke: #d55e00; stroke-width: 2; stroke-linecap: square"/>
   </g>
   <g id="LineCollection_1">
    <path d="M 670.655616 178.86055 
L 821.247957 178.86055 
" clip-path="url(#p12d19ba177)" style="fill: none; stroke: #d55e00; stroke-width: 2"/>
   </g>
   <g id="patch_9">
    <path d="M 444.767104 322.99952 
L 444.767104 22.71 
" style="fill: none; stroke: #000000; stroke-width: 0.8; stroke-linejoin: miter; stroke-linecap: square"/>
   </g>
   <g id="patch_10">
    <path d="M 821.247957 322.99952 
L 821.247957 22.71 
" style="fill: none; stroke: #000000; stroke-width: 0.8; stroke-linejoin: miter; stroke-linecap: square"/>
   </g>
   <g id="patch_11">
    <path d="M 444.767104 322.99952 
L 821.247957 322.99952 
" style="fill: none; stroke: #000000; stroke-width: 0.8; stroke-linejoin: miter; stroke-linecap: square"/>
   </g>
   <g id="patch_12">
    <path d="M 444.767104 22.71 
L 821.247957 22.71 
" style="fill: none; stroke: #000000; stroke-width: 0.8; stroke-linejoin: miter; stroke-linecap: square"/>
   </g>
   <g id="text_26">
    <!-- несколько -->
    <g style="fill: #d55e00" transform="translate(707.260486 223.923234) scale(0.1 -0.1)">
     <defs>
      <path id="DejaVuSans-3e0" d="M 2781 1038 
Q 2781 1319 2576 1466 
Q 2372 1613 1978 1613 
L 1159 1613 
L 1159 459 
L 1978 459 
Q 2372 459 2576 607 
Q 2781 756 2781 1038 
z
M 581 3500 
L 1159 3500 
L 1159 2072 
L 2003 2072 
Q 2672 2072 3033 1817 
Q 3394 1563 3394 1038 
Q 3394 513 3033 256 
Q 2672 0 2003 0 
L 581 0 
L 581 3500 
z
" transform="scale(0.015625)"/>
     </defs>
     <use xlink:href="#DejaVuSans-3d1"/>
     <use xlink:href="#DejaVuSans-3c9" transform="translate(65.375 0)"/>
     <use xlink:href="#DejaVuSans-3d5" transform="translate(126.90625 0)"/>
     <use xlink:href="#DejaVuSans-3ce" transform="translate(181.890625 0)"/>
     <use xlink:href="#DejaVuSans-3d2" transform="translate(242.296875 0)"/>
     <use xlink:href="#DejaVuSans-3cf" transform="translate(303.484375 0)"/>
     <use xlink:href="#DejaVuSans-3e0" transform="translate(367.40625 0)"/>
     <use xlink:href="#DejaVuSans-3ce" transform="translate(426.34375 0)"/>
     <use xlink:href="#DejaVuSans-3d2" transform="translate(486.75 0)"/>
    </g>
    <!-- пороговых -->
    <g style="fill: #d55e00" transform="translate(706.555017 235.925187) scale(0.1 -0.1)">
     <defs>
      <path id="DejaVuSans-3d9" d="M 3513 3500 
L 2247 1797 
L 3578 0 
L 2900 0 
L 1881 1375 
L 863 0 
L 184 0 
L 1544 1831 
L 300 3500 
L 978 3500 
L 1906 2253 
L 2834 3500 
L 3513 3500 
z
" transform="scale(0.015625)"/>
     </defs>
     <use xlink:href="#DejaVuSans-3d3"/>
     <use xlink:href="#DejaVuSans-3d2" transform="translate(65.375 0)"/>
     <use xlink:href="#DejaVuSans-3d4" transform="translate(126.5625 0)"/>
     <use xlink:href="#DejaVuSans-3d2" transform="translate(190.046875 0)"/>
     <use xlink:href="#DejaVuSans-3c7" transform="translate(251.234375 0)"/>
     <use xlink:href="#DejaVuSans-3d2" transform="translate(303.78125 0)"/>
     <use xlink:href="#DejaVuSans-3c6" transform="translate(364.96875 0)"/>
     <use xlink:href="#DejaVuSans-3df" transform="translate(423.90625 0)"/>
     <use xlink:href="#DejaVuSans-3d9" transform="translate(502.859375 0)"/>
    </g>
    <!-- правил -->
    <g style="fill: #d55e00" transform="translate(715.758142 247.92714) scale(0.1 -0.1)">
     <use xlink:href="#DejaVuSans-3d3"/>
     <use xlink:href="#DejaVuSans-3d4" transform="translate(65.375 0)"/>
     <use xlink:href="#DejaVuSans-3c4" transform="translate(128.859375 0)"/>
     <use xlink:href="#DejaVuSans-3c6" transform="translate(190.140625 0)"/>
     <use xlink:href="#DejaVuSans-3cc" transform="translate(249.078125 0)"/>
     <use xlink:href="#DejaVuSans-3cf" transform="translate(314.0625 0)"/>
    </g>
   </g>
   <g id="text_27">
    <!-- Decision tree: ступенчатые области -->
    <g transform="translate(444.767104 16.71) scale(0.12 -0.12)">
     <defs>
      <path id="DejaVuSans-Bold-27" d="M 1791 3756 
L 1791 909 
L 2222 909 
Q 2959 909 3348 1275 
Q 3738 1641 3738 2338 
Q 3738 3031 3350 3393 
Q 2963 3756 2222 3756 
L 1791 3756 
z
M 588 4666 
L 1856 4666 
Q 2919 4666 3439 4514 
Q 3959 4363 4331 4000 
Q 4659 3684 4818 3271 
Q 4978 2859 4978 2338 
Q 4978 1809 4818 1395 
Q 4659 981 4331 666 
Q 3956 303 3431 151 
Q 2906 0 1856 0 
L 588 0 
L 588 4666 
z
" transform="scale(0.015625)"/>
      <path id="DejaVuSans-Bold-3d5" d="M 3366 3391 
L 3366 2478 
Q 3138 2634 2908 2709 
Q 2678 2784 2431 2784 
Q 1963 2784 1702 2511 
Q 1441 2238 1441 1747 
Q 1441 1256 1702 982 
Q 1963 709 2431 709 
Q 2694 709 2930 787 
Q 3166 866 3366 1019 
L 3366 103 
Q 3103 6 2833 -42 
Q 2563 -91 2291 -91 
Q 1344 -91 809 395 
Q 275 881 275 1747 
Q 275 2613 809 3098 
Q 1344 3584 2291 3584 
Q 2566 3584 2833 3536 
Q 3100 3488 3366 3391 
z
" transform="scale(0.015625)"/>
      <path id="DejaVuSans-Bold-3d6" d="M 25 3500 
L 3681 3500 
L 3681 2809 
L 2413 2809 
L 2413 0 
L 1297 0 
L 1297 2809 
L 25 2809 
L 25 3500 
z
" transform="scale(0.015625)"/>
      <path id="DejaVuSans-Bold-3d7" d="M 78 3500 
L 1197 3500 
L 2138 1125 
L 2938 3500 
L 4056 3500 
L 2584 -331 
Q 2363 -916 2067 -1148 
Q 1772 -1381 1288 -1381 
L 641 -1381 
L 641 -647 
L 991 -647 
Q 1275 -647 1404 -556 
Q 1534 -466 1606 -231 
L 1638 -134 
L 78 3500 
z
" transform="scale(0.015625)"/>
      <path id="DejaVuSans-Bold-3d3" d="M 3884 3500 
L 3884 0 
L 2766 0 
L 2766 2700 
L 1656 2700 
L 1656 0 
L 538 0 
L 538 3500 
L 3884 3500 
z
" transform="scale(0.015625)"/>
      <path id="DejaVuSans-Bold-3c9" d="M 4031 1759 
L 4031 1441 
L 1416 1441 
Q 1456 1047 1700 850 
Q 1944 653 2381 653 
Q 2734 653 3104 758 
Q 3475 863 3866 1075 
L 3866 213 
Q 3469 63 3072 -14 
Q 2675 -91 2278 -91 
Q 1328 -91 801 392 
Q 275 875 275 1747 
Q 275 2603 792 3093 
Q 1309 3584 2216 3584 
Q 3041 3584 3536 3087 
Q 4031 2591 4031 1759 
z
M 2881 2131 
Q 2881 2450 2695 2645 
Q 2509 2841 2209 2841 
Q 1884 2841 1681 2658 
Q 1478 2475 1428 2131 
L 2881 2131 
z
" transform="scale(0.015625)"/>
      <path id="DejaVuSans-Bold-3db" d="M 2550 0 
L 2550 1353 
L 1400 1353 
Q 931 1353 672 1629 
Q 413 1906 413 2450 
L 413 3500 
L 1531 3500 
L 1531 2878 
Q 1531 2322 1622 2183 
Q 1713 2044 1950 2044 
L 2550 2044 
L 2550 3500 
L 3669 3500 
L 3669 0 
L 2550 0 
z
" transform="scale(0.015625)"/>
      <path id="DejaVuSans-Bold-3df" d="M 4151 3500 
L 5269 3500 
L 5269 0 
L 4151 0 
L 4151 3500 
z
M 2719 1094 
Q 2719 1291 2594 1388 
Q 2472 1481 2222 1481 
L 1656 1481 
L 1656 700 
L 2222 700 
Q 2469 700 2594 800 
Q 2719 897 2719 1094 
z
M 538 3500 
L 1656 3500 
L 1656 2172 
L 2291 2172 
Q 3000 2172 3381 1913 
Q 3766 1650 3766 1081 
Q 3766 513 3381 256 
Q 3000 0 2291 0 
L 538 0 
L 538 3500 
z
" transform="scale(0.015625)"/>
      <path id="DejaVuSans-Bold-3d2" d="M 2203 2784 
Q 1831 2784 1636 2517 
Q 1441 2250 1441 1747 
Q 1441 1244 1636 976 
Q 1831 709 2203 709 
Q 2569 709 2762 976 
Q 2956 1244 2956 1747 
Q 2956 2250 2762 2517 
Q 2569 2784 2203 2784 
z
M 2203 3584 
Q 3106 3584 3614 3096 
Q 4122 2609 4122 1747 
Q 4122 884 3614 396 
Q 3106 -91 2203 -91 
Q 1297 -91 786 396 
Q 275 884 275 1747 
Q 275 2609 786 3096 
Q 1297 3584 2203 3584 
z
" transform="scale(0.015625)"/>
      <path id="DejaVuSans-Bold-3c5" d="M 344 1941 
L 322 2463 
Q 275 2672 275 2881 
Q 275 3494 456 3894 
Q 791 4631 1238 4781 
Q 1606 4909 3141 5031 
Q 3297 5044 3475 5072 
L 3725 4378 
Q 3488 4316 2269 4209 
Q 1734 4163 1516 4013 
Q 1153 3766 1125 3300 
Q 1584 3584 2275 3584 
Q 3178 3584 3686 3096 
Q 4194 2609 4194 1747 
Q 4194 884 3687 396 
Q 3181 -91 2275 -91 
Q 1369 -91 858 396 
Q 347 884 347 1747 
Q 347 1866 344 1941 
z
M 2272 2784 
Q 1903 2784 1708 2517 
Q 1513 2250 1513 1747 
Q 1513 1244 1708 976 
Q 1903 709 2272 709 
Q 2641 709 2834 976 
Q 3028 1244 3028 1747 
Q 3028 2250 2834 2517 
Q 2641 2784 2272 2784 
z
" transform="scale(0.015625)"/>
     </defs>
     <use xlink:href="#DejaVuSans-Bold-27"/>
     <use xlink:href="#DejaVuSans-Bold-48" transform="translate(83.015625 0)"/>
     <use xlink:href="#DejaVuSans-Bold-46" transform="translate(150.84375 0)"/>
     <use xlink:href="#DejaVuSans-Bold-4c" transform="translate(210.125 0)"/>
     <use xlink:href="#DejaVuSans-Bold-56" transform="translate(244.40625 0)"/>
     <use xlink:href="#DejaVuSans-Bold-4c" transform="translate(303.921875 0)"/>
     <use xlink:href="#DejaVuSans-Bold-52" transform="translate(338.203125 0)"/>
     <use xlink:href="#DejaVuSans-Bold-51" transform="translate(406.90625 0)"/>
     <use xlink:href="#DejaVuSans-Bold-3" transform="translate(478.09375 0)"/>
     <use xlink:href="#DejaVuSans-Bold-57" transform="translate(512.90625 0)"/>
     <use xlink:href="#DejaVuSans-Bold-55" transform="translate(560.703125 0)"/>
     <use xlink:href="#DejaVuSans-Bold-48" transform="translate(610.015625 0)"/>
     <use xlink:href="#DejaVuSans-Bold-48" transform="translate(677.84375 0)"/>
     <use xlink:href="#DejaVuSans-Bold-1d" transform="translate(745.671875 0)"/>
     <use xlink:href="#DejaVuSans-Bold-3" transform="translate(785.65625 0)"/>
     <use xlink:href="#DejaVuSans-Bold-3d5" transform="translate(820.46875 0)"/>
     <use xlink:href="#DejaVuSans-Bold-3d6" transform="translate(879.75 0)"/>
     <use xlink:href="#DejaVuSans-Bold-3d7" transform="translate(937.703125 0)"/>
     <use xlink:href="#DejaVuSans-Bold-3d3" transform="translate(1002.890625 0)"/>
     <use xlink:href="#DejaVuSans-Bold-3c9" transform="translate(1071.984375 0)"/>
     <use xlink:href="#DejaVuSans-Bold-3d1" transform="translate(1139.8125 0)"/>
     <use xlink:href="#DejaVuSans-Bold-3db" transform="translate(1208.90625 0)"/>
     <use xlink:href="#DejaVuSans-Bold-3c4" transform="translate(1277.5625 0)"/>
     <use xlink:href="#DejaVuSans-Bold-3d6" transform="translate(1345.046875 0)"/>
     <use xlink:href="#DejaVuSans-Bold-3df" transform="translate(1403 0)"/>
     <use xlink:href="#DejaVuSans-Bold-3c9" transform="translate(1493.4375 0)"/>
     <use xlink:href="#DejaVuSans-Bold-3" transform="translate(1561.265625 0)"/>
     <use xlink:href="#DejaVuSans-Bold-3d2" transform="translate(1596.078125 0)"/>
     <use xlink:href="#DejaVuSans-Bold-3c5" transform="translate(1664.78125 0)"/>
     <use xlink:href="#DejaVuSans-Bold-3cf" transform="translate(1734.609375 0)"/>
     <use xlink:href="#DejaVuSans-Bold-3c4" transform="translate(1807.859375 0)"/>
     <use xlink:href="#DejaVuSans-Bold-3d5" transform="translate(1875.34375 0)"/>
     <use xlink:href="#DejaVuSans-Bold-3d6" transform="translate(1934.625 0)"/>
     <use xlink:href="#DejaVuSans-Bold-3cc" transform="translate(1992.578125 0)"/>
    </g>
   </g>
  </g>
  <g id="text_28">
   <!-- Концептуальная synthetic-иллюстрация: точки не из датасета проекта и модели здесь не обучаются. -->
   <g style="fill: #6c757d" transform="translate(174.599291 369.34776) scale(0.09 -0.09)">
    <defs>
     <path id="DejaVuSans-3ae" d="M 628 4666 
L 1259 4666 
L 1259 2359 
L 3516 4666 
L 4325 4666 
L 2522 2822 
L 4419 0 
L 3731 0 
L 2113 2403 
L 1259 1531 
L 1259 0 
L 628 0 
L 628 4666 
z
" transform="scale(0.015625)"/>
     <path id="DejaVuSans-56" d="M 2834 3397 
L 2834 2853 
Q 2591 2978 2328 3040 
Q 2066 3103 1784 3103 
Q 1356 3103 1142 2972 
Q 928 2841 928 2578 
Q 928 2378 1081 2264 
Q 1234 2150 1697 2047 
L 1894 2003 
Q 2506 1872 2764 1633 
Q 3022 1394 3022 966 
Q 3022 478 2636 193 
Q 2250 -91 1575 -91 
Q 1294 -91 989 -36 
Q 684 19 347 128 
L 347 722 
Q 666 556 975 473 
Q 1284 391 1588 391 
Q 1994 391 2212 530 
Q 2431 669 2431 922 
Q 2431 1156 2273 1281 
Q 2116 1406 1581 1522 
L 1381 1569 
Q 847 1681 609 1914 
Q 372 2147 372 2553 
Q 372 3047 722 3315 
Q 1072 3584 1716 3584 
Q 2034 3584 2315 3537 
Q 2597 3491 2834 3397 
z
" transform="scale(0.015625)"/>
     <path id="DejaVuSans-5c" d="M 2059 -325 
Q 1816 -950 1584 -1140 
Q 1353 -1331 966 -1331 
L 506 -1331 
L 506 -850 
L 844 -850 
Q 1081 -850 1212 -737 
Q 1344 -625 1503 -206 
L 1606 56 
L 191 3500 
L 800 3500 
L 1894 763 
L 2988 3500 
L 3597 3500 
L 2059 -325 
z
" transform="scale(0.015625)"/>
     <path id="DejaVuSans-51" d="M 3513 2113 
L 3513 0 
L 2938 0 
L 2938 2094 
Q 2938 2591 2744 2837 
Q 2550 3084 2163 3084 
Q 1697 3084 1428 2787 
Q 1159 2491 1159 1978 
L 1159 0 
L 581 0 
L 581 3500 
L 1159 3500 
L 1159 2956 
Q 1366 3272 1645 3428 
Q 1925 3584 2291 3584 
Q 2894 3584 3203 3211 
Q 3513 2838 3513 2113 
z
" transform="scale(0.015625)"/>
     <path id="DejaVuSans-57" d="M 1172 4494 
L 1172 3500 
L 2356 3500 
L 2356 3053 
L 1172 3053 
L 1172 1153 
Q 1172 725 1289 603 
Q 1406 481 1766 481 
L 2356 481 
L 2356 0 
L 1766 0 
Q 1100 0 847 248 
Q 594 497 594 1153 
L 594 3053 
L 172 3053 
L 172 3500 
L 594 3500 
L 594 4494 
L 1172 4494 
z
" transform="scale(0.015625)"/>
     <path id="DejaVuSans-4b" d="M 3513 2113 
L 3513 0 
L 2938 0 
L 2938 2094 
Q 2938 2591 2744 2837 
Q 2550 3084 2163 3084 
Q 1697 3084 1428 2787 
Q 1159 2491 1159 1978 
L 1159 0 
L 581 0 
L 581 4863 
L 1159 4863 
L 1159 2956 
Q 1366 3272 1645 3428 
Q 1925 3584 2291 3584 
Q 2894 3584 3203 3211 
Q 3513 2838 3513 2113 
z
" transform="scale(0.015625)"/>
     <path id="DejaVuSans-48" d="M 3597 1894 
L 3597 1613 
L 953 1613 
Q 991 1019 1311 708 
Q 1631 397 2203 397 
Q 2534 397 2845 478 
Q 3156 559 3463 722 
L 3463 178 
Q 3153 47 2828 -22 
Q 2503 -91 2169 -91 
Q 1331 -91 842 396 
Q 353 884 353 1716 
Q 353 2575 817 3079 
Q 1281 3584 2069 3584 
Q 2775 3584 3186 3129 
Q 3597 2675 3597 1894 
z
M 3022 2063 
Q 3016 2534 2758 2815 
Q 2500 3097 2075 3097 
Q 1594 3097 1305 2825 
Q 1016 2553 972 2059 
L 3022 2063 
z
" transform="scale(0.015625)"/>
     <path id="DejaVuSans-4c" d="M 603 3500 
L 1178 3500 
L 1178 0 
L 603 0 
L 603 3500 
z
M 603 4863 
L 1178 4863 
L 1178 4134 
L 603 4134 
L 603 4863 
z
" transform="scale(0.015625)"/>
     <path id="DejaVuSans-46" d="M 3122 3366 
L 3122 2828 
Q 2878 2963 2633 3030 
Q 2388 3097 2138 3097 
Q 1578 3097 1268 2742 
Q 959 2388 959 1747 
Q 959 1106 1268 751 
Q 1578 397 2138 397 
Q 2388 397 2633 464 
Q 2878 531 3122 666 
L 3122 134 
Q 2881 22 2623 -34 
Q 2366 -91 2075 -91 
Q 1284 -91 818 406 
Q 353 903 353 1747 
Q 353 2603 823 3093 
Q 1294 3584 2113 3584 
Q 2378 3584 2631 3529 
Q 2884 3475 3122 3366 
z
" transform="scale(0.015625)"/>
     <path id="DejaVuSans-10" d="M 313 2009 
L 1997 2009 
L 1997 1497 
L 313 1497 
L 313 2009 
z
" transform="scale(0.015625)"/>
     <path id="DejaVuSans-3e2" d="M 3431 3097 
Q 2969 3097 2700 2736 
Q 2431 2375 2431 1747 
Q 2431 1119 2698 758 
Q 2966 397 3431 397 
Q 3891 397 4159 759 
Q 4428 1122 4428 1747 
Q 4428 2369 4159 2733 
Q 3891 3097 3431 3097 
z
M 1844 2103 
Q 1903 2697 2292 3140 
Q 2681 3584 3431 3584 
Q 4181 3584 4609 3096 
Q 5038 2609 5038 1747 
Q 5038 888 4609 398 
Q 4181 -91 3431 -91 
Q 2678 -91 2267 381 
Q 1856 853 1828 1628 
L 1178 1628 
L 1178 0 
L 603 0 
L 603 3500 
L 1178 3500 
L 1178 2103 
L 1844 2103 
z
" transform="scale(0.015625)"/>
     <path id="DejaVuSans-1d" d="M 750 794 
L 1409 794 
L 1409 0 
L 750 0 
L 750 794 
z
M 750 3309 
L 1409 3309 
L 1409 2516 
L 750 2516 
L 750 3309 
z
" transform="scale(0.015625)"/>
     <path id="DejaVuSans-3db" d="M 2625 0 
L 2625 1472 
L 1553 1472 
Q 1075 1472 756 1769 
Q 469 2038 469 2613 
L 469 3500 
L 1044 3500 
L 1044 2666 
Q 1044 2300 1206 2116 
Q 1372 1931 1697 1931 
L 2625 1931 
L 2625 3500 
L 3200 3500 
L 3200 0 
L 2625 0 
z
" transform="scale(0.015625)"/>
     <path id="DejaVuSans-3c8" d="M 1384 459 
L 3053 459 
L 3053 3041 
L 1844 3041 
L 1844 2603 
Q 1844 1316 1475 628 
L 1384 459 
z
M 550 459 
Q 834 584 959 850 
Q 1266 1509 1266 2838 
L 1266 3500 
L 3631 3500 
L 3631 459 
L 4091 459 
L 4091 -884 
L 3631 -884 
L 3631 0 
L 794 0 
L 794 -884 
L 334 -884 
L 334 459 
L 550 459 
z
" transform="scale(0.015625)"/>
     <path id="DejaVuSans-3d0" d="M 581 3500 
L 1422 3500 
L 2416 1156 
L 3413 3500 
L 4247 3500 
L 4247 0 
L 3669 0 
L 3669 2950 
L 2703 672 
L 2128 672 
L 1159 2950 
L 1159 0 
L 581 0 
L 581 3500 
z
" transform="scale(0.015625)"/>
     <path id="DejaVuSans-3c5" d="M 1991 3584 
Q 2741 3584 3169 3096 
Q 3597 2609 3597 1747 
Q 3597 888 3169 398 
Q 2741 -91 1991 -91 
Q 1238 -91 822 384 
Q 406 859 384 1747 
L 366 2463 
Q 350 2834 350 2963 
Q 350 3463 531 3831 
Q 816 4409 1308 4659 
Q 1800 4909 2625 4916 
Q 3006 4919 3175 4972 
L 3334 4516 
Q 3181 4453 3041 4450 
L 2259 4397 
Q 1866 4369 1628 4231 
Q 1006 3866 947 3388 
L 925 3213 
Q 1331 3584 1991 3584 
z
M 1991 3097 
Q 1528 3097 1259 2736 
Q 991 2375 991 1747 
Q 991 1119 1258 758 
Q 1525 397 1991 397 
Q 2450 397 2719 759 
Q 2988 1122 2988 1747 
Q 2988 2369 2719 2733 
Q 2450 3097 1991 3097 
z
" transform="scale(0.015625)"/>
    </defs>
    <use xlink:href="#DejaVuSans-3ae"/>
    <use xlink:href="#DejaVuSans-3d2" transform="translate(71 0)"/>
    <use xlink:href="#DejaVuSans-3d1" transform="translate(132.1875 0)"/>
    <use xlink:href="#DejaVuSans-3da" transform="translate(197.5625 0)"/>
    <use xlink:href="#DejaVuSans-3c9" transform="translate(265.625 0)"/>
    <use xlink:href="#DejaVuSans-3d3" transform="translate(327.15625 0)"/>
    <use xlink:href="#DejaVuSans-3d6" transform="translate(392.53125 0)"/>
    <use xlink:href="#DejaVuSans-3d7" transform="translate(450.78125 0)"/>
    <use xlink:href="#DejaVuSans-3c4" transform="translate(509.96875 0)"/>
    <use xlink:href="#DejaVuSans-3cf" transform="translate(571.25 0)"/>
    <use xlink:href="#DejaVuSans-3e0" transform="translate(635.171875 0)"/>
    <use xlink:href="#DejaVuSans-3d1" transform="translate(694.109375 0)"/>
    <use xlink:href="#DejaVuSans-3c4" transform="translate(759.484375 0)"/>
    <use xlink:href="#DejaVuSans-3e3" transform="translate(820.765625 0)"/>
    <use xlink:href="#DejaVuSans-3" transform="translate(880.921875 0)"/>
    <use xlink:href="#DejaVuSans-56" transform="translate(912.703125 0)"/>
    <use xlink:href="#DejaVuSans-5c" transform="translate(964.796875 0)"/>
    <use xlink:href="#DejaVuSans-51" transform="translate(1023.984375 0)"/>
    <use xlink:href="#DejaVuSans-57" transform="translate(1087.359375 0)"/>
    <use xlink:href="#DejaVuSans-4b" transform="translate(1126.5625 0)"/>
    <use xlink:href="#DejaVuSans-48" transform="translate(1189.9375 0)"/>
    <use xlink:href="#DejaVuSans-57" transform="translate(1251.46875 0)"/>
    <use xlink:href="#DejaVuSans-4c" transform="translate(1290.671875 0)"/>
    <use xlink:href="#DejaVuSans-46" transform="translate(1318.453125 0)"/>
    <use xlink:href="#DejaVuSans-10" transform="translate(1373.4375 0)"/>
    <use xlink:href="#DejaVuSans-3cc" transform="translate(1409.515625 0)"/>
    <use xlink:href="#DejaVuSans-3cf" transform="translate(1474.5 0)"/>
    <use xlink:href="#DejaVuSans-3cf" transform="translate(1538.421875 0)"/>
    <use xlink:href="#DejaVuSans-3e2" transform="translate(1602.34375 0)"/>
    <use xlink:href="#DejaVuSans-3d5" transform="translate(1686.53125 0)"/>
    <use xlink:href="#DejaVuSans-3d6" transform="translate(1741.515625 0)"/>
    <use xlink:href="#DejaVuSans-3d4" transform="translate(1799.765625 0)"/>
    <use xlink:href="#DejaVuSans-3c4" transform="translate(1863.25 0)"/>
    <use xlink:href="#DejaVuSans-3da" transform="translate(1924.53125 0)"/>
    <use xlink:href="#DejaVuSans-3cc" transform="translate(1992.59375 0)"/>
    <use xlink:href="#DejaVuSans-3e3" transform="translate(2057.578125 0)"/>
    <use xlink:href="#DejaVuSans-1d" transform="translate(2117.734375 0)"/>
    <use xlink:href="#DejaVuSans-3" transform="translate(2151.421875 0)"/>
    <use xlink:href="#DejaVuSans-3d6" transform="translate(2183.203125 0)"/>
    <use xlink:href="#DejaVuSans-3d2" transform="translate(2241.453125 0)"/>
    <use xlink:href="#DejaVuSans-3db" transform="translate(2302.640625 0)"/>
    <use xlink:href="#DejaVuSans-3ce" transform="translate(2361.71875 0)"/>
    <use xlink:href="#DejaVuSans-3cc" transform="translate(2422.125 0)"/>
    <use xlink:href="#DejaVuSans-3" transform="translate(2487.109375 0)"/>
    <use xlink:href="#DejaVuSans-3d1" transform="translate(2518.890625 0)"/>
    <use xlink:href="#DejaVuSans-3c9" transform="translate(2584.265625 0)"/>
    <use xlink:href="#DejaVuSans-3" transform="translate(2645.796875 0)"/>
    <use xlink:href="#DejaVuSans-3cc" transform="translate(2677.578125 0)"/>
    <use xlink:href="#DejaVuSans-3cb" transform="translate(2742.5625 0)"/>
    <use xlink:href="#DejaVuSans-3" transform="translate(2795.734375 0)"/>
    <use xlink:href="#DejaVuSans-3c8" transform="translate(2827.515625 0)"/>
    <use xlink:href="#DejaVuSans-3c4" transform="translate(2896.65625 0)"/>
    <use xlink:href="#DejaVuSans-3d6" transform="translate(2957.9375 0)"/>
    <use xlink:href="#DejaVuSans-3c4" transform="translate(3016.1875 0)"/>
    <use xlink:href="#DejaVuSans-3d5" transform="translate(3077.46875 0)"/>
    <use xlink:href="#DejaVuSans-3c9" transform="translate(3132.453125 0)"/>
    <use xlink:href="#DejaVuSans-3d6" transform="translate(3193.984375 0)"/>
    <use xlink:href="#DejaVuSans-3c4" transform="translate(3252.234375 0)"/>
    <use xlink:href="#DejaVuSans-3" transform="translate(3313.515625 0)"/>
    <use xlink:href="#DejaVuSans-3d3" transform="translate(3345.296875 0)"/>
    <use xlink:href="#DejaVuSans-3d4" transform="translate(3410.671875 0)"/>
    <use xlink:href="#DejaVuSans-3d2" transform="translate(3474.15625 0)"/>
    <use xlink:href="#DejaVuSans-3c9" transform="translate(3535.34375 0)"/>
    <use xlink:href="#DejaVuSans-3ce" transform="translate(3596.875 0)"/>
    <use xlink:href="#DejaVuSans-3d6" transform="translate(3657.28125 0)"/>
    <use xlink:href="#DejaVuSans-3c4" transform="translate(3715.53125 0)"/>
    <use xlink:href="#DejaVuSans-3" transform="translate(3776.8125 0)"/>
    <use xlink:href="#DejaVuSans-3cc" transform="translate(3808.59375 0)"/>
    <use xlink:href="#DejaVuSans-3" transform="translate(3873.578125 0)"/>
    <use xlink:href="#DejaVuSans-3d0" transform="translate(3905.359375 0)"/>
    <use xlink:href="#DejaVuSans-3d2" transform="translate(3980.796875 0)"/>
    <use xlink:href="#DejaVuSans-3c8" transform="translate(4041.984375 0)"/>
    <use xlink:href="#DejaVuSans-3c9" transform="translate(4111.125 0)"/>
    <use xlink:href="#DejaVuSans-3cf" transform="translate(4172.65625 0)"/>
    <use xlink:href="#DejaVuSans-3cc" transform="translate(4236.578125 0)"/>
    <use xlink:href="#DejaVuSans-3" transform="translate(4301.5625 0)"/>
    <use xlink:href="#DejaVuSans-3cb" transform="translate(4333.34375 0)"/>
    <use xlink:href="#DejaVuSans-3c8" transform="translate(4386.515625 0)"/>
    <use xlink:href="#DejaVuSans-3c9" transform="translate(4455.65625 0)"/>
    <use xlink:href="#DejaVuSans-3d5" transform="translate(4517.1875 0)"/>
    <use xlink:href="#DejaVuSans-3e0" transform="translate(4572.171875 0)"/>
    <use xlink:href="#DejaVuSans-3" transform="translate(4631.109375 0)"/>
    <use xlink:href="#DejaVuSans-3d1" transform="translate(4662.890625 0)"/>
    <use xlink:href="#DejaVuSans-3c9" transform="translate(4728.265625 0)"/>
    <use xlink:href="#DejaVuSans-3" transform="translate(4789.796875 0)"/>
    <use xlink:href="#DejaVuSans-3d2" transform="translate(4821.578125 0)"/>
    <use xlink:href="#DejaVuSans-3c5" transform="translate(4882.765625 0)"/>
    <use xlink:href="#DejaVuSans-3d7" transform="translate(4944.4375 0)"/>
    <use xlink:href="#DejaVuSans-3db" transform="translate(5003.625 0)"/>
    <use xlink:href="#DejaVuSans-3c4" transform="translate(5062.703125 0)"/>
    <use xlink:href="#DejaVuSans-3e2" transform="translate(5123.984375 0)"/>
    <use xlink:href="#DejaVuSans-3d6" transform="translate(5208.171875 0)"/>
    <use xlink:href="#DejaVuSans-3d5" transform="translate(5266.421875 0)"/>
    <use xlink:href="#DejaVuSans-3e3" transform="translate(5321.40625 0)"/>
    <use xlink:href="#DejaVuSans-11" transform="translate(5381.5625 0)"/>
   </g>
  </g>
 </g>
 <defs>
  <clipPath id="p2c3f2fdc7b">
   <rect x="44.103125" y="22.71" width="376.480854" height="300.28952"/>
  </clipPath>
  <clipPath id="p12d19ba177">
   <rect x="444.767104" y="22.71" width="376.480854" height="300.28952"/>
  </clipPath>
 </defs>
</svg>
