<?xml version="1.0" encoding="utf-8" standalone="no"?>
<!DOCTYPE svg PUBLIC "-//W3C//DTD SVG 1.1//EN"
  "http://www.w3.org/Graphics/SVG/1.1/DTD/svg11.dtd">
<svg xmlns:xlink="http://www.w3.org/1999/xlink" width="684pt" height="324.806125pt" viewBox="0 0 684 324.806125" xmlns="http://www.w3.org/2000/svg" version="1.1">
 <metadata>
  <rdf:RDF xmlns:dc="http://purl.org/dc/elements/1.1/" xmlns:cc="http://creativecommons.org/ns#" xmlns:rdf="http://www.w3.org/1999/02/22-rdf-syntax-ns#">
   <cc:Work>
    <dc:type rdf:resource="http://purl.org/dc/dcmitype/StillImage"/>
    <dc:format>image/svg+xml</dc:format>
    <dc:creator>
     <cc:Agent>
      <dc:title>Matplotlib v3.11.1, https://matplotlib.org/</dc:title>
     </cc:Agent>
    </dc:creator>
   </cc:Work>
  </rdf:RDF>
 </metadata>
 <defs>
  <style type="text/css">*{stroke-linejoin: round; stroke-linecap: butt}</style>
 </defs>
 <g id="figure_1">
  <g id="patch_1">
   <path d="M 0 324.806125 
L 684 324.806125 
L 684 0 
L 0 0 
z
" style="fill: #ffffff"/>
  </g>
  <g id="axes_1">
   <g id="patch_2">
    <path d="M 37.332 202.290925 
L 124.38 202.290925 
Q 147.816 202.290925 147.816 192.200845 
L 147.816 148.957645 
Q 147.816 138.867565 124.38 138.867565 
L 37.332 138.867565 
Q 13.896 138.867565 13.896 148.957645 
L 13.896 192.200845 
Q 13.896 202.290925 37.332 202.290925 
z
" clip-path="url(#p5f2584742a)" style="fill: #e8f2f8; stroke: #24313b; stroke-width: 1.2; stroke-linejoin: miter"/>
   </g>
   <g id="patch_3">
    <path d="M 211.428 141.750445 
L 325.26 141.750445 
Q 348.696 141.750445 348.696 131.660365 
L 348.696 88.417165 
Q 348.696 78.327085 325.26 78.327085 
L 211.428 78.327085 
Q 187.992 78.327085 187.992 88.417165 
L 187.992 131.660365 
Q 187.992 141.750445 211.428 141.750445 
z
" clip-path="url(#p5f2584742a)" style="fill: #e7f5ef; stroke: #24313b; stroke-width: 1.2; stroke-linejoin: miter"/>
   </g>
   <g id="patch_4">
    <path d="M 211.428 265.714285 
L 325.26 265.714285 
Q 348.696 265.714285 348.696 255.624205 
L 348.696 212.381005 
Q 348.696 202.290925 325.26 202.290925 
L 211.428 202.290925 
Q 187.992 202.290925 187.992 212.381005 
L 187.992 255.624205 
Q 187.992 265.714285 211.428 265.714285 
z
" clip-path="url(#p5f2584742a)" style="fill: #fff3d6; stroke: #24313b; stroke-width: 1.2; stroke-linejoin: miter"/>
   </g>
   <g id="patch_5">
    <path d="M 412.308 202.290925 
L 499.356 202.290925 
Q 522.792 202.290925 522.792 192.200845 
L 522.792 148.957645 
Q 522.792 138.867565 499.356 138.867565 
L 412.308 138.867565 
Q 388.872 138.867565 388.872 148.957645 
L 388.872 192.200845 
Q 388.872 202.290925 412.308 202.290925 
z
" clip-path="url(#p5f2584742a)" style="fill: #e8f2f8; stroke: #24313b; stroke-width: 1.2; stroke-linejoin: miter"/>
   </g>
   <g id="patch_6">
    <path d="M 573.012 202.290925 
L 639.972 202.290925 
Q 663.408 202.290925 663.408 192.200845 
L 663.408 148.957645 
Q 663.408 138.867565 639.972 138.867565 
L 573.012 138.867565 
Q 549.576 138.867565 549.576 148.957645 
L 549.576 192.200845 
Q 549.576 202.290925 573.012 202.290925 
z
" clip-path="url(#p5f2584742a)" style="fill: #e7f5ef; stroke: #24313b; stroke-width: 1.2; stroke-linejoin: miter"/>
   </g>
   <g id="patch_7">
    <path d="M 135.867702 166.315102 
Q 164.554445 138.869053 192.029418 112.582364 
" clip-path="url(#p5f2584742a)" style="fill: none; stroke: #4a4a4a; stroke-width: 1.5; stroke-linecap: round"/>
    <path d="M 186.047421 114.430527 
L 192.029418 112.582364 
L 189.918751 118.47686 
z
" clip-path="url(#p5f2584742a)" style="fill: #4a4a4a; stroke: #4a4a4a; stroke-width: 1.5; stroke-linecap: round"/>
   </g>
   <g id="patch_8">
    <path d="M 135.906324 180.575188 
Q 164.556292 206.61551 191.965232 231.527847 
" clip-path="url(#p5f2584742a)" style="fill: none; stroke: #4a4a4a; stroke-width: 1.5; stroke-linecap: round"/>
    <path d="M 189.704482 225.689267 
L 191.965232 231.527847 
L 185.937919 229.833299 
z
" clip-path="url(#p5f2584742a)" style="fill: #4a4a4a; stroke: #4a4a4a; stroke-width: 1.5; stroke-linecap: round"/>
   </g>
   <g id="patch_9">
    <path d="M 336.747702 111.420028 
Q 365.434445 138.866077 392.909418 165.152766 
" clip-path="url(#p5f2584742a)" style="fill: none; stroke: #4a4a4a; stroke-width: 1.5; stroke-linecap: round"/>
    <path d="M 390.798751 159.25827 
L 392.909418 165.152766 
L 386.927421 163.304603 
z
" clip-path="url(#p5f2584742a)" style="fill: #4a4a4a; stroke: #4a4a4a; stroke-width: 1.5; stroke-linecap: round"/>
   </g>
   <g id="patch_10">
    <path d="M 336.786324 232.655302 
Q 365.436292 206.61498 392.845232 181.702643 
" clip-path="url(#p5f2584742a)" style="fill: none; stroke: #4a4a4a; stroke-width: 1.5; stroke-linecap: round"/>
    <path d="M 386.817919 183.397191 
L 392.845232 181.702643 
L 390.584482 187.541223 
z
" clip-path="url(#p5f2584742a)" style="fill: #4a4a4a; stroke: #4a4a4a; stroke-width: 1.5; stroke-linecap: round"/>
   </g>
   <g id="patch_11">
    <path d="M 511.399727 170.579245 
Q 532.834837 170.579245 552.592896 170.579245 
" clip-path="url(#p5f2584742a)" style="fill: none; stroke: #4a4a4a; stroke-width: 1.5; stroke-linecap: round"/>
    <path d="M 546.992896 167.779245 
L 552.592896 170.579245 
L 546.992896 173.379245 
z
" clip-path="url(#p5f2584742a)" style="fill: #4a4a4a; stroke: #4a4a4a; stroke-width: 1.5; stroke-linecap: round"/>
   </g>
   <g id="patch_12">
    <path d="M 174.6 294.543085 
L 656.712 294.543085 
Q 676.8 294.543085 676.8 285.894445 
L 676.8 66.795565 
Q 676.8 58.146925 656.712 58.146925 
L 174.6 58.146925 
Q 154.512 58.146925 154.512 66.795565 
L 154.512 285.894445 
Q 154.512 294.543085 174.6 294.543085 
L 174.6 294.543085 
z
" clip-path="url(#p5f2584742a)" style="fill: none; stroke-dasharray: 7.4,3.2; stroke-dashoffset: 0; stroke: #0072b2; stroke-width: 2; stroke-linejoin: miter"/>
   </g>
   <g id="text_1">
    <!-- Train fold -->
    <g style="fill: #24313b" transform="translate(57.888031 167.175925) scale(0.1 -0.1)">
     <defs>
      <path id="DejaVuSans-37" d="M -19 4666 
L 3928 4666 
L 3928 4134 
L 2272 4134 
L 2272 0 
L 1638 0 
L 1638 4134 
L -19 4134 
L -19 4666 
z
" transform="scale(0.015625)"/>
      <path id="DejaVuSans-55" d="M 2631 2963 
Q 2534 3019 2420 3045 
Q 2306 3072 2169 3072 
Q 1681 3072 1420 2755 
Q 1159 2438 1159 1844 
L 1159 0 
L 581 0 
L 581 3500 
L 1159 3500 
L 1159 2956 
Q 1341 3275 1631 3429 
Q 1922 3584 2338 3584 
Q 2397 3584 2469 3576 
Q 2541 3569 2628 3553 
L 2631 2963 
z
" transform="scale(0.015625)"/>
      <path id="DejaVuSans-44" d="M 2194 1759 
Q 1497 1759 1228 1600 
Q 959 1441 959 1056 
Q 959 750 1161 570 
Q 1363 391 1709 391 
Q 2188 391 2477 730 
Q 2766 1069 2766 1631 
L 2766 1759 
L 2194 1759 
z
M 3341 1997 
L 3341 0 
L 2766 0 
L 2766 531 
Q 2569 213 2275 61 
Q 1981 -91 1556 -91 
Q 1019 -91 701 211 
Q 384 513 384 1019 
Q 384 1609 779 1909 
Q 1175 2209 1959 2209 
L 2766 2209 
L 2766 2266 
Q 2766 2663 2505 2880 
Q 2244 3097 1772 3097 
Q 1472 3097 1187 3025 
Q 903 2953 641 2809 
L 641 3341 
Q 956 3463 1253 3523 
Q 1550 3584 1831 3584 
Q 2591 3584 2966 3190 
Q 3341 2797 3341 1997 
z
" transform="scale(0.015625)"/>
      <path id="DejaVuSans-4c" d="M 603 3500 
L 1178 3500 
L 1178 0 
L 603 0 
L 603 3500 
z
M 603 4863 
L 1178 4863 
L 1178 4134 
L 603 4134 
L 603 4863 
z
" transform="scale(0.015625)"/>
      <path id="DejaVuSans-51" d="M 3513 2113 
L 3513 0 
L 2938 0 
L 2938 2094 
Q 2938 2591 2744 2837 
Q 2550 3084 2163 3084 
Q 1697 3084 1428 2787 
Q 1159 2491 1159 1978 
L 1159 0 
L 581 0 
L 581 3500 
L 1159 3500 
L 1159 2956 
Q 1366 3272 1645 3428 
Q 1925 3584 2291 3584 
Q 2894 3584 3203 3211 
Q 3513 2838 3513 2113 
z
" transform="scale(0.015625)"/>
      <path id="DejaVuSans-3" transform="scale(0.015625)"/>
      <path id="DejaVuSans-49" d="M 2375 4863 
L 2375 4384 
L 1825 4384 
Q 1516 4384 1395 4259 
Q 1275 4134 1275 3809 
L 1275 3500 
L 2222 3500 
L 2222 3053 
L 1275 3053 
L 1275 0 
L 697 0 
L 697 3053 
L 147 3053 
L 147 3500 
L 697 3500 
L 697 3744 
Q 697 4328 969 4595 
Q 1241 4863 1831 4863 
L 2375 4863 
z
" transform="scale(0.015625)"/>
      <path id="DejaVuSans-52" d="M 1959 3097 
Q 1497 3097 1228 2736 
Q 959 2375 959 1747 
Q 959 1119 1226 758 
Q 1494 397 1959 397 
Q 2419 397 2687 759 
Q 2956 1122 2956 1747 
Q 2956 2369 2687 2733 
Q 2419 3097 1959 3097 
z
M 1959 3584 
Q 2709 3584 3137 3096 
Q 3566 2609 3566 1747 
Q 3566 888 3137 398 
Q 2709 -91 1959 -91 
Q 1206 -91 779 398 
Q 353 888 353 1747 
Q 353 2609 779 3096 
Q 1206 3584 1959 3584 
z
" transform="scale(0.015625)"/>
      <path id="DejaVuSans-4f" d="M 603 4863 
L 1178 4863 
L 1178 0 
L 603 0 
L 603 4863 
z
" transform="scale(0.015625)"/>
      <path id="DejaVuSans-47" d="M 2906 2969 
L 2906 4863 
L 3481 4863 
L 3481 0 
L 2906 0 
L 2906 525 
Q 2725 213 2448 61 
Q 2172 -91 1784 -91 
Q 1150 -91 751 415 
Q 353 922 353 1747 
Q 353 2572 751 3078 
Q 1150 3584 1784 3584 
Q 2172 3584 2448 3432 
Q 2725 3281 2906 2969 
z
M 947 1747 
Q 947 1113 1208 752 
Q 1469 391 1925 391 
Q 2381 391 2643 752 
Q 2906 1113 2906 1747 
Q 2906 2381 2643 2742 
Q 2381 3103 1925 3103 
Q 1469 3103 1208 2742 
Q 947 2381 947 1747 
z
" transform="scale(0.015625)"/>
     </defs>
     <use xlink:href="#DejaVuSans-37"/>
     <use xlink:href="#DejaVuSans-55" transform="translate(46.375 0)"/>
     <use xlink:href="#DejaVuSans-44" transform="translate(87.484375 0)"/>
     <use xlink:href="#DejaVuSans-4c" transform="translate(148.765625 0)"/>
     <use xlink:href="#DejaVuSans-51" transform="translate(176.546875 0)"/>
     <use xlink:href="#DejaVuSans-3" transform="translate(239.921875 0)"/>
     <use xlink:href="#DejaVuSans-49" transform="translate(271.703125 0)"/>
     <use xlink:href="#DejaVuSans-52" transform="translate(306.90625 0)"/>
     <use xlink:href="#DejaVuSans-4f" transform="translate(368.09375 0)"/>
     <use xlink:href="#DejaVuSans-47" transform="translate(395.875 0)"/>
    </g>
    <!-- raw features -->
    <g style="fill: #24313b" transform="translate(49.402094 179.178659) scale(0.1 -0.1)">
     <defs>
      <path id="DejaVuSans-5a" d="M 269 3500 
L 844 3500 
L 1563 769 
L 2278 3500 
L 2956 3500 
L 3675 769 
L 4391 3500 
L 4966 3500 
L 4050 0 
L 3372 0 
L 2619 2869 
L 1863 0 
L 1184 0 
L 269 3500 
z
" transform="scale(0.015625)"/>
      <path id="DejaVuSans-48" d="M 3597 1894 
L 3597 1613 
L 953 1613 
Q 991 1019 1311 708 
Q 1631 397 2203 397 
Q 2534 397 2845 478 
Q 3156 559 3463 722 
L 3463 178 
Q 3153 47 2828 -22 
Q 2503 -91 2169 -91 
Q 1331 -91 842 396 
Q 353 884 353 1716 
Q 353 2575 817 3079 
Q 1281 3584 2069 3584 
Q 2775 3584 3186 3129 
Q 3597 2675 3597 1894 
z
M 3022 2063 
Q 3016 2534 2758 2815 
Q 2500 3097 2075 3097 
Q 1594 3097 1305 2825 
Q 1016 2553 972 2059 
L 3022 2063 
z
" transform="scale(0.015625)"/>
      <path id="DejaVuSans-57" d="M 1172 4494 
L 1172 3500 
L 2356 3500 
L 2356 3053 
L 1172 3053 
L 1172 1153 
Q 1172 725 1289 603 
Q 1406 481 1766 481 
L 2356 481 
L 2356 0 
L 1766 0 
Q 1100 0 847 248 
Q 594 497 594 1153 
L 594 3053 
L 172 3053 
L 172 3500 
L 594 3500 
L 594 4494 
L 1172 4494 
z
" transform="scale(0.015625)"/>
      <path id="DejaVuSans-58" d="M 544 1381 
L 544 3500 
L 1119 3500 
L 1119 1403 
Q 1119 906 1312 657 
Q 1506 409 1894 409 
Q 2359 409 2629 706 
Q 2900 1003 2900 1516 
L 2900 3500 
L 3475 3500 
L 3475 0 
L 2900 0 
L 2900 538 
Q 2691 219 2414 64 
Q 2138 -91 1772 -91 
Q 1169 -91 856 284 
Q 544 659 544 1381 
z
M 1991 3584 
L 1991 3584 
z
" transform="scale(0.015625)"/>
      <path id="DejaVuSans-56" d="M 2834 3397 
L 2834 2853 
Q 2591 2978 2328 3040 
Q 2066 3103 1784 3103 
Q 1356 3103 1142 2972 
Q 928 2841 928 2578 
Q 928 2378 1081 2264 
Q 1234 2150 1697 2047 
L 1894 2003 
Q 2506 1872 2764 1633 
Q 3022 1394 3022 966 
Q 3022 478 2636 193 
Q 2250 -91 1575 -91 
Q 1294 -91 989 -36 
Q 684 19 347 128 
L 347 722 
Q 666 556 975 473 
Q 1284 391 1588 391 
Q 1994 391 2212 530 
Q 2431 669 2431 922 
Q 2431 1156 2273 1281 
Q 2116 1406 1581 1522 
L 1381 1569 
Q 847 1681 609 1914 
Q 372 2147 372 2553 
Q 372 3047 722 3315 
Q 1072 3584 1716 3584 
Q 2034 3584 2315 3537 
Q 2597 3491 2834 3397 
z
" transform="scale(0.015625)"/>
     </defs>
     <use xlink:href="#DejaVuSans-55"/>
     <use xlink:href="#DejaVuSans-44" transform="translate(41.109375 0)"/>
     <use xlink:href="#DejaVuSans-5a" transform="translate(102.390625 0)"/>
     <use xlink:href="#DejaVuSans-3" transform="translate(184.171875 0)"/>
     <use xlink:href="#DejaVuSans-49" transform="translate(215.953125 0)"/>
     <use xlink:href="#DejaVuSans-48" transform="translate(251.15625 0)"/>
     <use xlink:href="#DejaVuSans-44" transform="translate(312.6875 0)"/>
     <use xlink:href="#DejaVuSans-57" transform="translate(373.96875 0)"/>
     <use xlink:href="#DejaVuSans-58" transform="translate(413.171875 0)"/>
     <use xlink:href="#DejaVuSans-55" transform="translate(476.546875 0)"/>
     <use xlink:href="#DejaVuSans-48" transform="translate(515.453125 0)"/>
     <use xlink:href="#DejaVuSans-56" transform="translate(576.984375 0)"/>
    </g>
   </g>
   <g id="text_2">
    <!-- Numeric -->
    <g style="fill: #24313b" transform="translate(247.294 106.635445) scale(0.1 -0.1)">
     <defs>
      <path id="DejaVuSans-31" d="M 628 4666 
L 1478 4666 
L 3547 763 
L 3547 4666 
L 4159 4666 
L 4159 0 
L 3309 0 
L 1241 3903 
L 1241 0 
L 628 0 
L 628 4666 
z
" transform="scale(0.015625)"/>
      <path id="DejaVuSans-50" d="M 3328 2828 
Q 3544 3216 3844 3400 
Q 4144 3584 4550 3584 
Q 5097 3584 5394 3201 
Q 5691 2819 5691 2113 
L 5691 0 
L 5113 0 
L 5113 2094 
Q 5113 2597 4934 2840 
Q 4756 3084 4391 3084 
Q 3944 3084 3684 2787 
Q 3425 2491 3425 1978 
L 3425 0 
L 2847 0 
L 2847 2094 
Q 2847 2600 2669 2842 
Q 2491 3084 2119 3084 
Q 1678 3084 1418 2786 
Q 1159 2488 1159 1978 
L 1159 0 
L 581 0 
L 581 3500 
L 1159 3500 
L 1159 2956 
Q 1356 3278 1631 3431 
Q 1906 3584 2284 3584 
Q 2666 3584 2933 3390 
Q 3200 3197 3328 2828 
z
" transform="scale(0.015625)"/>
      <path id="DejaVuSans-46" d="M 3122 3366 
L 3122 2828 
Q 2878 2963 2633 3030 
Q 2388 3097 2138 3097 
Q 1578 3097 1268 2742 
Q 959 2388 959 1747 
Q 959 1106 1268 751 
Q 1578 397 2138 397 
Q 2388 397 2633 464 
Q 2878 531 3122 666 
L 3122 134 
Q 2881 22 2623 -34 
Q 2366 -91 2075 -91 
Q 1284 -91 818 406 
Q 353 903 353 1747 
Q 353 2603 823 3093 
Q 1294 3584 2113 3584 
Q 2378 3584 2631 3529 
Q 2884 3475 3122 3366 
z
" transform="scale(0.015625)"/>
     </defs>
     <use xlink:href="#DejaVuSans-31"/>
     <use xlink:href="#DejaVuSans-58" transform="translate(74.8125 0)"/>
     <use xlink:href="#DejaVuSans-50" transform="translate(138.1875 0)"/>
     <use xlink:href="#DejaVuSans-48" transform="translate(235.59375 0)"/>
     <use xlink:href="#DejaVuSans-55" transform="translate(297.125 0)"/>
     <use xlink:href="#DejaVuSans-4c" transform="translate(338.234375 0)"/>
     <use xlink:href="#DejaVuSans-46" transform="translate(366.015625 0)"/>
    </g>
    <!-- median + scaler -->
    <g style="fill: #24313b" transform="translate(227.294 118.638179) scale(0.1 -0.1)">
     <defs>
      <path id="DejaVuSans-e" d="M 2944 4013 
L 2944 2272 
L 4684 2272 
L 4684 1741 
L 2944 1741 
L 2944 0 
L 2419 0 
L 2419 1741 
L 678 1741 
L 678 2272 
L 2419 2272 
L 2419 4013 
L 2944 4013 
z
" transform="scale(0.015625)"/>
     </defs>
     <use xlink:href="#DejaVuSans-50"/>
     <use xlink:href="#DejaVuSans-48" transform="translate(97.40625 0)"/>
     <use xlink:href="#DejaVuSans-47" transform="translate(158.9375 0)"/>
     <use xlink:href="#DejaVuSans-4c" transform="translate(222.421875 0)"/>
     <use xlink:href="#DejaVuSans-44" transform="translate(250.203125 0)"/>
     <use xlink:href="#DejaVuSans-51" transform="translate(311.484375 0)"/>
     <use xlink:href="#DejaVuSans-3" transform="translate(374.859375 0)"/>
     <use xlink:href="#DejaVuSans-e" transform="translate(406.640625 0)"/>
     <use xlink:href="#DejaVuSans-3" transform="translate(490.4375 0)"/>
     <use xlink:href="#DejaVuSans-56" transform="translate(522.21875 0)"/>
     <use xlink:href="#DejaVuSans-46" transform="translate(574.3125 0)"/>
     <use xlink:href="#DejaVuSans-44" transform="translate(629.296875 0)"/>
     <use xlink:href="#DejaVuSans-4f" transform="translate(690.578125 0)"/>
     <use xlink:href="#DejaVuSans-48" transform="translate(718.359375 0)"/>
     <use xlink:href="#DejaVuSans-55" transform="translate(779.890625 0)"/>
    </g>
   </g>
   <g id="text_3">
    <!-- Categorical -->
    <g style="fill: #24313b" transform="translate(242.718609 230.939617) scale(0.09 -0.09)">
     <defs>
      <path id="DejaVuSans-26" d="M 4122 4306 
L 4122 3641 
Q 3803 3938 3442 4084 
Q 3081 4231 2675 4231 
Q 1875 4231 1450 3742 
Q 1025 3253 1025 2328 
Q 1025 1406 1450 917 
Q 1875 428 2675 428 
Q 3081 428 3442 575 
Q 3803 722 4122 1019 
L 4122 359 
Q 3791 134 3420 21 
Q 3050 -91 2638 -91 
Q 1578 -91 968 557 
Q 359 1206 359 2328 
Q 359 3453 968 4101 
Q 1578 4750 2638 4750 
Q 3056 4750 3426 4639 
Q 3797 4528 4122 4306 
z
" transform="scale(0.015625)"/>
      <path id="DejaVuSans-4a" d="M 2906 1791 
Q 2906 2416 2648 2759 
Q 2391 3103 1925 3103 
Q 1463 3103 1205 2759 
Q 947 2416 947 1791 
Q 947 1169 1205 825 
Q 1463 481 1925 481 
Q 2391 481 2648 825 
Q 2906 1169 2906 1791 
z
M 3481 434 
Q 3481 -459 3084 -895 
Q 2688 -1331 1869 -1331 
Q 1566 -1331 1297 -1286 
Q 1028 -1241 775 -1147 
L 775 -588 
Q 1028 -725 1275 -790 
Q 1522 -856 1778 -856 
Q 2344 -856 2625 -561 
Q 2906 -266 2906 331 
L 2906 616 
Q 2728 306 2450 153 
Q 2172 0 1784 0 
Q 1141 0 747 490 
Q 353 981 353 1791 
Q 353 2603 747 3093 
Q 1141 3584 1784 3584 
Q 2172 3584 2450 3431 
Q 2728 3278 2906 2969 
L 2906 3500 
L 3481 3500 
L 3481 434 
z
" transform="scale(0.015625)"/>
     </defs>
     <use xlink:href="#DejaVuSans-26"/>
     <use xlink:href="#DejaVuSans-44" transform="translate(69.828125 0)"/>
     <use xlink:href="#DejaVuSans-57" transform="translate(131.109375 0)"/>
     <use xlink:href="#DejaVuSans-48" transform="translate(170.3125 0)"/>
     <use xlink:href="#DejaVuSans-4a" transform="translate(231.84375 0)"/>
     <use xlink:href="#DejaVuSans-52" transform="translate(295.328125 0)"/>
     <use xlink:href="#DejaVuSans-55" transform="translate(356.515625 0)"/>
     <use xlink:href="#DejaVuSans-4c" transform="translate(397.625 0)"/>
     <use xlink:href="#DejaVuSans-46" transform="translate(425.40625 0)"/>
     <use xlink:href="#DejaVuSans-44" transform="translate(480.390625 0)"/>
     <use xlink:href="#DejaVuSans-4f" transform="translate(541.671875 0)"/>
    </g>
    <!-- most-frequent + one-hot -->
    <g style="fill: #24313b" transform="translate(212.279625 241.742078) scale(0.09 -0.09)">
     <defs>
      <path id="DejaVuSans-10" d="M 313 2009 
L 1997 2009 
L 1997 1497 
L 313 1497 
L 313 2009 
z
" transform="scale(0.015625)"/>
      <path id="DejaVuSans-54" d="M 947 1747 
Q 947 1113 1208 752 
Q 1469 391 1925 391 
Q 2381 391 2643 752 
Q 2906 1113 2906 1747 
Q 2906 2381 2643 2742 
Q 2381 3103 1925 3103 
Q 1469 3103 1208 2742 
Q 947 2381 947 1747 
z
M 2906 525 
Q 2725 213 2448 61 
Q 2172 -91 1784 -91 
Q 1150 -91 751 415 
Q 353 922 353 1747 
Q 353 2572 751 3078 
Q 1150 3584 1784 3584 
Q 2172 3584 2448 3432 
Q 2725 3281 2906 2969 
L 2906 3500 
L 3481 3500 
L 3481 -1331 
L 2906 -1331 
L 2906 525 
z
" transform="scale(0.015625)"/>
      <path id="DejaVuSans-4b" d="M 3513 2113 
L 3513 0 
L 2938 0 
L 2938 2094 
Q 2938 2591 2744 2837 
Q 2550 3084 2163 3084 
Q 1697 3084 1428 2787 
Q 1159 2491 1159 1978 
L 1159 0 
L 581 0 
L 581 4863 
L 1159 4863 
L 1159 2956 
Q 1366 3272 1645 3428 
Q 1925 3584 2291 3584 
Q 2894 3584 3203 3211 
Q 3513 2838 3513 2113 
z
" transform="scale(0.015625)"/>
     </defs>
     <use xlink:href="#DejaVuSans-50"/>
     <use xlink:href="#DejaVuSans-52" transform="translate(97.40625 0)"/>
     <use xlink:href="#DejaVuSans-56" transform="translate(158.59375 0)"/>
     <use xlink:href="#DejaVuSans-57" transform="translate(210.6875 0)"/>
     <use xlink:href="#DejaVuSans-10" transform="translate(249.890625 0)"/>
     <use xlink:href="#DejaVuSans-49" transform="translate(285.96875 0)"/>
     <use xlink:href="#DejaVuSans-55" transform="translate(321.171875 0)"/>
     <use xlink:href="#DejaVuSans-48" transform="translate(360.078125 0)"/>
     <use xlink:href="#DejaVuSans-54" transform="translate(421.609375 0)"/>
     <use xlink:href="#DejaVuSans-58" transform="translate(485.09375 0)"/>
     <use xlink:href="#DejaVuSans-48" transform="translate(548.46875 0)"/>
     <use xlink:href="#DejaVuSans-51" transform="translate(610 0)"/>
     <use xlink:href="#DejaVuSans-57" transform="translate(673.375 0)"/>
     <use xlink:href="#DejaVuSans-3" transform="translate(712.578125 0)"/>
     <use xlink:href="#DejaVuSans-e" transform="translate(744.359375 0)"/>
     <use xlink:href="#DejaVuSans-3" transform="translate(828.15625 0)"/>
     <use xlink:href="#DejaVuSans-52" transform="translate(859.9375 0)"/>
     <use xlink:href="#DejaVuSans-51" transform="translate(921.125 0)"/>
     <use xlink:href="#DejaVuSans-48" transform="translate(984.5 0)"/>
     <use xlink:href="#DejaVuSans-10" transform="translate(1046.03125 0)"/>
     <use xlink:href="#DejaVuSans-4b" transform="translate(1082.109375 0)"/>
     <use xlink:href="#DejaVuSans-52" transform="translate(1145.484375 0)"/>
     <use xlink:href="#DejaVuSans-57" transform="translate(1206.671875 0)"/>
    </g>
   </g>
   <g id="text_4">
    <!-- Общий -->
    <g style="fill: #24313b" transform="translate(437.604656 167.261081) scale(0.1 -0.1)">
     <defs>
      <path id="DejaVuSans-3b2" d="M 2522 4238 
Q 1834 4238 1429 3725 
Q 1025 3213 1025 2328 
Q 1025 1447 1429 934 
Q 1834 422 2522 422 
Q 3209 422 3611 934 
Q 4013 1447 4013 2328 
Q 4013 3213 3611 3725 
Q 3209 4238 2522 4238 
z
M 2522 4750 
Q 3503 4750 4090 4092 
Q 4678 3434 4678 2328 
Q 4678 1225 4090 567 
Q 3503 -91 2522 -91 
Q 1538 -91 948 565 
Q 359 1222 359 2328 
Q 359 3434 948 4092 
Q 1538 4750 2522 4750 
z
" transform="scale(0.015625)"/>
      <path id="DejaVuSans-3c5" d="M 1991 3584 
Q 2741 3584 3169 3096 
Q 3597 2609 3597 1747 
Q 3597 888 3169 398 
Q 2741 -91 1991 -91 
Q 1238 -91 822 384 
Q 406 859 384 1747 
L 366 2463 
Q 350 2834 350 2963 
Q 350 3463 531 3831 
Q 816 4409 1308 4659 
Q 1800 4909 2625 4916 
Q 3006 4919 3175 4972 
L 3334 4516 
Q 3181 4453 3041 4450 
L 2259 4397 
Q 1866 4369 1628 4231 
Q 1006 3866 947 3388 
L 925 3213 
Q 1331 3584 1991 3584 
z
M 1991 3097 
Q 1528 3097 1259 2736 
Q 991 2375 991 1747 
Q 991 1119 1258 758 
Q 1525 397 1991 397 
Q 2450 397 2719 759 
Q 2988 1122 2988 1747 
Q 2988 2369 2719 2733 
Q 2450 3097 1991 3097 
z
" transform="scale(0.015625)"/>
      <path id="DejaVuSans-3dd" d="M 5275 0 
L 581 0 
L 581 3500 
L 1159 3500 
L 1159 459 
L 2638 459 
L 2638 3500 
L 3216 3500 
L 3216 459 
L 4697 459 
L 4697 3500 
L 5275 3500 
L 5275 459 
L 5734 459 
L 5734 -884 
L 5275 -884 
L 5275 0 
z
" transform="scale(0.015625)"/>
      <path id="DejaVuSans-3cc" d="M 3578 3500 
L 3578 0 
L 3006 0 
L 3006 2809 
L 1319 0 
L 581 0 
L 581 3500 
L 1153 3500 
L 1153 697 
L 2838 3500 
L 3578 3500 
z
" transform="scale(0.015625)"/>
      <path id="DejaVuSans-3cd" d="M 3578 3500 
L 3578 0 
L 3006 0 
L 3006 2809 
L 1319 0 
L 581 0 
L 581 3500 
L 1153 3500 
L 1153 697 
L 2838 3500 
L 3578 3500 
z
M 1103 4862 
L 1472 4862 
Q 1506 4628 1657 4510 
Q 1809 4393 2081 4393 
Q 2350 4393 2500 4509 
Q 2650 4625 2690 4862 
L 3059 4862 
Q 3028 4415 2781 4190 
Q 2534 3965 2081 3965 
Q 1628 3965 1381 4190 
Q 1134 4415 1103 4862 
z
" transform="scale(0.015625)"/>
     </defs>
     <use xlink:href="#DejaVuSans-3b2"/>
     <use xlink:href="#DejaVuSans-3c5" transform="translate(78.71875 0)"/>
     <use xlink:href="#DejaVuSans-3dd" transform="translate(140.390625 0)"/>
     <use xlink:href="#DejaVuSans-3cc" transform="translate(234.578125 0)"/>
     <use xlink:href="#DejaVuSans-3cd" transform="translate(299.5625 0)"/>
    </g>
    <!-- feature matrix -->
    <g style="fill: #24313b" transform="translate(419.892937 179.263815) scale(0.1 -0.1)">
     <defs>
      <path id="DejaVuSans-5b" d="M 3513 3500 
L 2247 1797 
L 3578 0 
L 2900 0 
L 1881 1375 
L 863 0 
L 184 0 
L 1544 1831 
L 300 3500 
L 978 3500 
L 1906 2253 
L 2834 3500 
L 3513 3500 
z
" transform="scale(0.015625)"/>
     </defs>
     <use xlink:href="#DejaVuSans-49"/>
     <use xlink:href="#DejaVuSans-48" transform="translate(35.203125 0)"/>
     <use xlink:href="#DejaVuSans-44" transform="translate(96.734375 0)"/>
     <use xlink:href="#DejaVuSans-57" transform="translate(158.015625 0)"/>
     <use xlink:href="#DejaVuSans-58" transform="translate(197.21875 0)"/>
     <use xlink:href="#DejaVuSans-55" transform="translate(260.59375 0)"/>
     <use xlink:href="#DejaVuSans-48" transform="translate(299.5 0)"/>
     <use xlink:href="#DejaVuSans-3" transform="translate(361.03125 0)"/>
     <use xlink:href="#DejaVuSans-50" transform="translate(392.8125 0)"/>
     <use xlink:href="#DejaVuSans-44" transform="translate(490.21875 0)"/>
     <use xlink:href="#DejaVuSans-57" transform="translate(551.5 0)"/>
     <use xlink:href="#DejaVuSans-55" transform="translate(590.703125 0)"/>
     <use xlink:href="#DejaVuSans-4c" transform="translate(631.8125 0)"/>
     <use xlink:href="#DejaVuSans-5b" transform="translate(659.59375 0)"/>
    </g>
   </g>
   <g id="text_5">
    <!-- Estimator -->
    <g style="fill: #24313b" transform="translate(582.369344 167.176315) scale(0.1 -0.1)">
     <defs>
      <path id="DejaVuSans-28" d="M 628 4666 
L 3578 4666 
L 3578 4134 
L 1259 4134 
L 1259 2753 
L 3481 2753 
L 3481 2222 
L 1259 2222 
L 1259 531 
L 3634 531 
L 3634 0 
L 628 0 
L 628 4666 
z
" transform="scale(0.015625)"/>
     </defs>
     <use xlink:href="#DejaVuSans-28"/>
     <use xlink:href="#DejaVuSans-56" transform="translate(63.1875 0)"/>
     <use xlink:href="#DejaVuSans-57" transform="translate(115.28125 0)"/>
     <use xlink:href="#DejaVuSans-4c" transform="translate(154.484375 0)"/>
     <use xlink:href="#DejaVuSans-50" transform="translate(182.265625 0)"/>
     <use xlink:href="#DejaVuSans-44" transform="translate(279.671875 0)"/>
     <use xlink:href="#DejaVuSans-57" transform="translate(340.953125 0)"/>
     <use xlink:href="#DejaVuSans-52" transform="translate(380.15625 0)"/>
     <use xlink:href="#DejaVuSans-55" transform="translate(441.34375 0)"/>
    </g>
    <!-- LR / RF -->
    <g style="fill: #24313b" transform="translate(589.019344 179.178268) scale(0.1 -0.1)">
     <defs>
      <path id="DejaVuSans-2f" d="M 628 4666 
L 1259 4666 
L 1259 531 
L 3531 531 
L 3531 0 
L 628 0 
L 628 4666 
z
" transform="scale(0.015625)"/>
      <path id="DejaVuSans-35" d="M 2841 2188 
Q 3044 2119 3236 1894 
Q 3428 1669 3622 1275 
L 4263 0 
L 3584 0 
L 2988 1197 
Q 2756 1666 2539 1819 
Q 2322 1972 1947 1972 
L 1259 1972 
L 1259 0 
L 628 0 
L 628 4666 
L 2053 4666 
Q 2853 4666 3247 4331 
Q 3641 3997 3641 3322 
Q 3641 2881 3436 2590 
Q 3231 2300 2841 2188 
z
M 1259 4147 
L 1259 2491 
L 2053 2491 
Q 2509 2491 2742 2702 
Q 2975 2913 2975 3322 
Q 2975 3731 2742 3939 
Q 2509 4147 2053 4147 
L 1259 4147 
z
" transform="scale(0.015625)"/>
      <path id="DejaVuSans-12" d="M 1625 4666 
L 2156 4666 
L 531 -594 
L 0 -594 
L 1625 4666 
z
" transform="scale(0.015625)"/>
      <path id="DejaVuSans-29" d="M 628 4666 
L 3309 4666 
L 3309 4134 
L 1259 4134 
L 1259 2759 
L 3109 2759 
L 3109 2228 
L 1259 2228 
L 1259 0 
L 628 0 
L 628 4666 
z
" transform="scale(0.015625)"/>
     </defs>
     <use xlink:href="#DejaVuSans-2f"/>
     <use xlink:href="#DejaVuSans-35" transform="translate(55.71875 0)"/>
     <use xlink:href="#DejaVuSans-3" transform="translate(125.203125 0)"/>
     <use xlink:href="#DejaVuSans-12" transform="translate(156.984375 0)"/>
     <use xlink:href="#DejaVuSans-3" transform="translate(190.671875 0)"/>
     <use xlink:href="#DejaVuSans-35" transform="translate(222.453125 0)"/>
     <use xlink:href="#DejaVuSans-29" transform="translate(291.9375 0)"/>
    </g>
   </g>
   <g id="text_6">
    <!-- Один sklearn Pipeline -->
    <g style="fill: #0072b2" transform="translate(347.168109 55.264045) scale(0.11 -0.11)">
     <defs>
      <path id="DejaVuSans-Bold-3b2" d="M 2719 3878 
Q 2169 3878 1866 3472 
Q 1563 3066 1563 2328 
Q 1563 1594 1866 1187 
Q 2169 781 2719 781 
Q 3272 781 3575 1187 
Q 3878 1594 3878 2328 
Q 3878 3066 3575 3472 
Q 3272 3878 2719 3878 
z
M 2719 4750 
Q 3844 4750 4481 4106 
Q 5119 3463 5119 2328 
Q 5119 1197 4481 553 
Q 3844 -91 2719 -91 
Q 1597 -91 958 553 
Q 319 1197 319 2328 
Q 319 3463 958 4106 
Q 1597 4750 2719 4750 
z
" transform="scale(0.015625)"/>
      <path id="DejaVuSans-Bold-3c8" d="M 547 800 
Q 903 919 1053 1314 
Q 1203 1709 1203 2838 
L 1203 3500 
L 4228 3500 
L 4228 800 
L 4809 800 
L 4809 -884 
L 4009 -884 
L 4009 0 
L 1159 0 
L 1159 -884 
L 359 -884 
L 359 800 
L 547 800 
z
M 3109 2700 
L 2322 2700 
L 2322 2603 
Q 2322 1456 2063 800 
L 3109 800 
L 3109 2700 
z
" transform="scale(0.015625)"/>
      <path id="DejaVuSans-Bold-3cc" d="M 3947 3500 
L 3947 0 
L 2828 0 
L 2828 1863 
L 1700 0 
L 538 0 
L 538 3500 
L 1656 3500 
L 1656 1638 
L 2784 3500 
L 3947 3500 
z
" transform="scale(0.015625)"/>
      <path id="DejaVuSans-Bold-3d1" d="M 538 3500 
L 1656 3500 
L 1656 2169 
L 2766 2169 
L 2766 3500 
L 3884 3500 
L 3884 0 
L 2766 0 
L 2766 1478 
L 1656 1478 
L 1656 0 
L 538 0 
L 538 3500 
z
" transform="scale(0.015625)"/>
      <path id="DejaVuSans-Bold-3" transform="scale(0.015625)"/>
      <path id="DejaVuSans-Bold-56" d="M 3272 3391 
L 3272 2541 
Q 2913 2691 2578 2766 
Q 2244 2841 1947 2841 
Q 1628 2841 1473 2761 
Q 1319 2681 1319 2516 
Q 1319 2381 1436 2309 
Q 1553 2238 1856 2203 
L 2053 2175 
Q 2913 2066 3209 1816 
Q 3506 1566 3506 1031 
Q 3506 472 3093 190 
Q 2681 -91 1863 -91 
Q 1516 -91 1145 -36 
Q 775 19 384 128 
L 384 978 
Q 719 816 1070 734 
Q 1422 653 1784 653 
Q 2113 653 2278 743 
Q 2444 834 2444 1013 
Q 2444 1163 2330 1236 
Q 2216 1309 1875 1350 
L 1678 1375 
Q 931 1469 631 1722 
Q 331 1975 331 2491 
Q 331 3047 712 3315 
Q 1094 3584 1881 3584 
Q 2191 3584 2531 3537 
Q 2872 3491 3272 3391 
z
" transform="scale(0.015625)"/>
      <path id="DejaVuSans-Bold-4e" d="M 538 4863 
L 1656 4863 
L 1656 2216 
L 2944 3500 
L 4244 3500 
L 2534 1894 
L 4378 0 
L 3022 0 
L 1656 1459 
L 1656 0 
L 538 0 
L 538 4863 
z
" transform="scale(0.015625)"/>
      <path id="DejaVuSans-Bold-4f" d="M 538 4863 
L 1656 4863 
L 1656 0 
L 538 0 
L 538 4863 
z
" transform="scale(0.015625)"/>
      <path id="DejaVuSans-Bold-48" d="M 4031 1759 
L 4031 1441 
L 1416 1441 
Q 1456 1047 1700 850 
Q 1944 653 2381 653 
Q 2734 653 3104 758 
Q 3475 863 3866 1075 
L 3866 213 
Q 3469 63 3072 -14 
Q 2675 -91 2278 -91 
Q 1328 -91 801 392 
Q 275 875 275 1747 
Q 275 2603 792 3093 
Q 1309 3584 2216 3584 
Q 3041 3584 3536 3087 
Q 4031 2591 4031 1759 
z
M 2881 2131 
Q 2881 2450 2695 2645 
Q 2509 2841 2209 2841 
Q 1884 2841 1681 2658 
Q 1478 2475 1428 2131 
L 2881 2131 
z
" transform="scale(0.015625)"/>
      <path id="DejaVuSans-Bold-44" d="M 2106 1575 
Q 1756 1575 1579 1456 
Q 1403 1338 1403 1106 
Q 1403 894 1545 773 
Q 1688 653 1941 653 
Q 2256 653 2472 879 
Q 2688 1106 2688 1447 
L 2688 1575 
L 2106 1575 
z
M 3816 1997 
L 3816 0 
L 2688 0 
L 2688 519 
Q 2463 200 2181 54 
Q 1900 -91 1497 -91 
Q 953 -91 614 226 
Q 275 544 275 1050 
Q 275 1666 698 1953 
Q 1122 2241 2028 2241 
L 2688 2241 
L 2688 2328 
Q 2688 2594 2478 2717 
Q 2269 2841 1825 2841 
Q 1466 2841 1156 2769 
Q 847 2697 581 2553 
L 581 3406 
Q 941 3494 1303 3539 
Q 1666 3584 2028 3584 
Q 2975 3584 3395 3211 
Q 3816 2838 3816 1997 
z
" transform="scale(0.015625)"/>
      <path id="DejaVuSans-Bold-55" d="M 3138 2547 
Q 2991 2616 2845 2648 
Q 2700 2681 2553 2681 
Q 2122 2681 1889 2404 
Q 1656 2128 1656 1613 
L 1656 0 
L 538 0 
L 538 3500 
L 1656 3500 
L 1656 2925 
Q 1872 3269 2151 3426 
Q 2431 3584 2822 3584 
Q 2878 3584 2943 3579 
Q 3009 3575 3134 3559 
L 3138 2547 
z
" transform="scale(0.015625)"/>
      <path id="DejaVuSans-Bold-51" d="M 4056 2131 
L 4056 0 
L 2931 0 
L 2931 347 
L 2931 1631 
Q 2931 2084 2911 2256 
Q 2891 2428 2841 2509 
Q 2775 2619 2662 2680 
Q 2550 2741 2406 2741 
Q 2056 2741 1856 2470 
Q 1656 2200 1656 1722 
L 1656 0 
L 538 0 
L 538 3500 
L 1656 3500 
L 1656 2988 
Q 1909 3294 2193 3439 
Q 2478 3584 2822 3584 
Q 3428 3584 3742 3212 
Q 4056 2841 4056 2131 
z
" transform="scale(0.015625)"/>
      <path id="DejaVuSans-Bold-33" d="M 588 4666 
L 2584 4666 
Q 3475 4666 3951 4270 
Q 4428 3875 4428 3144 
Q 4428 2409 3951 2014 
Q 3475 1619 2584 1619 
L 1791 1619 
L 1791 0 
L 588 0 
L 588 4666 
z
M 1791 3794 
L 1791 2491 
L 2456 2491 
Q 2806 2491 2997 2661 
Q 3188 2831 3188 3144 
Q 3188 3456 2997 3625 
Q 2806 3794 2456 3794 
L 1791 3794 
z
" transform="scale(0.015625)"/>
      <path id="DejaVuSans-Bold-4c" d="M 538 3500 
L 1656 3500 
L 1656 0 
L 538 0 
L 538 3500 
z
M 538 4863 
L 1656 4863 
L 1656 3950 
L 538 3950 
L 538 4863 
z
" transform="scale(0.015625)"/>
      <path id="DejaVuSans-Bold-53" d="M 1656 506 
L 1656 -1331 
L 538 -1331 
L 538 3500 
L 1656 3500 
L 1656 2988 
Q 1888 3294 2169 3439 
Q 2450 3584 2816 3584 
Q 3463 3584 3878 3070 
Q 4294 2556 4294 1747 
Q 4294 938 3878 423 
Q 3463 -91 2816 -91 
Q 2450 -91 2169 54 
Q 1888 200 1656 506 
z
M 2400 2772 
Q 2041 2772 1848 2508 
Q 1656 2244 1656 1747 
Q 1656 1250 1848 986 
Q 2041 722 2400 722 
Q 2759 722 2948 984 
Q 3138 1247 3138 1747 
Q 3138 2247 2948 2509 
Q 2759 2772 2400 2772 
z
" transform="scale(0.015625)"/>
     </defs>
     <use xlink:href="#DejaVuSans-Bold-3b2"/>
     <use xlink:href="#DejaVuSans-Bold-3c8" transform="translate(85.015625 0)"/>
     <use xlink:href="#DejaVuSans-Bold-3cc" transform="translate(165.78125 0)"/>
     <use xlink:href="#DejaVuSans-Bold-3d1" transform="translate(235.84375 0)"/>
     <use xlink:href="#DejaVuSans-Bold-3" transform="translate(304.9375 0)"/>
     <use xlink:href="#DejaVuSans-Bold-56" transform="translate(339.75 0)"/>
     <use xlink:href="#DejaVuSans-Bold-4e" transform="translate(399.265625 0)"/>
     <use xlink:href="#DejaVuSans-Bold-4f" transform="translate(465.765625 0)"/>
     <use xlink:href="#DejaVuSans-Bold-48" transform="translate(500.046875 0)"/>
     <use xlink:href="#DejaVuSans-Bold-44" transform="translate(567.875 0)"/>
     <use xlink:href="#DejaVuSans-Bold-55" transform="translate(635.359375 0)"/>
     <use xlink:href="#DejaVuSans-Bold-51" transform="translate(684.671875 0)"/>
     <use xlink:href="#DejaVuSans-Bold-3" transform="translate(755.859375 0)"/>
     <use xlink:href="#DejaVuSans-Bold-33" transform="translate(790.671875 0)"/>
     <use xlink:href="#DejaVuSans-Bold-4c" transform="translate(863.96875 0)"/>
     <use xlink:href="#DejaVuSans-Bold-53" transform="translate(898.25 0)"/>
     <use xlink:href="#DejaVuSans-Bold-48" transform="translate(969.828125 0)"/>
     <use xlink:href="#DejaVuSans-Bold-4f" transform="translate(1037.65625 0)"/>
     <use xlink:href="#DejaVuSans-Bold-4c" transform="translate(1071.9375 0)"/>
     <use xlink:href="#DejaVuSans-Bold-51" transform="translate(1106.21875 0)"/>
     <use xlink:href="#DejaVuSans-Bold-48" transform="translate(1177.40625 0)"/>
    </g>
   </g>
   <g id="text_7">
    <!-- На каждом CV-проходе imputer, encoder, scaler и модель fit-ятся только на training folds, а затем применяются к validation fold. -->
    <g transform="translate(27.288 300.308845) scale(0.092 -0.092)">
     <defs>
      <path id="DejaVuSans-3b1" d="M 628 4666 
L 1259 4666 
L 1259 2753 
L 3553 2753 
L 3553 4666 
L 4184 4666 
L 4184 0 
L 3553 0 
L 3553 2222 
L 1259 2222 
L 1259 0 
L 628 0 
L 628 4666 
z
" transform="scale(0.015625)"/>
      <path id="DejaVuSans-3c4" d="M 2194 1759 
Q 1497 1759 1228 1600 
Q 959 1441 959 1056 
Q 959 750 1161 570 
Q 1363 391 1709 391 
Q 2188 391 2477 730 
Q 2766 1069 2766 1631 
L 2766 1759 
L 2194 1759 
z
M 3341 1997 
L 3341 0 
L 2766 0 
L 2766 531 
Q 2569 213 2275 61 
Q 1981 -91 1556 -91 
Q 1019 -91 701 211 
Q 384 513 384 1019 
Q 384 1609 779 1909 
Q 1175 2209 1959 2209 
L 2766 2209 
L 2766 2266 
Q 2766 2663 2505 2880 
Q 2244 3097 1772 3097 
Q 1472 3097 1187 3025 
Q 903 2953 641 2809 
L 641 3341 
Q 956 3463 1253 3523 
Q 1550 3584 1831 3584 
Q 2591 3584 2966 3190 
Q 3341 2797 3341 1997 
z
" transform="scale(0.015625)"/>
      <path id="DejaVuSans-3ce" d="M 581 3500 
L 1153 3500 
L 1153 1856 
L 2775 3500 
L 3481 3500 
L 2144 2147 
L 3653 0 
L 3009 0 
L 1769 1766 
L 1153 1141 
L 1153 0 
L 581 0 
L 581 3500 
z
" transform="scale(0.015625)"/>
      <path id="DejaVuSans-3ca" d="M 2597 3500 
L 3169 3500 
L 3169 1856 
L 4697 3500 
L 5366 3500 
L 4109 2153 
L 5547 0 
L 4931 0 
L 3753 1769 
L 3169 1141 
L 3169 0 
L 2597 0 
L 2597 1141 
L 2013 1769 
L 834 0 
L 219 0 
L 1656 2153 
L 400 3500 
L 1069 3500 
L 2597 1856 
L 2597 3500 
z
" transform="scale(0.015625)"/>
      <path id="DejaVuSans-3c8" d="M 1384 459 
L 3053 459 
L 3053 3041 
L 1844 3041 
L 1844 2603 
Q 1844 1316 1475 628 
L 1384 459 
z
M 550 459 
Q 834 584 959 850 
Q 1266 1509 1266 2838 
L 1266 3500 
L 3631 3500 
L 3631 459 
L 4091 459 
L 4091 -884 
L 3631 -884 
L 3631 0 
L 794 0 
L 794 -884 
L 334 -884 
L 334 459 
L 550 459 
z
" transform="scale(0.015625)"/>
      <path id="DejaVuSans-3d2" d="M 1959 3097 
Q 1497 3097 1228 2736 
Q 959 2375 959 1747 
Q 959 1119 1226 758 
Q 1494 397 1959 397 
Q 2419 397 2687 759 
Q 2956 1122 2956 1747 
Q 2956 2369 2687 2733 
Q 2419 3097 1959 3097 
z
M 1959 3584 
Q 2709 3584 3137 3096 
Q 3566 2609 3566 1747 
Q 3566 888 3137 398 
Q 2709 -91 1959 -91 
Q 1206 -91 779 398 
Q 353 888 353 1747 
Q 353 2609 779 3096 
Q 1206 3584 1959 3584 
z
" transform="scale(0.015625)"/>
      <path id="DejaVuSans-3d0" d="M 581 3500 
L 1422 3500 
L 2416 1156 
L 3413 3500 
L 4247 3500 
L 4247 0 
L 3669 0 
L 3669 2950 
L 2703 672 
L 2128 672 
L 1159 2950 
L 1159 0 
L 581 0 
L 581 3500 
z
" transform="scale(0.015625)"/>
      <path id="DejaVuSans-39" d="M 1831 0 
L 50 4666 
L 709 4666 
L 2188 738 
L 3669 4666 
L 4325 4666 
L 2547 0 
L 1831 0 
z
" transform="scale(0.015625)"/>
      <path id="DejaVuSans-3d3" d="M 3603 3500 
L 3603 0 
L 3025 0 
L 3025 3041 
L 1159 3041 
L 1159 0 
L 581 0 
L 581 3500 
L 3603 3500 
z
" transform="scale(0.015625)"/>
      <path id="DejaVuSans-3d4" d="M 1159 525 
L 1159 -1331 
L 581 -1331 
L 581 3500 
L 1159 3500 
L 1159 2969 
Q 1341 3281 1617 3432 
Q 1894 3584 2278 3584 
Q 2916 3584 3314 3078 
Q 3713 2572 3713 1747 
Q 3713 922 3314 415 
Q 2916 -91 2278 -91 
Q 1894 -91 1617 61 
Q 1341 213 1159 525 
z
M 3116 1747 
Q 3116 2381 2855 2742 
Q 2594 3103 2138 3103 
Q 1681 3103 1420 2742 
Q 1159 2381 1159 1747 
Q 1159 1113 1420 752 
Q 1681 391 2138 391 
Q 2594 391 2855 752 
Q 3116 1113 3116 1747 
z
" transform="scale(0.015625)"/>
      <path id="DejaVuSans-3d9" d="M 3513 3500 
L 2247 1797 
L 3578 0 
L 2900 0 
L 1881 1375 
L 863 0 
L 184 0 
L 1544 1831 
L 300 3500 
L 978 3500 
L 1906 2253 
L 2834 3500 
L 3513 3500 
z
" transform="scale(0.015625)"/>
      <path id="DejaVuSans-3c9" d="M 3597 1894 
L 3597 1613 
L 953 1613 
Q 991 1019 1311 708 
Q 1631 397 2203 397 
Q 2534 397 2845 478 
Q 3156 559 3463 722 
L 3463 178 
Q 3153 47 2828 -22 
Q 2503 -91 2169 -91 
Q 1331 -91 842 396 
Q 353 884 353 1716 
Q 353 2575 817 3079 
Q 1281 3584 2069 3584 
Q 2775 3584 3186 3129 
Q 3597 2675 3597 1894 
z
M 3022 2063 
Q 3016 2534 2758 2815 
Q 2500 3097 2075 3097 
Q 1594 3097 1305 2825 
Q 1016 2553 972 2059 
L 3022 2063 
z
" transform="scale(0.015625)"/>
      <path id="DejaVuSans-53" d="M 1159 525 
L 1159 -1331 
L 581 -1331 
L 581 3500 
L 1159 3500 
L 1159 2969 
Q 1341 3281 1617 3432 
Q 1894 3584 2278 3584 
Q 2916 3584 3314 3078 
Q 3713 2572 3713 1747 
Q 3713 922 3314 415 
Q 2916 -91 2278 -91 
Q 1894 -91 1617 61 
Q 1341 213 1159 525 
z
M 3116 1747 
Q 3116 2381 2855 2742 
Q 2594 3103 2138 3103 
Q 1681 3103 1420 2742 
Q 1159 2381 1159 1747 
Q 1159 1113 1420 752 
Q 1681 391 2138 391 
Q 2594 391 2855 752 
Q 3116 1113 3116 1747 
z
" transform="scale(0.015625)"/>
      <path id="DejaVuSans-f" d="M 750 794 
L 1409 794 
L 1409 256 
L 897 -744 
L 494 -744 
L 750 256 
L 750 794 
z
" transform="scale(0.015625)"/>
      <path id="DejaVuSans-3cf" d="M 238 0 
L 238 478 
Q 806 566 981 959 
Q 1194 1513 1194 2928 
L 1194 3500 
L 3559 3500 
L 3559 0 
L 2984 0 
L 2984 3041 
L 1769 3041 
L 1769 2694 
Q 1769 1344 1494 738 
Q 1200 91 238 0 
z
" transform="scale(0.015625)"/>
      <path id="DejaVuSans-3e0" d="M 2781 1038 
Q 2781 1319 2576 1466 
Q 2372 1613 1978 1613 
L 1159 1613 
L 1159 459 
L 1978 459 
Q 2372 459 2576 607 
Q 2781 756 2781 1038 
z
M 581 3500 
L 1159 3500 
L 1159 2072 
L 2003 2072 
Q 2672 2072 3033 1817 
Q 3394 1563 3394 1038 
Q 3394 513 3033 256 
Q 2672 0 2003 0 
L 581 0 
L 581 3500 
z
" transform="scale(0.015625)"/>
      <path id="DejaVuSans-13af" d="M 3431 3500 
L 3431 0 
L 2853 0 
L 2853 3053 
L 1275 3053 
L 1275 0 
L 697 0 
L 697 3053 
L 147 3053 
L 147 3500 
L 697 3500 
L 697 3744 
Q 697 4316 967 4589 
Q 1238 4863 1797 4863 
L 2375 4863 
L 2375 4384 
L 1825 4384 
Q 1516 4384 1395 4259 
Q 1275 4134 1275 3809 
L 1275 3500 
L 3431 3500 
z
M 2853 4856 
L 3431 4856 
L 3431 4128 
L 2853 4128 
L 2853 4856 
z
" transform="scale(0.015625)"/>
      <path id="DejaVuSans-3e3" d="M 1181 2491 
Q 1181 2231 1381 2084 
Q 1581 1938 1953 1938 
L 2728 1938 
L 2728 3041 
L 1953 3041 
Q 1581 3041 1381 2897 
Q 1181 2753 1181 2491 
z
M 363 0 
L 1431 1534 
Q 1069 1616 828 1830 
Q 588 2044 588 2491 
Q 588 2997 923 3248 
Q 1259 3500 1938 3500 
L 3306 3500 
L 3306 0 
L 2728 0 
L 2728 1478 
L 2013 1478 
L 981 0 
L 363 0 
z
" transform="scale(0.015625)"/>
      <path id="DejaVuSans-3d6" d="M 188 3500 
L 3541 3500 
L 3541 3041 
L 2147 3041 
L 2147 0 
L 1581 0 
L 1581 3041 
L 188 3041 
L 188 3500 
z
" transform="scale(0.015625)"/>
      <path id="DejaVuSans-3d5" d="M 3122 3366 
L 3122 2828 
Q 2878 2963 2633 3030 
Q 2388 3097 2138 3097 
Q 1578 3097 1268 2742 
Q 959 2388 959 1747 
Q 959 1106 1268 751 
Q 1578 397 2138 397 
Q 2388 397 2633 464 
Q 2878 531 3122 666 
L 3122 134 
Q 2881 22 2623 -34 
Q 2366 -91 2075 -91 
Q 1284 -91 818 406 
Q 353 903 353 1747 
Q 353 2603 823 3093 
Q 1294 3584 2113 3584 
Q 2378 3584 2631 3529 
Q 2884 3475 3122 3366 
z
" transform="scale(0.015625)"/>
      <path id="DejaVuSans-3d1" d="M 581 3500 
L 1159 3500 
L 1159 2072 
L 3025 2072 
L 3025 3500 
L 3603 3500 
L 3603 0 
L 3025 0 
L 3025 1613 
L 1159 1613 
L 1159 0 
L 581 0 
L 581 3500 
z
" transform="scale(0.015625)"/>
      <path id="DejaVuSans-3cb" d="M 2206 1888 
Q 2594 1813 2809 1584 
Q 3025 1356 3025 1019 
Q 3025 478 2622 193 
Q 2219 -91 1475 -91 
Q 1225 -91 961 -47 
Q 697 -3 416 84 
L 416 619 
Q 638 503 903 445 
Q 1169 388 1459 388 
Q 1931 388 2195 563 
Q 2459 738 2459 1019 
Q 2459 1294 2225 1461 
Q 1991 1628 1563 1628 
L 1100 1628 
L 1100 2103 
L 1584 2103 
Q 1947 2103 2158 2242 
Q 2369 2381 2369 2600 
Q 2369 2800 2151 2944 
Q 1934 3088 1563 3088 
Q 1341 3088 1089 3047 
Q 838 3006 534 2916 
L 534 3438 
Q 841 3513 1106 3550 
Q 1372 3588 1609 3588 
Q 2222 3588 2576 3342 
Q 2931 3097 2931 2656 
Q 2931 2366 2743 2164 
Q 2556 1963 2206 1888 
z
" transform="scale(0.015625)"/>
      <path id="DejaVuSans-3e2" d="M 3431 3097 
Q 2969 3097 2700 2736 
Q 2431 2375 2431 1747 
Q 2431 1119 2698 758 
Q 2966 397 3431 397 
Q 3891 397 4159 759 
Q 4428 1122 4428 1747 
Q 4428 2369 4159 2733 
Q 3891 3097 3431 3097 
z
M 1844 2103 
Q 1903 2697 2292 3140 
Q 2681 3584 3431 3584 
Q 4181 3584 4609 3096 
Q 5038 2609 5038 1747 
Q 5038 888 4609 398 
Q 4181 -91 3431 -91 
Q 2678 -91 2267 381 
Q 1856 853 1828 1628 
L 1178 1628 
L 1178 0 
L 603 0 
L 603 3500 
L 1178 3500 
L 1178 2103 
L 1844 2103 
z
" transform="scale(0.015625)"/>
      <path id="DejaVuSans-59" d="M 191 3500 
L 800 3500 
L 1894 563 
L 2988 3500 
L 3597 3500 
L 2284 0 
L 1503 0 
L 191 3500 
z
" transform="scale(0.015625)"/>
      <path id="DejaVuSans-11" d="M 684 794 
L 1344 794 
L 1344 0 
L 684 0 
L 684 794 
z
" transform="scale(0.015625)"/>
     </defs>
     <use xlink:href="#DejaVuSans-3b1"/>
     <use xlink:href="#DejaVuSans-3c4" transform="translate(75.203125 0)"/>
     <use xlink:href="#DejaVuSans-3" transform="translate(136.484375 0)"/>
     <use xlink:href="#DejaVuSans-3ce" transform="translate(168.265625 0)"/>
     <use xlink:href="#DejaVuSans-3c4" transform="translate(228.671875 0)"/>
     <use xlink:href="#DejaVuSans-3ca" transform="translate(289.953125 0)"/>
     <use xlink:href="#DejaVuSans-3c8" transform="translate(380.046875 0)"/>
     <use xlink:href="#DejaVuSans-3d2" transform="translate(449.1875 0)"/>
     <use xlink:href="#DejaVuSans-3d0" transform="translate(510.375 0)"/>
     <use xlink:href="#DejaVuSans-3" transform="translate(585.8125 0)"/>
     <use xlink:href="#DejaVuSans-26" transform="translate(617.59375 0)"/>
     <use xlink:href="#DejaVuSans-39" transform="translate(687.421875 0)"/>
     <use xlink:href="#DejaVuSans-10" transform="translate(749.96875 0)"/>
     <use xlink:href="#DejaVuSans-3d3" transform="translate(786.046875 0)"/>
     <use xlink:href="#DejaVuSans-3d4" transform="translate(851.421875 0)"/>
     <use xlink:href="#DejaVuSans-3d2" transform="translate(914.90625 0)"/>
     <use xlink:href="#DejaVuSans-3d9" transform="translate(976.09375 0)"/>
     <use xlink:href="#DejaVuSans-3d2" transform="translate(1035.28125 0)"/>
     <use xlink:href="#DejaVuSans-3c8" transform="translate(1096.46875 0)"/>
     <use xlink:href="#DejaVuSans-3c9" transform="translate(1165.609375 0)"/>
     <use xlink:href="#DejaVuSans-3" transform="translate(1227.140625 0)"/>
     <use xlink:href="#DejaVuSans-4c" transform="translate(1258.921875 0)"/>
     <use xlink:href="#DejaVuSans-50" transform="translate(1286.703125 0)"/>
     <use xlink:href="#DejaVuSans-53" transform="translate(1384.109375 0)"/>
     <use xlink:href="#DejaVuSans-58" transform="translate(1447.59375 0)"/>
     <use xlink:href="#DejaVuSans-57" transform="translate(1510.96875 0)"/>
     <use xlink:href="#DejaVuSans-48" transform="translate(1550.171875 0)"/>
     <use xlink:href="#DejaVuSans-55" transform="translate(1611.703125 0)"/>
     <use xlink:href="#DejaVuSans-f" transform="translate(1652.8125 0)"/>
     <use xlink:href="#DejaVuSans-3" transform="translate(1684.59375 0)"/>
     <use xlink:href="#DejaVuSans-48" transform="translate(1716.375 0)"/>
     <use xlink:href="#DejaVuSans-51" transform="translate(1777.90625 0)"/>
     <use xlink:href="#DejaVuSans-46" transform="translate(1841.28125 0)"/>
     <use xlink:href="#DejaVuSans-52" transform="translate(1896.265625 0)"/>
     <use xlink:href="#DejaVuSans-47" transform="translate(1957.453125 0)"/>
     <use xlink:href="#DejaVuSans-48" transform="translate(2020.9375 0)"/>
     <use xlink:href="#DejaVuSans-55" transform="translate(2082.46875 0)"/>
     <use xlink:href="#DejaVuSans-f" transform="translate(2123.578125 0)"/>
     <use xlink:href="#DejaVuSans-3" transform="translate(2155.359375 0)"/>
     <use xlink:href="#DejaVuSans-56" transform="translate(2187.140625 0)"/>
     <use xlink:href="#DejaVuSans-46" transform="translate(2239.234375 0)"/>
     <use xlink:href="#DejaVuSans-44" transform="translate(2294.21875 0)"/>
     <use xlink:href="#DejaVuSans-4f" transform="translate(2355.5 0)"/>
     <use xlink:href="#DejaVuSans-48" transform="translate(2383.28125 0)"/>
     <use xlink:href="#DejaVuSans-55" transform="translate(2444.8125 0)"/>
     <use xlink:href="#DejaVuSans-3" transform="translate(2485.921875 0)"/>
     <use xlink:href="#DejaVuSans-3cc" transform="translate(2517.703125 0)"/>
     <use xlink:href="#DejaVuSans-3" transform="translate(2582.6875 0)"/>
     <use xlink:href="#DejaVuSans-3d0" transform="translate(2614.46875 0)"/>
     <use xlink:href="#DejaVuSans-3d2" transform="translate(2689.90625 0)"/>
     <use xlink:href="#DejaVuSans-3c8" transform="translate(2751.09375 0)"/>
     <use xlink:href="#DejaVuSans-3c9" transform="translate(2820.234375 0)"/>
     <use xlink:href="#DejaVuSans-3cf" transform="translate(2881.765625 0)"/>
     <use xlink:href="#DejaVuSans-3e0" transform="translate(2945.6875 0)"/>
     <use xlink:href="#DejaVuSans-3" transform="translate(3004.625 0)"/>
     <use xlink:href="#DejaVuSans-13af" transform="translate(3036.40625 0)"/>
     <use xlink:href="#DejaVuSans-57" transform="translate(3099.390625 0)"/>
     <use xlink:href="#DejaVuSans-10" transform="translate(3138.59375 0)"/>
     <use xlink:href="#DejaVuSans-3e3" transform="translate(3174.671875 0)"/>
     <use xlink:href="#DejaVuSans-3d6" transform="translate(3234.828125 0)"/>
     <use xlink:href="#DejaVuSans-3d5" transform="translate(3293.078125 0)"/>
     <use xlink:href="#DejaVuSans-3e3" transform="translate(3348.0625 0)"/>
     <use xlink:href="#DejaVuSans-3" transform="translate(3408.21875 0)"/>
     <use xlink:href="#DejaVuSans-3d6" transform="translate(3440 0)"/>
     <use xlink:href="#DejaVuSans-3d2" transform="translate(3498.25 0)"/>
     <use xlink:href="#DejaVuSans-3cf" transform="translate(3559.4375 0)"/>
     <use xlink:href="#DejaVuSans-3e0" transform="translate(3623.359375 0)"/>
     <use xlink:href="#DejaVuSans-3ce" transform="translate(3682.296875 0)"/>
     <use xlink:href="#DejaVuSans-3d2" transform="translate(3742.703125 0)"/>
     <use xlink:href="#DejaVuSans-3" transform="translate(3803.890625 0)"/>
     <use xlink:href="#DejaVuSans-3d1" transform="translate(3835.671875 0)"/>
     <use xlink:href="#DejaVuSans-3c4" transform="translate(3901.046875 0)"/>
     <use xlink:href="#DejaVuSans-3" transform="translate(3962.328125 0)"/>
     <use xlink:href="#DejaVuSans-57" transform="translate(3994.109375 0)"/>
     <use xlink:href="#DejaVuSans-55" transform="translate(4033.3125 0)"/>
     <use xlink:href="#DejaVuSans-44" transform="translate(4074.421875 0)"/>
     <use xlink:href="#DejaVuSans-4c" transform="translate(4135.703125 0)"/>
     <use xlink:href="#DejaVuSans-51" transform="translate(4163.484375 0)"/>
     <use xlink:href="#DejaVuSans-4c" transform="translate(4226.859375 0)"/>
     <use xlink:href="#DejaVuSans-51" transform="translate(4254.640625 0)"/>
     <use xlink:href="#DejaVuSans-4a" transform="translate(4318.015625 0)"/>
     <use xlink:href="#DejaVuSans-3" transform="translate(4381.5 0)"/>
     <use xlink:href="#DejaVuSans-49" transform="translate(4413.28125 0)"/>
     <use xlink:href="#DejaVuSans-52" transform="translate(4448.484375 0)"/>
     <use xlink:href="#DejaVuSans-4f" transform="translate(4509.671875 0)"/>
     <use xlink:href="#DejaVuSans-47" transform="translate(4537.453125 0)"/>
     <use xlink:href="#DejaVuSans-56" transform="translate(4600.9375 0)"/>
     <use xlink:href="#DejaVuSans-f" transform="translate(4653.03125 0)"/>
     <use xlink:href="#DejaVuSans-3" transform="translate(4684.8125 0)"/>
     <use xlink:href="#DejaVuSans-3c4" transform="translate(4716.59375 0)"/>
     <use xlink:href="#DejaVuSans-3" transform="translate(4777.875 0)"/>
     <use xlink:href="#DejaVuSans-3cb" transform="translate(4809.65625 0)"/>
     <use xlink:href="#DejaVuSans-3c4" transform="translate(4862.828125 0)"/>
     <use xlink:href="#DejaVuSans-3d6" transform="translate(4924.109375 0)"/>
     <use xlink:href="#DejaVuSans-3c9" transform="translate(4982.359375 0)"/>
     <use xlink:href="#DejaVuSans-3d0" transform="translate(5043.890625 0)"/>
     <use xlink:href="#DejaVuSans-3" transform="translate(5119.328125 0)"/>
     <use xlink:href="#DejaVuSans-3d3" transform="translate(5151.109375 0)"/>
     <use xlink:href="#DejaVuSans-3d4" transform="translate(5216.484375 0)"/>
     <use xlink:href="#DejaVuSans-3cc" transform="translate(5279.96875 0)"/>
     <use xlink:href="#DejaVuSans-3d0" transform="translate(5344.953125 0)"/>
     <use xlink:href="#DejaVuSans-3c9" transform="translate(5420.390625 0)"/>
     <use xlink:href="#DejaVuSans-3d1" transform="translate(5481.921875 0)"/>
     <use xlink:href="#DejaVuSans-3e3" transform="translate(5547.296875 0)"/>
     <use xlink:href="#DejaVuSans-3e2" transform="translate(5607.453125 0)"/>
     <use xlink:href="#DejaVuSans-3d6" transform="translate(5691.640625 0)"/>
     <use xlink:href="#DejaVuSans-3d5" transform="translate(5749.890625 0)"/>
     <use xlink:href="#DejaVuSans-3e3" transform="translate(5804.875 0)"/>
     <use xlink:href="#DejaVuSans-3" transform="translate(5865.03125 0)"/>
     <use xlink:href="#DejaVuSans-3ce" transform="translate(5896.8125 0)"/>
     <use xlink:href="#DejaVuSans-3" transform="translate(5957.21875 0)"/>
     <use xlink:href="#DejaVuSans-59" transform="translate(5989 0)"/>
     <use xlink:href="#DejaVuSans-44" transform="translate(6048.1875 0)"/>
     <use xlink:href="#DejaVuSans-4f" transform="translate(6109.46875 0)"/>
     <use xlink:href="#DejaVuSans-4c" transform="translate(6137.25 0)"/>
     <use xlink:href="#DejaVuSans-47" transform="translate(6165.03125 0)"/>
     <use xlink:href="#DejaVuSans-44" transform="translate(6228.515625 0)"/>
     <use xlink:href="#DejaVuSans-57" transform="translate(6289.796875 0)"/>
     <use xlink:href="#DejaVuSans-4c" transform="translate(6329 0)"/>
     <use xlink:href="#DejaVuSans-52" transform="translate(6356.78125 0)"/>
     <use xlink:href="#DejaVuSans-51" transform="translate(6417.96875 0)"/>
     <use xlink:href="#DejaVuSans-3" transform="translate(6481.34375 0)"/>
     <use xlink:href="#DejaVuSans-49" transform="translate(6513.125 0)"/>
     <use xlink:href="#DejaVuSans-52" transform="translate(6548.328125 0)"/>
     <use xlink:href="#DejaVuSans-4f" transform="translate(6609.515625 0)"/>
     <use xlink:href="#DejaVuSans-47" transform="translate(6637.296875 0)"/>
     <use xlink:href="#DejaVuSans-11" transform="translate(6700.78125 0)"/>
    </g>
   </g>
   <g id="text_8">
    <!-- Fold-safe preprocessing внутри Pipeline -->
    <g transform="translate(7.2 16.318125) scale(0.12 -0.12)">
     <defs>
      <path id="DejaVuSans-Bold-29" d="M 588 4666 
L 3834 4666 
L 3834 3756 
L 1791 3756 
L 1791 2888 
L 3713 2888 
L 3713 1978 
L 1791 1978 
L 1791 0 
L 588 0 
L 588 4666 
z
" transform="scale(0.015625)"/>
      <path id="DejaVuSans-Bold-52" d="M 2203 2784 
Q 1831 2784 1636 2517 
Q 1441 2250 1441 1747 
Q 1441 1244 1636 976 
Q 1831 709 2203 709 
Q 2569 709 2762 976 
Q 2956 1244 2956 1747 
Q 2956 2250 2762 2517 
Q 2569 2784 2203 2784 
z
M 2203 3584 
Q 3106 3584 3614 3096 
Q 4122 2609 4122 1747 
Q 4122 884 3614 396 
Q 3106 -91 2203 -91 
Q 1297 -91 786 396 
Q 275 884 275 1747 
Q 275 2609 786 3096 
Q 1297 3584 2203 3584 
z
" transform="scale(0.015625)"/>
      <path id="DejaVuSans-Bold-47" d="M 2919 2988 
L 2919 4863 
L 4044 4863 
L 4044 0 
L 2919 0 
L 2919 506 
Q 2688 197 2409 53 
Q 2131 -91 1766 -91 
Q 1119 -91 703 423 
Q 288 938 288 1747 
Q 288 2556 703 3070 
Q 1119 3584 1766 3584 
Q 2128 3584 2408 3439 
Q 2688 3294 2919 2988 
z
M 2181 722 
Q 2541 722 2730 984 
Q 2919 1247 2919 1747 
Q 2919 2247 2730 2509 
Q 2541 2772 2181 2772 
Q 1825 2772 1636 2509 
Q 1447 2247 1447 1747 
Q 1447 1247 1636 984 
Q 1825 722 2181 722 
z
" transform="scale(0.015625)"/>
      <path id="DejaVuSans-Bold-10" d="M 347 2297 
L 2309 2297 
L 2309 1388 
L 347 1388 
L 347 2297 
z
" transform="scale(0.015625)"/>
      <path id="DejaVuSans-Bold-49" d="M 2841 4863 
L 2841 4128 
L 2222 4128 
Q 1984 4128 1890 4042 
Q 1797 3956 1797 3744 
L 1797 3500 
L 2753 3500 
L 2753 2700 
L 1797 2700 
L 1797 0 
L 678 0 
L 678 2700 
L 122 2700 
L 122 3500 
L 678 3500 
L 678 3744 
Q 678 4316 997 4589 
Q 1316 4863 1984 4863 
L 2841 4863 
z
" transform="scale(0.015625)"/>
      <path id="DejaVuSans-Bold-46" d="M 3366 3391 
L 3366 2478 
Q 3138 2634 2908 2709 
Q 2678 2784 2431 2784 
Q 1963 2784 1702 2511 
Q 1441 2238 1441 1747 
Q 1441 1256 1702 982 
Q 1963 709 2431 709 
Q 2694 709 2930 787 
Q 3166 866 3366 1019 
L 3366 103 
Q 3103 6 2833 -42 
Q 2563 -91 2291 -91 
Q 1344 -91 809 395 
Q 275 881 275 1747 
Q 275 2613 809 3098 
Q 1344 3584 2291 3584 
Q 2566 3584 2833 3536 
Q 3100 3488 3366 3391 
z
" transform="scale(0.015625)"/>
      <path id="DejaVuSans-Bold-4a" d="M 2919 594 
Q 2688 288 2409 144 
Q 2131 0 1766 0 
Q 1125 0 706 504 
Q 288 1009 288 1791 
Q 288 2575 706 3076 
Q 1125 3578 1766 3578 
Q 2131 3578 2409 3434 
Q 2688 3291 2919 2981 
L 2919 3500 
L 4044 3500 
L 4044 353 
Q 4044 -491 3511 -936 
Q 2978 -1381 1966 -1381 
Q 1638 -1381 1331 -1331 
Q 1025 -1281 716 -1178 
L 716 -306 
Q 1009 -475 1290 -558 
Q 1572 -641 1856 -641 
Q 2406 -641 2662 -400 
Q 2919 -159 2919 353 
L 2919 594 
z
M 2181 2772 
Q 1834 2772 1640 2515 
Q 1447 2259 1447 1791 
Q 1447 1309 1634 1061 
Q 1822 813 2181 813 
Q 2531 813 2725 1069 
Q 2919 1325 2919 1791 
Q 2919 2259 2725 2515 
Q 2531 2772 2181 2772 
z
" transform="scale(0.015625)"/>
      <path id="DejaVuSans-Bold-3c6" d="M 2184 2181 
Q 2378 2181 2478 2261 
Q 2578 2341 2578 2497 
Q 2578 2653 2478 2731 
Q 2378 2809 2184 2809 
L 1656 2809 
L 1656 2181 
L 2184 2181 
z
M 2222 700 
Q 2469 700 2594 798 
Q 2719 897 2719 1094 
Q 2719 1288 2594 1384 
Q 2469 1481 2222 1481 
L 1656 1481 
L 1656 700 
L 2222 700 
z
M 538 3500 
L 2141 3500 
Q 2919 3500 3267 3279 
Q 3616 3059 3616 2575 
Q 3616 2319 3487 2139 
Q 3359 1959 3119 1872 
Q 3428 1788 3598 1561 
Q 3769 1334 3769 1003 
Q 3769 497 3403 248 
Q 3038 0 2294 0 
L 538 0 
L 538 3500 
z
" transform="scale(0.015625)"/>
      <path id="DejaVuSans-Bold-3d7" d="M 78 3500 
L 1197 3500 
L 2138 1125 
L 2938 3500 
L 4056 3500 
L 2584 -331 
Q 2363 -916 2067 -1148 
Q 1772 -1381 1288 -1381 
L 641 -1381 
L 641 -647 
L 991 -647 
Q 1275 -647 1404 -556 
Q 1534 -466 1606 -231 
L 1638 -134 
L 78 3500 
z
" transform="scale(0.015625)"/>
      <path id="DejaVuSans-Bold-3d6" d="M 25 3500 
L 3681 3500 
L 3681 2809 
L 2413 2809 
L 2413 0 
L 1297 0 
L 1297 2809 
L 25 2809 
L 25 3500 
z
" transform="scale(0.015625)"/>
      <path id="DejaVuSans-Bold-3d4" d="M 1656 506 
L 1656 -1331 
L 538 -1331 
L 538 3500 
L 1656 3500 
L 1656 2988 
Q 1888 3294 2169 3439 
Q 2450 3584 2816 3584 
Q 3463 3584 3878 3070 
Q 4294 2556 4294 1747 
Q 4294 938 3878 423 
Q 3463 -91 2816 -91 
Q 2450 -91 2169 54 
Q 1888 200 1656 506 
z
M 2400 2772 
Q 2041 2772 1848 2508 
Q 1656 2244 1656 1747 
Q 1656 1250 1848 986 
Q 2041 722 2400 722 
Q 2759 722 2948 984 
Q 3138 1247 3138 1747 
Q 3138 2247 2948 2509 
Q 2759 2772 2400 2772 
z
" transform="scale(0.015625)"/>
     </defs>
     <use xlink:href="#DejaVuSans-Bold-29"/>
     <use xlink:href="#DejaVuSans-Bold-52" transform="translate(64.265625 0)"/>
     <use xlink:href="#DejaVuSans-Bold-4f" transform="translate(132.96875 0)"/>
     <use xlink:href="#DejaVuSans-Bold-47" transform="translate(167.25 0)"/>
     <use xlink:href="#DejaVuSans-Bold-10" transform="translate(238.828125 0)"/>
     <use xlink:href="#DejaVuSans-Bold-56" transform="translate(280.328125 0)"/>
     <use xlink:href="#DejaVuSans-Bold-44" transform="translate(339.84375 0)"/>
     <use xlink:href="#DejaVuSans-Bold-49" transform="translate(407.328125 0)"/>
     <use xlink:href="#DejaVuSans-Bold-48" transform="translate(450.828125 0)"/>
     <use xlink:href="#DejaVuSans-Bold-3" transform="translate(518.65625 0)"/>
     <use xlink:href="#DejaVuSans-Bold-53" transform="translate(553.46875 0)"/>
     <use xlink:href="#DejaVuSans-Bold-55" transform="translate(625.046875 0)"/>
     <use xlink:href="#DejaVuSans-Bold-48" transform="translate(674.359375 0)"/>
     <use xlink:href="#DejaVuSans-Bold-53" transform="translate(742.1875 0)"/>
     <use xlink:href="#DejaVuSans-Bold-55" transform="translate(813.765625 0)"/>
     <use xlink:href="#DejaVuSans-Bold-52" transform="translate(863.078125 0)"/>
     <use xlink:href="#DejaVuSans-Bold-46" transform="translate(931.78125 0)"/>
     <use xlink:href="#DejaVuSans-Bold-48" transform="translate(991.0625 0)"/>
     <use xlink:href="#DejaVuSans-Bold-56" transform="translate(1058.890625 0)"/>
     <use xlink:href="#DejaVuSans-Bold-56" transform="translate(1118.40625 0)"/>
     <use xlink:href="#DejaVuSans-Bold-4c" transform="translate(1177.921875 0)"/>
     <use xlink:href="#DejaVuSans-Bold-51" transform="translate(1212.203125 0)"/>
     <use xlink:href="#DejaVuSans-Bold-4a" transform="translate(1283.390625 0)"/>
     <use xlink:href="#DejaVuSans-Bold-3" transform="translate(1354.96875 0)"/>
     <use xlink:href="#DejaVuSans-Bold-3c6" transform="translate(1389.78125 0)"/>
     <use xlink:href="#DejaVuSans-Bold-3d1" transform="translate(1453.0625 0)"/>
     <use xlink:href="#DejaVuSans-Bold-3d7" transform="translate(1522.15625 0)"/>
     <use xlink:href="#DejaVuSans-Bold-3d6" transform="translate(1587.34375 0)"/>
     <use xlink:href="#DejaVuSans-Bold-3d4" transform="translate(1645.296875 0)"/>
     <use xlink:href="#DejaVuSans-Bold-3cc" transform="translate(1716.875 0)"/>
     <use xlink:href="#DejaVuSans-Bold-3" transform="translate(1786.9375 0)"/>
     <use xlink:href="#DejaVuSans-Bold-33" transform="translate(1821.75 0)"/>
     <use xlink:href="#DejaVuSans-Bold-4c" transform="translate(1895.046875 0)"/>
     <use xlink:href="#DejaVuSans-Bold-53" transform="translate(1929.328125 0)"/>
     <use xlink:href="#DejaVuSans-Bold-48" transform="translate(2000.90625 0)"/>
     <use xlink:href="#DejaVuSans-Bold-4f" transform="translate(2068.734375 0)"/>
     <use xlink:href="#DejaVuSans-Bold-4c" transform="translate(2103.015625 0)"/>
     <use xlink:href="#DejaVuSans-Bold-51" transform="translate(2137.296875 0)"/>
     <use xlink:href="#DejaVuSans-Bold-48" transform="translate(2208.484375 0)"/>
    </g>
   </g>
  </g>
 </g>
 <defs>
  <clipPath id="p5f2584742a">
   <rect x="7.2" y="29.318125" width="669.6" height="288.288"/>
  </clipPath>
 </defs>
</svg>
