<?xml version="1.0" encoding="utf-8" standalone="no"?>
<!DOCTYPE svg PUBLIC "-//W3C//DTD SVG 1.1//EN"
  "http://www.w3.org/Graphics/SVG/1.1/DTD/svg11.dtd">
<svg xmlns:xlink="http://www.w3.org/1999/xlink" width="764.39952pt" height="426.009744pt" viewBox="0 0 764.39952 426.009744" xmlns="http://www.w3.org/2000/svg" version="1.1">
 <metadata>
  <rdf:RDF xmlns:dc="http://purl.org/dc/elements/1.1/" xmlns:cc="http://creativecommons.org/ns#" xmlns:rdf="http://www.w3.org/1999/02/22-rdf-syntax-ns#">
   <cc:Work>
    <dc:type rdf:resource="http://purl.org/dc/dcmitype/StillImage"/>
    <dc:format>image/svg+xml</dc:format>
    <dc:creator>
     <cc:Agent>
      <dc:title>Matplotlib v3.11.1, https://matplotlib.org/</dc:title>
     </cc:Agent>
    </dc:creator>
   </cc:Work>
  </rdf:RDF>
 </metadata>
 <defs>
  <style type="text/css">*{stroke-linejoin: round; stroke-linecap: butt}</style>
 </defs>
 <g id="figure_1">
  <g id="patch_1">
   <path d="M 0 426.009744 
L 764.39952 426.009744 
L 764.39952 -0 
L 0 -0 
z
" style="fill: #ffffff"/>
  </g>
  <g id="axes_1">
   <g id="patch_2">
    <path d="M 44.103906 346.981657 
L 757.19952 346.981657 
L 757.19952 30.318125 
L 44.103906 30.318125 
z
" style="fill: #ffffff"/>
   </g>
   <g id="matplotlib.axis_1">
    <g id="xtick_1">
     <g id="line2d_1">
      <defs>
       <path id="m2f3386fa34" d="M 0 0 
L 0 3.5 
" style="stroke: #000000; stroke-width: 0.8"/>
      </defs>
      <g>
       <use xlink:href="#m2f3386fa34" x="136.411738" y="346.981657" style="stroke: #000000; stroke-width: 0.8"/>
      </g>
     </g>
     <g id="text_1">
      <!-- Dummy prior -->
      <g transform="translate(103.370331 362.581071) scale(0.1 -0.1)">
       <defs>
        <path id="DejaVuSans-27" d="M 1259 4147 
L 1259 519 
L 2022 519 
Q 2988 519 3436 956 
Q 3884 1394 3884 2338 
Q 3884 3275 3436 3711 
Q 2988 4147 2022 4147 
L 1259 4147 
z
M 628 4666 
L 1925 4666 
Q 3281 4666 3915 4102 
Q 4550 3538 4550 2338 
Q 4550 1131 3912 565 
Q 3275 0 1925 0 
L 628 0 
L 628 4666 
z
" transform="scale(0.015625)"/>
        <path id="DejaVuSans-58" d="M 544 1381 
L 544 3500 
L 1119 3500 
L 1119 1403 
Q 1119 906 1312 657 
Q 1506 409 1894 409 
Q 2359 409 2629 706 
Q 2900 1003 2900 1516 
L 2900 3500 
L 3475 3500 
L 3475 0 
L 2900 0 
L 2900 538 
Q 2691 219 2414 64 
Q 2138 -91 1772 -91 
Q 1169 -91 856 284 
Q 544 659 544 1381 
z
M 1991 3584 
L 1991 3584 
z
" transform="scale(0.015625)"/>
        <path id="DejaVuSans-50" d="M 3328 2828 
Q 3544 3216 3844 3400 
Q 4144 3584 4550 3584 
Q 5097 3584 5394 3201 
Q 5691 2819 5691 2113 
L 5691 0 
L 5113 0 
L 5113 2094 
Q 5113 2597 4934 2840 
Q 4756 3084 4391 3084 
Q 3944 3084 3684 2787 
Q 3425 2491 3425 1978 
L 3425 0 
L 2847 0 
L 2847 2094 
Q 2847 2600 2669 2842 
Q 2491 3084 2119 3084 
Q 1678 3084 1418 2786 
Q 1159 2488 1159 1978 
L 1159 0 
L 581 0 
L 581 3500 
L 1159 3500 
L 1159 2956 
Q 1356 3278 1631 3431 
Q 1906 3584 2284 3584 
Q 2666 3584 2933 3390 
Q 3200 3197 3328 2828 
z
" transform="scale(0.015625)"/>
        <path id="DejaVuSans-5c" d="M 2059 -325 
Q 1816 -950 1584 -1140 
Q 1353 -1331 966 -1331 
L 506 -1331 
L 506 -850 
L 844 -850 
Q 1081 -850 1212 -737 
Q 1344 -625 1503 -206 
L 1606 56 
L 191 3500 
L 800 3500 
L 1894 763 
L 2988 3500 
L 3597 3500 
L 2059 -325 
z
" transform="scale(0.015625)"/>
        <path id="DejaVuSans-3" transform="scale(0.015625)"/>
        <path id="DejaVuSans-53" d="M 1159 525 
L 1159 -1331 
L 581 -1331 
L 581 3500 
L 1159 3500 
L 1159 2969 
Q 1341 3281 1617 3432 
Q 1894 3584 2278 3584 
Q 2916 3584 3314 3078 
Q 3713 2572 3713 1747 
Q 3713 922 3314 415 
Q 2916 -91 2278 -91 
Q 1894 -91 1617 61 
Q 1341 213 1159 525 
z
M 3116 1747 
Q 3116 2381 2855 2742 
Q 2594 3103 2138 3103 
Q 1681 3103 1420 2742 
Q 1159 2381 1159 1747 
Q 1159 1113 1420 752 
Q 1681 391 2138 391 
Q 2594 391 2855 752 
Q 3116 1113 3116 1747 
z
" transform="scale(0.015625)"/>
        <path id="DejaVuSans-55" d="M 2631 2963 
Q 2534 3019 2420 3045 
Q 2306 3072 2169 3072 
Q 1681 3072 1420 2755 
Q 1159 2438 1159 1844 
L 1159 0 
L 581 0 
L 581 3500 
L 1159 3500 
L 1159 2956 
Q 1341 3275 1631 3429 
Q 1922 3584 2338 3584 
Q 2397 3584 2469 3576 
Q 2541 3569 2628 3553 
L 2631 2963 
z
" transform="scale(0.015625)"/>
        <path id="DejaVuSans-4c" d="M 603 3500 
L 1178 3500 
L 1178 0 
L 603 0 
L 603 3500 
z
M 603 4863 
L 1178 4863 
L 1178 4134 
L 603 4134 
L 603 4863 
z
" transform="scale(0.015625)"/>
        <path id="DejaVuSans-52" d="M 1959 3097 
Q 1497 3097 1228 2736 
Q 959 2375 959 1747 
Q 959 1119 1226 758 
Q 1494 397 1959 397 
Q 2419 397 2687 759 
Q 2956 1122 2956 1747 
Q 2956 2369 2687 2733 
Q 2419 3097 1959 3097 
z
M 1959 3584 
Q 2709 3584 3137 3096 
Q 3566 2609 3566 1747 
Q 3566 888 3137 398 
Q 2709 -91 1959 -91 
Q 1206 -91 779 398 
Q 353 888 353 1747 
Q 353 2609 779 3096 
Q 1206 3584 1959 3584 
z
" transform="scale(0.015625)"/>
       </defs>
       <use xlink:href="#DejaVuSans-27"/>
       <use xlink:href="#DejaVuSans-58" transform="translate(77 0)"/>
       <use xlink:href="#DejaVuSans-50" transform="translate(140.375 0)"/>
       <use xlink:href="#DejaVuSans-50" transform="translate(237.78125 0)"/>
       <use xlink:href="#DejaVuSans-5c" transform="translate(335.1875 0)"/>
       <use xlink:href="#DejaVuSans-3" transform="translate(394.375 0)"/>
       <use xlink:href="#DejaVuSans-53" transform="translate(426.15625 0)"/>
       <use xlink:href="#DejaVuSans-55" transform="translate(489.640625 0)"/>
       <use xlink:href="#DejaVuSans-4c" transform="translate(530.75 0)"/>
       <use xlink:href="#DejaVuSans-52" transform="translate(558.53125 0)"/>
       <use xlink:href="#DejaVuSans-55" transform="translate(619.71875 0)"/>
      </g>
      <!-- (train CV) -->
      <g transform="translate(112.371894 374.583806) scale(0.1 -0.1)">
       <defs>
        <path id="DejaVuSans-b" d="M 1984 4856 
Q 1566 4138 1362 3434 
Q 1159 2731 1159 2009 
Q 1159 1288 1364 580 
Q 1569 -128 1984 -844 
L 1484 -844 
Q 1016 -109 783 600 
Q 550 1309 550 2009 
Q 550 2706 781 3412 
Q 1013 4119 1484 4856 
L 1984 4856 
z
" transform="scale(0.015625)"/>
        <path id="DejaVuSans-57" d="M 1172 4494 
L 1172 3500 
L 2356 3500 
L 2356 3053 
L 1172 3053 
L 1172 1153 
Q 1172 725 1289 603 
Q 1406 481 1766 481 
L 2356 481 
L 2356 0 
L 1766 0 
Q 1100 0 847 248 
Q 594 497 594 1153 
L 594 3053 
L 172 3053 
L 172 3500 
L 594 3500 
L 594 4494 
L 1172 4494 
z
" transform="scale(0.015625)"/>
        <path id="DejaVuSans-44" d="M 2194 1759 
Q 1497 1759 1228 1600 
Q 959 1441 959 1056 
Q 959 750 1161 570 
Q 1363 391 1709 391 
Q 2188 391 2477 730 
Q 2766 1069 2766 1631 
L 2766 1759 
L 2194 1759 
z
M 3341 1997 
L 3341 0 
L 2766 0 
L 2766 531 
Q 2569 213 2275 61 
Q 1981 -91 1556 -91 
Q 1019 -91 701 211 
Q 384 513 384 1019 
Q 384 1609 779 1909 
Q 1175 2209 1959 2209 
L 2766 2209 
L 2766 2266 
Q 2766 2663 2505 2880 
Q 2244 3097 1772 3097 
Q 1472 3097 1187 3025 
Q 903 2953 641 2809 
L 641 3341 
Q 956 3463 1253 3523 
Q 1550 3584 1831 3584 
Q 2591 3584 2966 3190 
Q 3341 2797 3341 1997 
z
" transform="scale(0.015625)"/>
        <path id="DejaVuSans-51" d="M 3513 2113 
L 3513 0 
L 2938 0 
L 2938 2094 
Q 2938 2591 2744 2837 
Q 2550 3084 2163 3084 
Q 1697 3084 1428 2787 
Q 1159 2491 1159 1978 
L 1159 0 
L 581 0 
L 581 3500 
L 1159 3500 
L 1159 2956 
Q 1366 3272 1645 3428 
Q 1925 3584 2291 3584 
Q 2894 3584 3203 3211 
Q 3513 2838 3513 2113 
z
" transform="scale(0.015625)"/>
        <path id="DejaVuSans-26" d="M 4122 4306 
L 4122 3641 
Q 3803 3938 3442 4084 
Q 3081 4231 2675 4231 
Q 1875 4231 1450 3742 
Q 1025 3253 1025 2328 
Q 1025 1406 1450 917 
Q 1875 428 2675 428 
Q 3081 428 3442 575 
Q 3803 722 4122 1019 
L 4122 359 
Q 3791 134 3420 21 
Q 3050 -91 2638 -91 
Q 1578 -91 968 557 
Q 359 1206 359 2328 
Q 359 3453 968 4101 
Q 1578 4750 2638 4750 
Q 3056 4750 3426 4639 
Q 3797 4528 4122 4306 
z
" transform="scale(0.015625)"/>
        <path id="DejaVuSans-39" d="M 1831 0 
L 50 4666 
L 709 4666 
L 2188 738 
L 3669 4666 
L 4325 4666 
L 2547 0 
L 1831 0 
z
" transform="scale(0.015625)"/>
        <path id="DejaVuSans-c" d="M 513 4856 
L 1013 4856 
Q 1481 4119 1714 3412 
Q 1947 2706 1947 2009 
Q 1947 1309 1714 600 
Q 1481 -109 1013 -844 
L 513 -844 
Q 928 -128 1133 580 
Q 1338 1288 1338 2009 
Q 1338 2731 1133 3434 
Q 928 4138 513 4856 
z
" transform="scale(0.015625)"/>
       </defs>
       <use xlink:href="#DejaVuSans-b"/>
       <use xlink:href="#DejaVuSans-57" transform="translate(39.015625 0)"/>
       <use xlink:href="#DejaVuSans-55" transform="translate(78.21875 0)"/>
       <use xlink:href="#DejaVuSans-44" transform="translate(119.328125 0)"/>
       <use xlink:href="#DejaVuSans-4c" transform="translate(180.609375 0)"/>
       <use xlink:href="#DejaVuSans-51" transform="translate(208.390625 0)"/>
       <use xlink:href="#DejaVuSans-3" transform="translate(271.765625 0)"/>
       <use xlink:href="#DejaVuSans-26" transform="translate(303.546875 0)"/>
       <use xlink:href="#DejaVuSans-39" transform="translate(373.375 0)"/>
       <use xlink:href="#DejaVuSans-c" transform="translate(441.78125 0)"/>
      </g>
     </g>
    </g>
    <g id="xtick_2">
     <g id="line2d_2">
      <g>
       <use xlink:href="#m2f3386fa34" x="312.571721" y="346.981657" style="stroke: #000000; stroke-width: 0.8"/>
      </g>
     </g>
     <g id="text_2">
      <!-- Logistic regression -->
      <g transform="translate(265.913909 362.581071) scale(0.1 -0.1)">
       <defs>
        <path id="DejaVuSans-2f" d="M 628 4666 
L 1259 4666 
L 1259 531 
L 3531 531 
L 3531 0 
L 628 0 
L 628 4666 
z
" transform="scale(0.015625)"/>
        <path id="DejaVuSans-4a" d="M 2906 1791 
Q 2906 2416 2648 2759 
Q 2391 3103 1925 3103 
Q 1463 3103 1205 2759 
Q 947 2416 947 1791 
Q 947 1169 1205 825 
Q 1463 481 1925 481 
Q 2391 481 2648 825 
Q 2906 1169 2906 1791 
z
M 3481 434 
Q 3481 -459 3084 -895 
Q 2688 -1331 1869 -1331 
Q 1566 -1331 1297 -1286 
Q 1028 -1241 775 -1147 
L 775 -588 
Q 1028 -725 1275 -790 
Q 1522 -856 1778 -856 
Q 2344 -856 2625 -561 
Q 2906 -266 2906 331 
L 2906 616 
Q 2728 306 2450 153 
Q 2172 0 1784 0 
Q 1141 0 747 490 
Q 353 981 353 1791 
Q 353 2603 747 3093 
Q 1141 3584 1784 3584 
Q 2172 3584 2450 3431 
Q 2728 3278 2906 2969 
L 2906 3500 
L 3481 3500 
L 3481 434 
z
" transform="scale(0.015625)"/>
        <path id="DejaVuSans-56" d="M 2834 3397 
L 2834 2853 
Q 2591 2978 2328 3040 
Q 2066 3103 1784 3103 
Q 1356 3103 1142 2972 
Q 928 2841 928 2578 
Q 928 2378 1081 2264 
Q 1234 2150 1697 2047 
L 1894 2003 
Q 2506 1872 2764 1633 
Q 3022 1394 3022 966 
Q 3022 478 2636 193 
Q 2250 -91 1575 -91 
Q 1294 -91 989 -36 
Q 684 19 347 128 
L 347 722 
Q 666 556 975 473 
Q 1284 391 1588 391 
Q 1994 391 2212 530 
Q 2431 669 2431 922 
Q 2431 1156 2273 1281 
Q 2116 1406 1581 1522 
L 1381 1569 
Q 847 1681 609 1914 
Q 372 2147 372 2553 
Q 372 3047 722 3315 
Q 1072 3584 1716 3584 
Q 2034 3584 2315 3537 
Q 2597 3491 2834 3397 
z
" transform="scale(0.015625)"/>
        <path id="DejaVuSans-46" d="M 3122 3366 
L 3122 2828 
Q 2878 2963 2633 3030 
Q 2388 3097 2138 3097 
Q 1578 3097 1268 2742 
Q 959 2388 959 1747 
Q 959 1106 1268 751 
Q 1578 397 2138 397 
Q 2388 397 2633 464 
Q 2878 531 3122 666 
L 3122 134 
Q 2881 22 2623 -34 
Q 2366 -91 2075 -91 
Q 1284 -91 818 406 
Q 353 903 353 1747 
Q 353 2603 823 3093 
Q 1294 3584 2113 3584 
Q 2378 3584 2631 3529 
Q 2884 3475 3122 3366 
z
" transform="scale(0.015625)"/>
        <path id="DejaVuSans-48" d="M 3597 1894 
L 3597 1613 
L 953 1613 
Q 991 1019 1311 708 
Q 1631 397 2203 397 
Q 2534 397 2845 478 
Q 3156 559 3463 722 
L 3463 178 
Q 3153 47 2828 -22 
Q 2503 -91 2169 -91 
Q 1331 -91 842 396 
Q 353 884 353 1716 
Q 353 2575 817 3079 
Q 1281 3584 2069 3584 
Q 2775 3584 3186 3129 
Q 3597 2675 3597 1894 
z
M 3022 2063 
Q 3016 2534 2758 2815 
Q 2500 3097 2075 3097 
Q 1594 3097 1305 2825 
Q 1016 2553 972 2059 
L 3022 2063 
z
" transform="scale(0.015625)"/>
       </defs>
       <use xlink:href="#DejaVuSans-2f"/>
       <use xlink:href="#DejaVuSans-52" transform="translate(53.96875 0)"/>
       <use xlink:href="#DejaVuSans-4a" transform="translate(115.15625 0)"/>
       <use xlink:href="#DejaVuSans-4c" transform="translate(178.640625 0)"/>
       <use xlink:href="#DejaVuSans-56" transform="translate(206.421875 0)"/>
       <use xlink:href="#DejaVuSans-57" transform="translate(258.515625 0)"/>
       <use xlink:href="#DejaVuSans-4c" transform="translate(297.71875 0)"/>
       <use xlink:href="#DejaVuSans-46" transform="translate(325.5 0)"/>
       <use xlink:href="#DejaVuSans-3" transform="translate(380.484375 0)"/>
       <use xlink:href="#DejaVuSans-55" transform="translate(412.265625 0)"/>
       <use xlink:href="#DejaVuSans-48" transform="translate(451.171875 0)"/>
       <use xlink:href="#DejaVuSans-4a" transform="translate(512.703125 0)"/>
       <use xlink:href="#DejaVuSans-55" transform="translate(576.1875 0)"/>
       <use xlink:href="#DejaVuSans-48" transform="translate(615.09375 0)"/>
       <use xlink:href="#DejaVuSans-56" transform="translate(676.625 0)"/>
       <use xlink:href="#DejaVuSans-56" transform="translate(728.71875 0)"/>
       <use xlink:href="#DejaVuSans-4c" transform="translate(780.8125 0)"/>
       <use xlink:href="#DejaVuSans-52" transform="translate(808.59375 0)"/>
       <use xlink:href="#DejaVuSans-51" transform="translate(869.78125 0)"/>
      </g>
      <!-- (train CV) -->
      <g transform="translate(288.531878 374.583806) scale(0.1 -0.1)">
       <use xlink:href="#DejaVuSans-b"/>
       <use xlink:href="#DejaVuSans-57" transform="translate(39.015625 0)"/>
       <use xlink:href="#DejaVuSans-55" transform="translate(78.21875 0)"/>
       <use xlink:href="#DejaVuSans-44" transform="translate(119.328125 0)"/>
       <use xlink:href="#DejaVuSans-4c" transform="translate(180.609375 0)"/>
       <use xlink:href="#DejaVuSans-51" transform="translate(208.390625 0)"/>
       <use xlink:href="#DejaVuSans-3" transform="translate(271.765625 0)"/>
       <use xlink:href="#DejaVuSans-26" transform="translate(303.546875 0)"/>
       <use xlink:href="#DejaVuSans-39" transform="translate(373.375 0)"/>
       <use xlink:href="#DejaVuSans-c" transform="translate(441.78125 0)"/>
      </g>
     </g>
    </g>
    <g id="xtick_3">
     <g id="line2d_3">
      <g>
       <use xlink:href="#m2f3386fa34" x="488.731705" y="346.981657" style="stroke: #000000; stroke-width: 0.8"/>
      </g>
     </g>
     <g id="text_3">
      <!-- Random forest -->
      <g transform="translate(452.035611 362.581071) scale(0.1 -0.1)">
       <defs>
        <path id="DejaVuSans-35" d="M 2841 2188 
Q 3044 2119 3236 1894 
Q 3428 1669 3622 1275 
L 4263 0 
L 3584 0 
L 2988 1197 
Q 2756 1666 2539 1819 
Q 2322 1972 1947 1972 
L 1259 1972 
L 1259 0 
L 628 0 
L 628 4666 
L 2053 4666 
Q 2853 4666 3247 4331 
Q 3641 3997 3641 3322 
Q 3641 2881 3436 2590 
Q 3231 2300 2841 2188 
z
M 1259 4147 
L 1259 2491 
L 2053 2491 
Q 2509 2491 2742 2702 
Q 2975 2913 2975 3322 
Q 2975 3731 2742 3939 
Q 2509 4147 2053 4147 
L 1259 4147 
z
" transform="scale(0.015625)"/>
        <path id="DejaVuSans-47" d="M 2906 2969 
L 2906 4863 
L 3481 4863 
L 3481 0 
L 2906 0 
L 2906 525 
Q 2725 213 2448 61 
Q 2172 -91 1784 -91 
Q 1150 -91 751 415 
Q 353 922 353 1747 
Q 353 2572 751 3078 
Q 1150 3584 1784 3584 
Q 2172 3584 2448 3432 
Q 2725 3281 2906 2969 
z
M 947 1747 
Q 947 1113 1208 752 
Q 1469 391 1925 391 
Q 2381 391 2643 752 
Q 2906 1113 2906 1747 
Q 2906 2381 2643 2742 
Q 2381 3103 1925 3103 
Q 1469 3103 1208 2742 
Q 947 2381 947 1747 
z
" transform="scale(0.015625)"/>
        <path id="DejaVuSans-49" d="M 2375 4863 
L 2375 4384 
L 1825 4384 
Q 1516 4384 1395 4259 
Q 1275 4134 1275 3809 
L 1275 3500 
L 2222 3500 
L 2222 3053 
L 1275 3053 
L 1275 0 
L 697 0 
L 697 3053 
L 147 3053 
L 147 3500 
L 697 3500 
L 697 3744 
Q 697 4328 969 4595 
Q 1241 4863 1831 4863 
L 2375 4863 
z
" transform="scale(0.015625)"/>
       </defs>
       <use xlink:href="#DejaVuSans-35"/>
       <use xlink:href="#DejaVuSans-44" transform="translate(67.28125 0)"/>
       <use xlink:href="#DejaVuSans-51" transform="translate(128.5625 0)"/>
       <use xlink:href="#DejaVuSans-47" transform="translate(191.9375 0)"/>
       <use xlink:href="#DejaVuSans-52" transform="translate(255.421875 0)"/>
       <use xlink:href="#DejaVuSans-50" transform="translate(316.609375 0)"/>
       <use xlink:href="#DejaVuSans-3" transform="translate(414.015625 0)"/>
       <use xlink:href="#DejaVuSans-49" transform="translate(445.796875 0)"/>
       <use xlink:href="#DejaVuSans-52" transform="translate(481 0)"/>
       <use xlink:href="#DejaVuSans-55" transform="translate(542.1875 0)"/>
       <use xlink:href="#DejaVuSans-48" transform="translate(581.09375 0)"/>
       <use xlink:href="#DejaVuSans-56" transform="translate(642.625 0)"/>
       <use xlink:href="#DejaVuSans-57" transform="translate(694.71875 0)"/>
      </g>
      <!-- (train CV) -->
      <g transform="translate(464.691861 374.583806) scale(0.1 -0.1)">
       <use xlink:href="#DejaVuSans-b"/>
       <use xlink:href="#DejaVuSans-57" transform="translate(39.015625 0)"/>
       <use xlink:href="#DejaVuSans-55" transform="translate(78.21875 0)"/>
       <use xlink:href="#DejaVuSans-44" transform="translate(119.328125 0)"/>
       <use xlink:href="#DejaVuSans-4c" transform="translate(180.609375 0)"/>
       <use xlink:href="#DejaVuSans-51" transform="translate(208.390625 0)"/>
       <use xlink:href="#DejaVuSans-3" transform="translate(271.765625 0)"/>
       <use xlink:href="#DejaVuSans-26" transform="translate(303.546875 0)"/>
       <use xlink:href="#DejaVuSans-39" transform="translate(373.375 0)"/>
       <use xlink:href="#DejaVuSans-c" transform="translate(441.78125 0)"/>
      </g>
     </g>
    </g>
    <g id="xtick_4">
     <g id="line2d_4">
      <g>
       <use xlink:href="#m2f3386fa34" x="664.891689" y="346.981657" style="stroke: #000000; stroke-width: 0.8"/>
      </g>
     </g>
     <g id="text_4">
      <!-- Random forest -->
      <g transform="translate(628.195595 362.581071) scale(0.1 -0.1)">
       <use xlink:href="#DejaVuSans-35"/>
       <use xlink:href="#DejaVuSans-44" transform="translate(67.28125 0)"/>
       <use xlink:href="#DejaVuSans-51" transform="translate(128.5625 0)"/>
       <use xlink:href="#DejaVuSans-47" transform="translate(191.9375 0)"/>
       <use xlink:href="#DejaVuSans-52" transform="translate(255.421875 0)"/>
       <use xlink:href="#DejaVuSans-50" transform="translate(316.609375 0)"/>
       <use xlink:href="#DejaVuSans-3" transform="translate(414.015625 0)"/>
       <use xlink:href="#DejaVuSans-49" transform="translate(445.796875 0)"/>
       <use xlink:href="#DejaVuSans-52" transform="translate(481 0)"/>
       <use xlink:href="#DejaVuSans-55" transform="translate(542.1875 0)"/>
       <use xlink:href="#DejaVuSans-48" transform="translate(581.09375 0)"/>
       <use xlink:href="#DejaVuSans-56" transform="translate(642.625 0)"/>
       <use xlink:href="#DejaVuSans-57" transform="translate(694.71875 0)"/>
      </g>
      <!-- (final holdout) -->
      <g transform="translate(629.650282 374.583806) scale(0.1 -0.1)">
       <defs>
        <path id="DejaVuSans-13af" d="M 3431 3500 
L 3431 0 
L 2853 0 
L 2853 3053 
L 1275 3053 
L 1275 0 
L 697 0 
L 697 3053 
L 147 3053 
L 147 3500 
L 697 3500 
L 697 3744 
Q 697 4316 967 4589 
Q 1238 4863 1797 4863 
L 2375 4863 
L 2375 4384 
L 1825 4384 
Q 1516 4384 1395 4259 
Q 1275 4134 1275 3809 
L 1275 3500 
L 3431 3500 
z
M 2853 4856 
L 3431 4856 
L 3431 4128 
L 2853 4128 
L 2853 4856 
z
" transform="scale(0.015625)"/>
        <path id="DejaVuSans-4f" d="M 603 4863 
L 1178 4863 
L 1178 0 
L 603 0 
L 603 4863 
z
" transform="scale(0.015625)"/>
        <path id="DejaVuSans-4b" d="M 3513 2113 
L 3513 0 
L 2938 0 
L 2938 2094 
Q 2938 2591 2744 2837 
Q 2550 3084 2163 3084 
Q 1697 3084 1428 2787 
Q 1159 2491 1159 1978 
L 1159 0 
L 581 0 
L 581 4863 
L 1159 4863 
L 1159 2956 
Q 1366 3272 1645 3428 
Q 1925 3584 2291 3584 
Q 2894 3584 3203 3211 
Q 3513 2838 3513 2113 
z
" transform="scale(0.015625)"/>
       </defs>
       <use xlink:href="#DejaVuSans-b"/>
       <use xlink:href="#DejaVuSans-13af" transform="translate(39.015625 0)"/>
       <use xlink:href="#DejaVuSans-51" transform="translate(102 0)"/>
       <use xlink:href="#DejaVuSans-44" transform="translate(165.375 0)"/>
       <use xlink:href="#DejaVuSans-4f" transform="translate(226.65625 0)"/>
       <use xlink:href="#DejaVuSans-3" transform="translate(254.4375 0)"/>
       <use xlink:href="#DejaVuSans-4b" transform="translate(286.21875 0)"/>
       <use xlink:href="#DejaVuSans-52" transform="translate(349.59375 0)"/>
       <use xlink:href="#DejaVuSans-4f" transform="translate(410.78125 0)"/>
       <use xlink:href="#DejaVuSans-47" transform="translate(438.5625 0)"/>
       <use xlink:href="#DejaVuSans-52" transform="translate(502.046875 0)"/>
       <use xlink:href="#DejaVuSans-58" transform="translate(563.234375 0)"/>
       <use xlink:href="#DejaVuSans-57" transform="translate(626.609375 0)"/>
       <use xlink:href="#DejaVuSans-c" transform="translate(665.8125 0)"/>
      </g>
     </g>
    </g>
   </g>
   <g id="matplotlib.axis_2">
    <g id="ytick_1">
     <g id="line2d_5">
      <path d="M 44.103906 346.981657 
L 757.19952 346.981657 
" clip-path="url(#pa95cd646c8)" style="fill: none; stroke: #d9d9d9; stroke-width: 0.8; stroke-linecap: square"/>
     </g>
     <g id="line2d_6">
      <defs>
       <path id="mb9ab85f3e7" d="M 0 0 
L -3.5 0 
" style="stroke: #000000; stroke-width: 0.8"/>
      </defs>
      <g>
       <use xlink:href="#mb9ab85f3e7" x="44.103906" y="346.981657" style="stroke: #000000; stroke-width: 0.8"/>
      </g>
     </g>
     <g id="text_5">
      <!-- 0.0 -->
      <g transform="translate(21.200781 350.780485) scale(0.1 -0.1)">
       <defs>
        <path id="DejaVuSans-13" d="M 2034 4250 
Q 1547 4250 1301 3770 
Q 1056 3291 1056 2328 
Q 1056 1369 1301 889 
Q 1547 409 2034 409 
Q 2525 409 2770 889 
Q 3016 1369 3016 2328 
Q 3016 3291 2770 3770 
Q 2525 4250 2034 4250 
z
M 2034 4750 
Q 2819 4750 3233 4129 
Q 3647 3509 3647 2328 
Q 3647 1150 3233 529 
Q 2819 -91 2034 -91 
Q 1250 -91 836 529 
Q 422 1150 422 2328 
Q 422 3509 836 4129 
Q 1250 4750 2034 4750 
z
" transform="scale(0.015625)"/>
        <path id="DejaVuSans-11" d="M 684 794 
L 1344 794 
L 1344 0 
L 684 0 
L 684 794 
z
" transform="scale(0.015625)"/>
       </defs>
       <use xlink:href="#DejaVuSans-13"/>
       <use xlink:href="#DejaVuSans-11" transform="translate(63.625 0)"/>
       <use xlink:href="#DejaVuSans-13" transform="translate(95.40625 0)"/>
      </g>
     </g>
    </g>
    <g id="ytick_2">
     <g id="line2d_7">
      <path d="M 44.103906 278.141759 
L 757.19952 278.141759 
" clip-path="url(#pa95cd646c8)" style="fill: none; stroke: #d9d9d9; stroke-width: 0.8; stroke-linecap: square"/>
     </g>
     <g id="line2d_8">
      <g>
       <use xlink:href="#mb9ab85f3e7" x="44.103906" y="278.141759" style="stroke: #000000; stroke-width: 0.8"/>
      </g>
     </g>
     <g id="text_6">
      <!-- 0.1 -->
      <g transform="translate(21.200781 281.940587) scale(0.1 -0.1)">
       <defs>
        <path id="DejaVuSans-14" d="M 794 531 
L 1825 531 
L 1825 4091 
L 703 3866 
L 703 4441 
L 1819 4666 
L 2450 4666 
L 2450 531 
L 3481 531 
L 3481 0 
L 794 0 
L 794 531 
z
" transform="scale(0.015625)"/>
       </defs>
       <use xlink:href="#DejaVuSans-13"/>
       <use xlink:href="#DejaVuSans-11" transform="translate(63.625 0)"/>
       <use xlink:href="#DejaVuSans-14" transform="translate(95.40625 0)"/>
      </g>
     </g>
    </g>
    <g id="ytick_3">
     <g id="line2d_9">
      <path d="M 44.103906 209.301861 
L 757.19952 209.301861 
" clip-path="url(#pa95cd646c8)" style="fill: none; stroke: #d9d9d9; stroke-width: 0.8; stroke-linecap: square"/>
     </g>
     <g id="line2d_10">
      <g>
       <use xlink:href="#mb9ab85f3e7" x="44.103906" y="209.301861" style="stroke: #000000; stroke-width: 0.8"/>
      </g>
     </g>
     <g id="text_7">
      <!-- 0.2 -->
      <g transform="translate(21.200781 213.100689) scale(0.1 -0.1)">
       <defs>
        <path id="DejaVuSans-15" d="M 1228 531 
L 3431 531 
L 3431 0 
L 469 0 
L 469 531 
Q 828 903 1448 1529 
Q 2069 2156 2228 2338 
Q 2531 2678 2651 2914 
Q 2772 3150 2772 3378 
Q 2772 3750 2511 3984 
Q 2250 4219 1831 4219 
Q 1534 4219 1204 4116 
Q 875 4013 500 3803 
L 500 4441 
Q 881 4594 1212 4672 
Q 1544 4750 1819 4750 
Q 2544 4750 2975 4387 
Q 3406 4025 3406 3419 
Q 3406 3131 3298 2873 
Q 3191 2616 2906 2266 
Q 2828 2175 2409 1742 
Q 1991 1309 1228 531 
z
" transform="scale(0.015625)"/>
       </defs>
       <use xlink:href="#DejaVuSans-13"/>
       <use xlink:href="#DejaVuSans-11" transform="translate(63.625 0)"/>
       <use xlink:href="#DejaVuSans-15" transform="translate(95.40625 0)"/>
      </g>
     </g>
    </g>
    <g id="ytick_4">
     <g id="line2d_11">
      <path d="M 44.103906 140.461962 
L 757.19952 140.461962 
" clip-path="url(#pa95cd646c8)" style="fill: none; stroke: #d9d9d9; stroke-width: 0.8; stroke-linecap: square"/>
     </g>
     <g id="line2d_12">
      <g>
       <use xlink:href="#mb9ab85f3e7" x="44.103906" y="140.461962" style="stroke: #000000; stroke-width: 0.8"/>
      </g>
     </g>
     <g id="text_8">
      <!-- 0.3 -->
      <g transform="translate(21.200781 144.26079) scale(0.1 -0.1)">
       <defs>
        <path id="DejaVuSans-16" d="M 2597 2516 
Q 3050 2419 3304 2112 
Q 3559 1806 3559 1356 
Q 3559 666 3084 287 
Q 2609 -91 1734 -91 
Q 1441 -91 1130 -33 
Q 819 25 488 141 
L 488 750 
Q 750 597 1062 519 
Q 1375 441 1716 441 
Q 2309 441 2620 675 
Q 2931 909 2931 1356 
Q 2931 1769 2642 2001 
Q 2353 2234 1838 2234 
L 1294 2234 
L 1294 2753 
L 1863 2753 
Q 2328 2753 2575 2939 
Q 2822 3125 2822 3475 
Q 2822 3834 2567 4026 
Q 2313 4219 1838 4219 
Q 1578 4219 1281 4162 
Q 984 4106 628 3988 
L 628 4550 
Q 988 4650 1302 4700 
Q 1616 4750 1894 4750 
Q 2613 4750 3031 4423 
Q 3450 4097 3450 3541 
Q 3450 3153 3228 2886 
Q 3006 2619 2597 2516 
z
" transform="scale(0.015625)"/>
       </defs>
       <use xlink:href="#DejaVuSans-13"/>
       <use xlink:href="#DejaVuSans-11" transform="translate(63.625 0)"/>
       <use xlink:href="#DejaVuSans-16" transform="translate(95.40625 0)"/>
      </g>
     </g>
    </g>
    <g id="ytick_5">
     <g id="line2d_13">
      <path d="M 44.103906 71.622064 
L 757.19952 71.622064 
" clip-path="url(#pa95cd646c8)" style="fill: none; stroke: #d9d9d9; stroke-width: 0.8; stroke-linecap: square"/>
     </g>
     <g id="line2d_14">
      <g>
       <use xlink:href="#mb9ab85f3e7" x="44.103906" y="71.622064" style="stroke: #000000; stroke-width: 0.8"/>
      </g>
     </g>
     <g id="text_9">
      <!-- 0.4 -->
      <g transform="translate(21.200781 75.420892) scale(0.1 -0.1)">
       <defs>
        <path id="DejaVuSans-17" d="M 2419 4116 
L 825 1625 
L 2419 1625 
L 2419 4116 
z
M 2253 4666 
L 3047 4666 
L 3047 1625 
L 3713 1625 
L 3713 1100 
L 3047 1100 
L 3047 0 
L 2419 0 
L 2419 1100 
L 313 1100 
L 313 1709 
L 2253 4666 
z
" transform="scale(0.015625)"/>
       </defs>
       <use xlink:href="#DejaVuSans-13"/>
       <use xlink:href="#DejaVuSans-11" transform="translate(63.625 0)"/>
       <use xlink:href="#DejaVuSans-17" transform="translate(95.40625 0)"/>
      </g>
     </g>
    </g>
    <g id="text_10">
     <!-- Average precision (higher is better) -->
     <g transform="translate(14.798438 277.327235) rotate(-90) scale(0.1 -0.1)">
      <defs>
       <path id="DejaVuSans-24" d="M 2188 4044 
L 1331 1722 
L 3047 1722 
L 2188 4044 
z
M 1831 4666 
L 2547 4666 
L 4325 0 
L 3669 0 
L 3244 1197 
L 1141 1197 
L 716 0 
L 50 0 
L 1831 4666 
z
" transform="scale(0.015625)"/>
       <path id="DejaVuSans-59" d="M 191 3500 
L 800 3500 
L 1894 563 
L 2988 3500 
L 3597 3500 
L 2284 0 
L 1503 0 
L 191 3500 
z
" transform="scale(0.015625)"/>
       <path id="DejaVuSans-45" d="M 3116 1747 
Q 3116 2381 2855 2742 
Q 2594 3103 2138 3103 
Q 1681 3103 1420 2742 
Q 1159 2381 1159 1747 
Q 1159 1113 1420 752 
Q 1681 391 2138 391 
Q 2594 391 2855 752 
Q 3116 1113 3116 1747 
z
M 1159 2969 
Q 1341 3281 1617 3432 
Q 1894 3584 2278 3584 
Q 2916 3584 3314 3078 
Q 3713 2572 3713 1747 
Q 3713 922 3314 415 
Q 2916 -91 2278 -91 
Q 1894 -91 1617 61 
Q 1341 213 1159 525 
L 1159 0 
L 581 0 
L 581 4863 
L 1159 4863 
L 1159 2969 
z
" transform="scale(0.015625)"/>
      </defs>
      <use xlink:href="#DejaVuSans-24"/>
      <use xlink:href="#DejaVuSans-59" transform="translate(62.546875 0)"/>
      <use xlink:href="#DejaVuSans-48" transform="translate(121.734375 0)"/>
      <use xlink:href="#DejaVuSans-55" transform="translate(183.265625 0)"/>
      <use xlink:href="#DejaVuSans-44" transform="translate(224.375 0)"/>
      <use xlink:href="#DejaVuSans-4a" transform="translate(285.65625 0)"/>
      <use xlink:href="#DejaVuSans-48" transform="translate(349.140625 0)"/>
      <use xlink:href="#DejaVuSans-3" transform="translate(410.671875 0)"/>
      <use xlink:href="#DejaVuSans-53" transform="translate(442.453125 0)"/>
      <use xlink:href="#DejaVuSans-55" transform="translate(505.9375 0)"/>
      <use xlink:href="#DejaVuSans-48" transform="translate(544.84375 0)"/>
      <use xlink:href="#DejaVuSans-46" transform="translate(606.375 0)"/>
      <use xlink:href="#DejaVuSans-4c" transform="translate(661.359375 0)"/>
      <use xlink:href="#DejaVuSans-56" transform="translate(689.140625 0)"/>
      <use xlink:href="#DejaVuSans-4c" transform="translate(741.234375 0)"/>
      <use xlink:href="#DejaVuSans-52" transform="translate(769.015625 0)"/>
      <use xlink:href="#DejaVuSans-51" transform="translate(830.203125 0)"/>
      <use xlink:href="#DejaVuSans-3" transform="translate(893.578125 0)"/>
      <use xlink:href="#DejaVuSans-b" transform="translate(925.359375 0)"/>
      <use xlink:href="#DejaVuSans-4b" transform="translate(964.375 0)"/>
      <use xlink:href="#DejaVuSans-4c" transform="translate(1027.75 0)"/>
      <use xlink:href="#DejaVuSans-4a" transform="translate(1055.53125 0)"/>
      <use xlink:href="#DejaVuSans-4b" transform="translate(1119.015625 0)"/>
      <use xlink:href="#DejaVuSans-48" transform="translate(1182.390625 0)"/>
      <use xlink:href="#DejaVuSans-55" transform="translate(1243.921875 0)"/>
      <use xlink:href="#DejaVuSans-3" transform="translate(1285.03125 0)"/>
      <use xlink:href="#DejaVuSans-4c" transform="translate(1316.8125 0)"/>
      <use xlink:href="#DejaVuSans-56" transform="translate(1344.59375 0)"/>
      <use xlink:href="#DejaVuSans-3" transform="translate(1396.6875 0)"/>
      <use xlink:href="#DejaVuSans-45" transform="translate(1428.46875 0)"/>
      <use xlink:href="#DejaVuSans-48" transform="translate(1491.953125 0)"/>
      <use xlink:href="#DejaVuSans-57" transform="translate(1553.484375 0)"/>
      <use xlink:href="#DejaVuSans-57" transform="translate(1592.6875 0)"/>
      <use xlink:href="#DejaVuSans-48" transform="translate(1631.890625 0)"/>
      <use xlink:href="#DejaVuSans-55" transform="translate(1693.421875 0)"/>
      <use xlink:href="#DejaVuSans-c" transform="translate(1734.53125 0)"/>
     </g>
    </g>
   </g>
   <g id="patch_3">
    <path d="M 76.517343 346.981657 
L 196.306132 346.981657 
L 196.306132 240.483602 
L 76.517343 240.483602 
z
" clip-path="url(#pa95cd646c8)" style="fill: #6c757d"/>
   </g>
   <g id="patch_4">
    <path d="M 252.677327 346.981657 
L 372.466116 346.981657 
L 372.466116 119.447616 
L 252.677327 119.447616 
z
" clip-path="url(#pa95cd646c8)" style="fill: #0072b2"/>
   </g>
   <g id="patch_5">
    <path d="M 428.837311 346.981657 
L 548.626099 346.981657 
L 548.626099 86.02123 
L 428.837311 86.02123 
z
" clip-path="url(#pa95cd646c8)" style="fill: #009e73"/>
   </g>
   <g id="patch_6">
    <path d="M 604.997294 346.981657 
L 724.786083 346.981657 
L 724.786083 93.548797 
L 604.997294 93.548797 
z
" clip-path="url(#pa95cd646c8)" style="fill: #e69f00"/>
   </g>
   <g id="patch_7">
    <path d="M 44.103906 346.981657 
L 44.103906 30.318125 
" style="fill: none; stroke: #000000; stroke-width: 0.8; stroke-linejoin: miter; stroke-linecap: square"/>
   </g>
   <g id="patch_8">
    <path d="M 757.19952 346.981657 
L 757.19952 30.318125 
" style="fill: none; stroke: #000000; stroke-width: 0.8; stroke-linejoin: miter; stroke-linecap: square"/>
   </g>
   <g id="patch_9">
    <path d="M 44.103906 346.981657 
L 757.19952 346.981657 
" style="fill: none; stroke: #000000; stroke-width: 0.8; stroke-linejoin: miter; stroke-linecap: square"/>
   </g>
   <g id="patch_10">
    <path d="M 44.103906 30.318125 
L 757.19952 30.318125 
" style="fill: none; stroke: #000000; stroke-width: 0.8; stroke-linejoin: miter; stroke-linecap: square"/>
   </g>
   <g id="text_11">
    <!-- 0.155 -->
    <g transform="translate(120.596894 229.82047) scale(0.1 -0.1)">
     <defs>
      <path id="DejaVuSans-Bold-13" d="M 2944 2338 
Q 2944 3213 2780 3570 
Q 2616 3928 2228 3928 
Q 1841 3928 1675 3570 
Q 1509 3213 1509 2338 
Q 1509 1453 1675 1090 
Q 1841 728 2228 728 
Q 2613 728 2778 1090 
Q 2944 1453 2944 2338 
z
M 4147 2328 
Q 4147 1169 3647 539 
Q 3147 -91 2228 -91 
Q 1306 -91 806 539 
Q 306 1169 306 2328 
Q 306 3491 806 4120 
Q 1306 4750 2228 4750 
Q 3147 4750 3647 4120 
Q 4147 3491 4147 2328 
z
" transform="scale(0.015625)"/>
      <path id="DejaVuSans-Bold-11" d="M 653 1209 
L 1778 1209 
L 1778 0 
L 653 0 
L 653 1209 
z
" transform="scale(0.015625)"/>
      <path id="DejaVuSans-Bold-14" d="M 750 831 
L 1813 831 
L 1813 3847 
L 722 3622 
L 722 4441 
L 1806 4666 
L 2950 4666 
L 2950 831 
L 4013 831 
L 4013 0 
L 750 0 
L 750 831 
z
" transform="scale(0.015625)"/>
      <path id="DejaVuSans-Bold-18" d="M 678 4666 
L 3669 4666 
L 3669 3781 
L 1638 3781 
L 1638 3059 
Q 1775 3097 1914 3117 
Q 2053 3138 2203 3138 
Q 3056 3138 3531 2711 
Q 4006 2284 4006 1522 
Q 4006 766 3489 337 
Q 2972 -91 2053 -91 
Q 1656 -91 1267 -14 
Q 878 63 494 219 
L 494 1166 
Q 875 947 1217 837 
Q 1559 728 1863 728 
Q 2300 728 2551 942 
Q 2803 1156 2803 1522 
Q 2803 1891 2551 2103 
Q 2300 2316 1863 2316 
Q 1603 2316 1309 2248 
Q 1016 2181 678 2041 
L 678 4666 
z
" transform="scale(0.015625)"/>
     </defs>
     <use xlink:href="#DejaVuSans-Bold-13"/>
     <use xlink:href="#DejaVuSans-Bold-11" transform="translate(69.578125 0)"/>
     <use xlink:href="#DejaVuSans-Bold-14" transform="translate(107.5625 0)"/>
     <use xlink:href="#DejaVuSans-Bold-18" transform="translate(177.140625 0)"/>
     <use xlink:href="#DejaVuSans-Bold-18" transform="translate(246.71875 0)"/>
    </g>
   </g>
   <g id="text_12">
    <!-- 0.331 -->
    <g transform="translate(296.756878 108.784485) scale(0.1 -0.1)">
     <defs>
      <path id="DejaVuSans-Bold-16" d="M 2981 2516 
Q 3453 2394 3698 2092 
Q 3944 1791 3944 1325 
Q 3944 631 3412 270 
Q 2881 -91 1863 -91 
Q 1503 -91 1142 -33 
Q 781 25 428 141 
L 428 1069 
Q 766 900 1098 814 
Q 1431 728 1753 728 
Q 2231 728 2486 893 
Q 2741 1059 2741 1369 
Q 2741 1688 2480 1852 
Q 2219 2016 1709 2016 
L 1228 2016 
L 1228 2791 
L 1734 2791 
Q 2188 2791 2409 2933 
Q 2631 3075 2631 3366 
Q 2631 3634 2415 3781 
Q 2200 3928 1806 3928 
Q 1516 3928 1219 3862 
Q 922 3797 628 3669 
L 628 4550 
Q 984 4650 1334 4700 
Q 1684 4750 2022 4750 
Q 2931 4750 3382 4451 
Q 3834 4153 3834 3553 
Q 3834 3144 3618 2883 
Q 3403 2622 2981 2516 
z
" transform="scale(0.015625)"/>
     </defs>
     <use xlink:href="#DejaVuSans-Bold-13"/>
     <use xlink:href="#DejaVuSans-Bold-11" transform="translate(69.578125 0)"/>
     <use xlink:href="#DejaVuSans-Bold-16" transform="translate(107.5625 0)"/>
     <use xlink:href="#DejaVuSans-Bold-16" transform="translate(177.140625 0)"/>
     <use xlink:href="#DejaVuSans-Bold-14" transform="translate(246.71875 0)"/>
    </g>
   </g>
   <g id="text_13">
    <!-- 0.379 -->
    <g transform="translate(472.916861 75.358099) scale(0.1 -0.1)">
     <defs>
      <path id="DejaVuSans-Bold-1a" d="M 428 4666 
L 3944 4666 
L 3944 3988 
L 2125 0 
L 953 0 
L 2675 3781 
L 428 3781 
L 428 4666 
z
" transform="scale(0.015625)"/>
      <path id="DejaVuSans-Bold-1c" d="M 641 103 
L 641 966 
Q 928 831 1190 764 
Q 1453 697 1709 697 
Q 2247 697 2547 995 
Q 2847 1294 2900 1881 
Q 2688 1725 2447 1647 
Q 2206 1569 1925 1569 
Q 1209 1569 770 1986 
Q 331 2403 331 3084 
Q 331 3838 820 4291 
Q 1309 4744 2131 4744 
Q 3044 4744 3544 4128 
Q 4044 3513 4044 2388 
Q 4044 1231 3459 570 
Q 2875 -91 1856 -91 
Q 1528 -91 1228 -42 
Q 928 6 641 103 
z
M 2125 2350 
Q 2441 2350 2600 2554 
Q 2759 2759 2759 3169 
Q 2759 3575 2600 3781 
Q 2441 3988 2125 3988 
Q 1809 3988 1650 3781 
Q 1491 3575 1491 3169 
Q 1491 2759 1650 2554 
Q 1809 2350 2125 2350 
z
" transform="scale(0.015625)"/>
     </defs>
     <use xlink:href="#DejaVuSans-Bold-13"/>
     <use xlink:href="#DejaVuSans-Bold-11" transform="translate(69.578125 0)"/>
     <use xlink:href="#DejaVuSans-Bold-16" transform="translate(107.5625 0)"/>
     <use xlink:href="#DejaVuSans-Bold-1a" transform="translate(177.140625 0)"/>
     <use xlink:href="#DejaVuSans-Bold-1c" transform="translate(246.71875 0)"/>
    </g>
   </g>
   <g id="text_14">
    <!-- 0.368 -->
    <g transform="translate(649.076845 82.885666) scale(0.1 -0.1)">
     <defs>
      <path id="DejaVuSans-Bold-19" d="M 2316 2303 
Q 2000 2303 1842 2098 
Q 1684 1894 1684 1484 
Q 1684 1075 1842 870 
Q 2000 666 2316 666 
Q 2634 666 2792 870 
Q 2950 1075 2950 1484 
Q 2950 1894 2792 2098 
Q 2634 2303 2316 2303 
z
M 3803 4544 
L 3803 3681 
Q 3506 3822 3243 3889 
Q 2981 3956 2731 3956 
Q 2194 3956 1894 3657 
Q 1594 3359 1544 2772 
Q 1750 2925 1990 3001 
Q 2231 3078 2516 3078 
Q 3231 3078 3670 2659 
Q 4109 2241 4109 1563 
Q 4109 813 3618 361 
Q 3128 -91 2303 -91 
Q 1394 -91 895 523 
Q 397 1138 397 2266 
Q 397 3422 980 4083 
Q 1563 4744 2578 4744 
Q 2900 4744 3203 4694 
Q 3506 4644 3803 4544 
z
" transform="scale(0.015625)"/>
      <path id="DejaVuSans-Bold-1b" d="M 2228 2088 
Q 1891 2088 1709 1903 
Q 1528 1719 1528 1375 
Q 1528 1031 1709 848 
Q 1891 666 2228 666 
Q 2563 666 2741 848 
Q 2919 1031 2919 1375 
Q 2919 1722 2741 1905 
Q 2563 2088 2228 2088 
z
M 1350 2484 
Q 925 2613 709 2878 
Q 494 3144 494 3541 
Q 494 4131 934 4440 
Q 1375 4750 2228 4750 
Q 3075 4750 3515 4442 
Q 3956 4134 3956 3541 
Q 3956 3144 3739 2878 
Q 3522 2613 3097 2484 
Q 3572 2353 3814 2058 
Q 4056 1763 4056 1313 
Q 4056 619 3595 264 
Q 3134 -91 2228 -91 
Q 1319 -91 855 264 
Q 391 619 391 1313 
Q 391 1763 633 2058 
Q 875 2353 1350 2484 
z
M 1631 3419 
Q 1631 3141 1786 2991 
Q 1941 2841 2228 2841 
Q 2509 2841 2662 2991 
Q 2816 3141 2816 3419 
Q 2816 3697 2662 3845 
Q 2509 3994 2228 3994 
Q 1941 3994 1786 3844 
Q 1631 3694 1631 3419 
z
" transform="scale(0.015625)"/>
     </defs>
     <use xlink:href="#DejaVuSans-Bold-13"/>
     <use xlink:href="#DejaVuSans-Bold-11" transform="translate(69.578125 0)"/>
     <use xlink:href="#DejaVuSans-Bold-16" transform="translate(107.5625 0)"/>
     <use xlink:href="#DejaVuSans-Bold-19" transform="translate(177.140625 0)"/>
     <use xlink:href="#DejaVuSans-Bold-1b" transform="translate(246.71875 0)"/>
    </g>
   </g>
   <g id="text_15">
    <!-- Train-CV values are five-fold group-safe means. The final holdout was scored once after selection. -->
    <g style="fill: #404040" transform="translate(51.234862 416.647634) scale(0.09 -0.09)">
     <defs>
      <path id="DejaVuSans-37" d="M -19 4666 
L 3928 4666 
L 3928 4134 
L 2272 4134 
L 2272 0 
L 1638 0 
L 1638 4134 
L -19 4134 
L -19 4666 
z
" transform="scale(0.015625)"/>
      <path id="DejaVuSans-10" d="M 313 2009 
L 1997 2009 
L 1997 1497 
L 313 1497 
L 313 2009 
z
" transform="scale(0.015625)"/>
      <path id="DejaVuSans-5a" d="M 269 3500 
L 844 3500 
L 1563 769 
L 2278 3500 
L 2956 3500 
L 3675 769 
L 4391 3500 
L 4966 3500 
L 4050 0 
L 3372 0 
L 2619 2869 
L 1863 0 
L 1184 0 
L 269 3500 
z
" transform="scale(0.015625)"/>
     </defs>
     <use xlink:href="#DejaVuSans-37"/>
     <use xlink:href="#DejaVuSans-55" transform="translate(46.375 0)"/>
     <use xlink:href="#DejaVuSans-44" transform="translate(87.484375 0)"/>
     <use xlink:href="#DejaVuSans-4c" transform="translate(148.765625 0)"/>
     <use xlink:href="#DejaVuSans-51" transform="translate(176.546875 0)"/>
     <use xlink:href="#DejaVuSans-10" transform="translate(239.921875 0)"/>
     <use xlink:href="#DejaVuSans-26" transform="translate(276 0)"/>
     <use xlink:href="#DejaVuSans-39" transform="translate(345.828125 0)"/>
     <use xlink:href="#DejaVuSans-3" transform="translate(414.234375 0)"/>
     <use xlink:href="#DejaVuSans-59" transform="translate(446.015625 0)"/>
     <use xlink:href="#DejaVuSans-44" transform="translate(505.203125 0)"/>
     <use xlink:href="#DejaVuSans-4f" transform="translate(566.484375 0)"/>
     <use xlink:href="#DejaVuSans-58" transform="translate(594.265625 0)"/>
     <use xlink:href="#DejaVuSans-48" transform="translate(657.640625 0)"/>
     <use xlink:href="#DejaVuSans-56" transform="translate(719.171875 0)"/>
     <use xlink:href="#DejaVuSans-3" transform="translate(771.265625 0)"/>
     <use xlink:href="#DejaVuSans-44" transform="translate(803.046875 0)"/>
     <use xlink:href="#DejaVuSans-55" transform="translate(864.328125 0)"/>
     <use xlink:href="#DejaVuSans-48" transform="translate(903.234375 0)"/>
     <use xlink:href="#DejaVuSans-3" transform="translate(964.765625 0)"/>
     <use xlink:href="#DejaVuSans-13af" transform="translate(996.546875 0)"/>
     <use xlink:href="#DejaVuSans-59" transform="translate(1059.53125 0)"/>
     <use xlink:href="#DejaVuSans-48" transform="translate(1118.71875 0)"/>
     <use xlink:href="#DejaVuSans-10" transform="translate(1180.25 0)"/>
     <use xlink:href="#DejaVuSans-49" transform="translate(1216.328125 0)"/>
     <use xlink:href="#DejaVuSans-52" transform="translate(1251.53125 0)"/>
     <use xlink:href="#DejaVuSans-4f" transform="translate(1312.71875 0)"/>
     <use xlink:href="#DejaVuSans-47" transform="translate(1340.5 0)"/>
     <use xlink:href="#DejaVuSans-3" transform="translate(1403.984375 0)"/>
     <use xlink:href="#DejaVuSans-4a" transform="translate(1435.765625 0)"/>
     <use xlink:href="#DejaVuSans-55" transform="translate(1499.25 0)"/>
     <use xlink:href="#DejaVuSans-52" transform="translate(1538.15625 0)"/>
     <use xlink:href="#DejaVuSans-58" transform="translate(1599.34375 0)"/>
     <use xlink:href="#DejaVuSans-53" transform="translate(1662.71875 0)"/>
     <use xlink:href="#DejaVuSans-10" transform="translate(1726.203125 0)"/>
     <use xlink:href="#DejaVuSans-56" transform="translate(1762.28125 0)"/>
     <use xlink:href="#DejaVuSans-44" transform="translate(1814.375 0)"/>
     <use xlink:href="#DejaVuSans-49" transform="translate(1875.65625 0)"/>
     <use xlink:href="#DejaVuSans-48" transform="translate(1910.859375 0)"/>
     <use xlink:href="#DejaVuSans-3" transform="translate(1972.390625 0)"/>
     <use xlink:href="#DejaVuSans-50" transform="translate(2004.171875 0)"/>
     <use xlink:href="#DejaVuSans-48" transform="translate(2101.578125 0)"/>
     <use xlink:href="#DejaVuSans-44" transform="translate(2163.109375 0)"/>
     <use xlink:href="#DejaVuSans-51" transform="translate(2224.390625 0)"/>
     <use xlink:href="#DejaVuSans-56" transform="translate(2287.765625 0)"/>
     <use xlink:href="#DejaVuSans-11" transform="translate(2339.859375 0)"/>
     <use xlink:href="#DejaVuSans-3" transform="translate(2371.640625 0)"/>
     <use xlink:href="#DejaVuSans-37" transform="translate(2403.421875 0)"/>
     <use xlink:href="#DejaVuSans-4b" transform="translate(2464.5 0)"/>
     <use xlink:href="#DejaVuSans-48" transform="translate(2527.875 0)"/>
     <use xlink:href="#DejaVuSans-3" transform="translate(2589.40625 0)"/>
     <use xlink:href="#DejaVuSans-13af" transform="translate(2621.1875 0)"/>
     <use xlink:href="#DejaVuSans-51" transform="translate(2684.171875 0)"/>
     <use xlink:href="#DejaVuSans-44" transform="translate(2747.546875 0)"/>
     <use xlink:href="#DejaVuSans-4f" transform="translate(2808.828125 0)"/>
     <use xlink:href="#DejaVuSans-3" transform="translate(2836.609375 0)"/>
     <use xlink:href="#DejaVuSans-4b" transform="translate(2868.390625 0)"/>
     <use xlink:href="#DejaVuSans-52" transform="translate(2931.765625 0)"/>
     <use xlink:href="#DejaVuSans-4f" transform="translate(2992.953125 0)"/>
     <use xlink:href="#DejaVuSans-47" transform="translate(3020.734375 0)"/>
     <use xlink:href="#DejaVuSans-52" transform="translate(3084.21875 0)"/>
     <use xlink:href="#DejaVuSans-58" transform="translate(3145.40625 0)"/>
     <use xlink:href="#DejaVuSans-57" transform="translate(3208.78125 0)"/>
     <use xlink:href="#DejaVuSans-3" transform="translate(3247.984375 0)"/>
     <use xlink:href="#DejaVuSans-5a" transform="translate(3279.765625 0)"/>
     <use xlink:href="#DejaVuSans-44" transform="translate(3361.546875 0)"/>
     <use xlink:href="#DejaVuSans-56" transform="translate(3422.828125 0)"/>
     <use xlink:href="#DejaVuSans-3" transform="translate(3474.921875 0)"/>
     <use xlink:href="#DejaVuSans-56" transform="translate(3506.703125 0)"/>
     <use xlink:href="#DejaVuSans-46" transform="translate(3558.796875 0)"/>
     <use xlink:href="#DejaVuSans-52" transform="translate(3613.78125 0)"/>
     <use xlink:href="#DejaVuSans-55" transform="translate(3674.96875 0)"/>
     <use xlink:href="#DejaVuSans-48" transform="translate(3713.875 0)"/>
     <use xlink:href="#DejaVuSans-47" transform="translate(3775.40625 0)"/>
     <use xlink:href="#DejaVuSans-3" transform="translate(3838.890625 0)"/>
     <use xlink:href="#DejaVuSans-52" transform="translate(3870.671875 0)"/>
     <use xlink:href="#DejaVuSans-51" transform="translate(3931.859375 0)"/>
     <use xlink:href="#DejaVuSans-46" transform="translate(3995.234375 0)"/>
     <use xlink:href="#DejaVuSans-48" transform="translate(4050.21875 0)"/>
     <use xlink:href="#DejaVuSans-3" transform="translate(4111.75 0)"/>
     <use xlink:href="#DejaVuSans-44" transform="translate(4143.53125 0)"/>
     <use xlink:href="#DejaVuSans-49" transform="translate(4204.8125 0)"/>
     <use xlink:href="#DejaVuSans-57" transform="translate(4238.265625 0)"/>
     <use xlink:href="#DejaVuSans-48" transform="translate(4277.46875 0)"/>
     <use xlink:href="#DejaVuSans-55" transform="translate(4339 0)"/>
     <use xlink:href="#DejaVuSans-3" transform="translate(4380.109375 0)"/>
     <use xlink:href="#DejaVuSans-56" transform="translate(4411.890625 0)"/>
     <use xlink:href="#DejaVuSans-48" transform="translate(4463.984375 0)"/>
     <use xlink:href="#DejaVuSans-4f" transform="translate(4525.515625 0)"/>
     <use xlink:href="#DejaVuSans-48" transform="translate(4553.296875 0)"/>
     <use xlink:href="#DejaVuSans-46" transform="translate(4614.828125 0)"/>
     <use xlink:href="#DejaVuSans-57" transform="translate(4669.8125 0)"/>
     <use xlink:href="#DejaVuSans-4c" transform="translate(4709.015625 0)"/>
     <use xlink:href="#DejaVuSans-52" transform="translate(4736.796875 0)"/>
     <use xlink:href="#DejaVuSans-51" transform="translate(4797.984375 0)"/>
     <use xlink:href="#DejaVuSans-11" transform="translate(4861.359375 0)"/>
    </g>
   </g>
   <g id="text_16">
    <!-- Average precision: accepted model evidence -->
    <g transform="translate(44.103906 16.318125) scale(0.12 -0.12)">
     <defs>
      <path id="DejaVuSans-Bold-24" d="M 3419 850 
L 1538 850 
L 1241 0 
L 31 0 
L 1759 4666 
L 3194 4666 
L 4922 0 
L 3713 0 
L 3419 850 
z
M 1838 1716 
L 3116 1716 
L 2478 3572 
L 1838 1716 
z
" transform="scale(0.015625)"/>
      <path id="DejaVuSans-Bold-59" d="M 97 3500 
L 1216 3500 
L 2088 1081 
L 2956 3500 
L 4078 3500 
L 2700 0 
L 1472 0 
L 97 3500 
z
" transform="scale(0.015625)"/>
      <path id="DejaVuSans-Bold-48" d="M 4031 1759 
L 4031 1441 
L 1416 1441 
Q 1456 1047 1700 850 
Q 1944 653 2381 653 
Q 2734 653 3104 758 
Q 3475 863 3866 1075 
L 3866 213 
Q 3469 63 3072 -14 
Q 2675 -91 2278 -91 
Q 1328 -91 801 392 
Q 275 875 275 1747 
Q 275 2603 792 3093 
Q 1309 3584 2216 3584 
Q 3041 3584 3536 3087 
Q 4031 2591 4031 1759 
z
M 2881 2131 
Q 2881 2450 2695 2645 
Q 2509 2841 2209 2841 
Q 1884 2841 1681 2658 
Q 1478 2475 1428 2131 
L 2881 2131 
z
" transform="scale(0.015625)"/>
      <path id="DejaVuSans-Bold-55" d="M 3138 2547 
Q 2991 2616 2845 2648 
Q 2700 2681 2553 2681 
Q 2122 2681 1889 2404 
Q 1656 2128 1656 1613 
L 1656 0 
L 538 0 
L 538 3500 
L 1656 3500 
L 1656 2925 
Q 1872 3269 2151 3426 
Q 2431 3584 2822 3584 
Q 2878 3584 2943 3579 
Q 3009 3575 3134 3559 
L 3138 2547 
z
" transform="scale(0.015625)"/>
      <path id="DejaVuSans-Bold-44" d="M 2106 1575 
Q 1756 1575 1579 1456 
Q 1403 1338 1403 1106 
Q 1403 894 1545 773 
Q 1688 653 1941 653 
Q 2256 653 2472 879 
Q 2688 1106 2688 1447 
L 2688 1575 
L 2106 1575 
z
M 3816 1997 
L 3816 0 
L 2688 0 
L 2688 519 
Q 2463 200 2181 54 
Q 1900 -91 1497 -91 
Q 953 -91 614 226 
Q 275 544 275 1050 
Q 275 1666 698 1953 
Q 1122 2241 2028 2241 
L 2688 2241 
L 2688 2328 
Q 2688 2594 2478 2717 
Q 2269 2841 1825 2841 
Q 1466 2841 1156 2769 
Q 847 2697 581 2553 
L 581 3406 
Q 941 3494 1303 3539 
Q 1666 3584 2028 3584 
Q 2975 3584 3395 3211 
Q 3816 2838 3816 1997 
z
" transform="scale(0.015625)"/>
      <path id="DejaVuSans-Bold-4a" d="M 2919 594 
Q 2688 288 2409 144 
Q 2131 0 1766 0 
Q 1125 0 706 504 
Q 288 1009 288 1791 
Q 288 2575 706 3076 
Q 1125 3578 1766 3578 
Q 2131 3578 2409 3434 
Q 2688 3291 2919 2981 
L 2919 3500 
L 4044 3500 
L 4044 353 
Q 4044 -491 3511 -936 
Q 2978 -1381 1966 -1381 
Q 1638 -1381 1331 -1331 
Q 1025 -1281 716 -1178 
L 716 -306 
Q 1009 -475 1290 -558 
Q 1572 -641 1856 -641 
Q 2406 -641 2662 -400 
Q 2919 -159 2919 353 
L 2919 594 
z
M 2181 2772 
Q 1834 2772 1640 2515 
Q 1447 2259 1447 1791 
Q 1447 1309 1634 1061 
Q 1822 813 2181 813 
Q 2531 813 2725 1069 
Q 2919 1325 2919 1791 
Q 2919 2259 2725 2515 
Q 2531 2772 2181 2772 
z
" transform="scale(0.015625)"/>
      <path id="DejaVuSans-Bold-3" transform="scale(0.015625)"/>
      <path id="DejaVuSans-Bold-53" d="M 1656 506 
L 1656 -1331 
L 538 -1331 
L 538 3500 
L 1656 3500 
L 1656 2988 
Q 1888 3294 2169 3439 
Q 2450 3584 2816 3584 
Q 3463 3584 3878 3070 
Q 4294 2556 4294 1747 
Q 4294 938 3878 423 
Q 3463 -91 2816 -91 
Q 2450 -91 2169 54 
Q 1888 200 1656 506 
z
M 2400 2772 
Q 2041 2772 1848 2508 
Q 1656 2244 1656 1747 
Q 1656 1250 1848 986 
Q 2041 722 2400 722 
Q 2759 722 2948 984 
Q 3138 1247 3138 1747 
Q 3138 2247 2948 2509 
Q 2759 2772 2400 2772 
z
" transform="scale(0.015625)"/>
      <path id="DejaVuSans-Bold-46" d="M 3366 3391 
L 3366 2478 
Q 3138 2634 2908 2709 
Q 2678 2784 2431 2784 
Q 1963 2784 1702 2511 
Q 1441 2238 1441 1747 
Q 1441 1256 1702 982 
Q 1963 709 2431 709 
Q 2694 709 2930 787 
Q 3166 866 3366 1019 
L 3366 103 
Q 3103 6 2833 -42 
Q 2563 -91 2291 -91 
Q 1344 -91 809 395 
Q 275 881 275 1747 
Q 275 2613 809 3098 
Q 1344 3584 2291 3584 
Q 2566 3584 2833 3536 
Q 3100 3488 3366 3391 
z
" transform="scale(0.015625)"/>
      <path id="DejaVuSans-Bold-4c" d="M 538 3500 
L 1656 3500 
L 1656 0 
L 538 0 
L 538 3500 
z
M 538 4863 
L 1656 4863 
L 1656 3950 
L 538 3950 
L 538 4863 
z
" transform="scale(0.015625)"/>
      <path id="DejaVuSans-Bold-56" d="M 3272 3391 
L 3272 2541 
Q 2913 2691 2578 2766 
Q 2244 2841 1947 2841 
Q 1628 2841 1473 2761 
Q 1319 2681 1319 2516 
Q 1319 2381 1436 2309 
Q 1553 2238 1856 2203 
L 2053 2175 
Q 2913 2066 3209 1816 
Q 3506 1566 3506 1031 
Q 3506 472 3093 190 
Q 2681 -91 1863 -91 
Q 1516 -91 1145 -36 
Q 775 19 384 128 
L 384 978 
Q 719 816 1070 734 
Q 1422 653 1784 653 
Q 2113 653 2278 743 
Q 2444 834 2444 1013 
Q 2444 1163 2330 1236 
Q 2216 1309 1875 1350 
L 1678 1375 
Q 931 1469 631 1722 
Q 331 1975 331 2491 
Q 331 3047 712 3315 
Q 1094 3584 1881 3584 
Q 2191 3584 2531 3537 
Q 2872 3491 3272 3391 
z
" transform="scale(0.015625)"/>
      <path id="DejaVuSans-Bold-52" d="M 2203 2784 
Q 1831 2784 1636 2517 
Q 1441 2250 1441 1747 
Q 1441 1244 1636 976 
Q 1831 709 2203 709 
Q 2569 709 2762 976 
Q 2956 1244 2956 1747 
Q 2956 2250 2762 2517 
Q 2569 2784 2203 2784 
z
M 2203 3584 
Q 3106 3584 3614 3096 
Q 4122 2609 4122 1747 
Q 4122 884 3614 396 
Q 3106 -91 2203 -91 
Q 1297 -91 786 396 
Q 275 884 275 1747 
Q 275 2609 786 3096 
Q 1297 3584 2203 3584 
z
" transform="scale(0.015625)"/>
      <path id="DejaVuSans-Bold-51" d="M 4056 2131 
L 4056 0 
L 2931 0 
L 2931 347 
L 2931 1631 
Q 2931 2084 2911 2256 
Q 2891 2428 2841 2509 
Q 2775 2619 2662 2680 
Q 2550 2741 2406 2741 
Q 2056 2741 1856 2470 
Q 1656 2200 1656 1722 
L 1656 0 
L 538 0 
L 538 3500 
L 1656 3500 
L 1656 2988 
Q 1909 3294 2193 3439 
Q 2478 3584 2822 3584 
Q 3428 3584 3742 3212 
Q 4056 2841 4056 2131 
z
" transform="scale(0.015625)"/>
      <path id="DejaVuSans-Bold-1d" d="M 716 3500 
L 1844 3500 
L 1844 2291 
L 716 2291 
L 716 3500 
z
M 716 1209 
L 1844 1209 
L 1844 0 
L 716 0 
L 716 1209 
z
" transform="scale(0.015625)"/>
      <path id="DejaVuSans-Bold-57" d="M 1759 4494 
L 1759 3500 
L 2913 3500 
L 2913 2700 
L 1759 2700 
L 1759 1216 
Q 1759 972 1856 886 
Q 1953 800 2241 800 
L 2816 800 
L 2816 0 
L 1856 0 
Q 1194 0 917 276 
Q 641 553 641 1216 
L 641 2700 
L 84 2700 
L 84 3500 
L 641 3500 
L 641 4494 
L 1759 4494 
z
" transform="scale(0.015625)"/>
      <path id="DejaVuSans-Bold-47" d="M 2919 2988 
L 2919 4863 
L 4044 4863 
L 4044 0 
L 2919 0 
L 2919 506 
Q 2688 197 2409 53 
Q 2131 -91 1766 -91 
Q 1119 -91 703 423 
Q 288 938 288 1747 
Q 288 2556 703 3070 
Q 1119 3584 1766 3584 
Q 2128 3584 2408 3439 
Q 2688 3294 2919 2988 
z
M 2181 722 
Q 2541 722 2730 984 
Q 2919 1247 2919 1747 
Q 2919 2247 2730 2509 
Q 2541 2772 2181 2772 
Q 1825 2772 1636 2509 
Q 1447 2247 1447 1747 
Q 1447 1247 1636 984 
Q 1825 722 2181 722 
z
" transform="scale(0.015625)"/>
      <path id="DejaVuSans-Bold-50" d="M 3781 2919 
Q 3994 3244 4286 3414 
Q 4578 3584 4928 3584 
Q 5531 3584 5847 3212 
Q 6163 2841 6163 2131 
L 6163 0 
L 5038 0 
L 5038 1825 
Q 5041 1866 5042 1909 
Q 5044 1953 5044 2034 
Q 5044 2406 4934 2573 
Q 4825 2741 4581 2741 
Q 4263 2741 4089 2478 
Q 3916 2216 3909 1719 
L 3909 0 
L 2784 0 
L 2784 1825 
Q 2784 2406 2684 2573 
Q 2584 2741 2328 2741 
Q 2006 2741 1831 2477 
Q 1656 2213 1656 1722 
L 1656 0 
L 531 0 
L 531 3500 
L 1656 3500 
L 1656 2988 
Q 1863 3284 2130 3434 
Q 2397 3584 2719 3584 
Q 3081 3584 3359 3409 
Q 3638 3234 3781 2919 
z
" transform="scale(0.015625)"/>
      <path id="DejaVuSans-Bold-4f" d="M 538 4863 
L 1656 4863 
L 1656 0 
L 538 0 
L 538 4863 
z
" transform="scale(0.015625)"/>
     </defs>
     <use xlink:href="#DejaVuSans-Bold-24"/>
     <use xlink:href="#DejaVuSans-Bold-59" transform="translate(73.828125 0)"/>
     <use xlink:href="#DejaVuSans-Bold-48" transform="translate(139.015625 0)"/>
     <use xlink:href="#DejaVuSans-Bold-55" transform="translate(206.84375 0)"/>
     <use xlink:href="#DejaVuSans-Bold-44" transform="translate(256.15625 0)"/>
     <use xlink:href="#DejaVuSans-Bold-4a" transform="translate(323.640625 0)"/>
     <use xlink:href="#DejaVuSans-Bold-48" transform="translate(395.21875 0)"/>
     <use xlink:href="#DejaVuSans-Bold-3" transform="translate(463.046875 0)"/>
     <use xlink:href="#DejaVuSans-Bold-53" transform="translate(497.859375 0)"/>
     <use xlink:href="#DejaVuSans-Bold-55" transform="translate(569.4375 0)"/>
     <use xlink:href="#DejaVuSans-Bold-48" transform="translate(618.75 0)"/>
     <use xlink:href="#DejaVuSans-Bold-46" transform="translate(686.578125 0)"/>
     <use xlink:href="#DejaVuSans-Bold-4c" transform="translate(745.859375 0)"/>
     <use xlink:href="#DejaVuSans-Bold-56" transform="translate(780.140625 0)"/>
     <use xlink:href="#DejaVuSans-Bold-4c" transform="translate(839.65625 0)"/>
     <use xlink:href="#DejaVuSans-Bold-52" transform="translate(873.9375 0)"/>
     <use xlink:href="#DejaVuSans-Bold-51" transform="translate(942.640625 0)"/>
     <use xlink:href="#DejaVuSans-Bold-1d" transform="translate(1013.828125 0)"/>
     <use xlink:href="#DejaVuSans-Bold-3" transform="translate(1053.8125 0)"/>
     <use xlink:href="#DejaVuSans-Bold-44" transform="translate(1088.625 0)"/>
     <use xlink:href="#DejaVuSans-Bold-46" transform="translate(1156.109375 0)"/>
     <use xlink:href="#DejaVuSans-Bold-46" transform="translate(1215.390625 0)"/>
     <use xlink:href="#DejaVuSans-Bold-48" transform="translate(1274.671875 0)"/>
     <use xlink:href="#DejaVuSans-Bold-53" transform="translate(1342.5 0)"/>
     <use xlink:href="#DejaVuSans-Bold-57" transform="translate(1414.078125 0)"/>
     <use xlink:href="#DejaVuSans-Bold-48" transform="translate(1461.875 0)"/>
     <use xlink:href="#DejaVuSans-Bold-47" transform="translate(1529.703125 0)"/>
     <use xlink:href="#DejaVuSans-Bold-3" transform="translate(1601.28125 0)"/>
     <use xlink:href="#DejaVuSans-Bold-50" transform="translate(1636.09375 0)"/>
     <use xlink:href="#DejaVuSans-Bold-52" transform="translate(1740.296875 0)"/>
     <use xlink:href="#DejaVuSans-Bold-47" transform="translate(1809 0)"/>
     <use xlink:href="#DejaVuSans-Bold-48" transform="translate(1880.578125 0)"/>
     <use xlink:href="#DejaVuSans-Bold-4f" transform="translate(1948.40625 0)"/>
     <use xlink:href="#DejaVuSans-Bold-3" transform="translate(1982.6875 0)"/>
     <use xlink:href="#DejaVuSans-Bold-48" transform="translate(2017.5 0)"/>
     <use xlink:href="#DejaVuSans-Bold-59" transform="translate(2085.328125 0)"/>
     <use xlink:href="#DejaVuSans-Bold-4c" transform="translate(2150.515625 0)"/>
     <use xlink:href="#DejaVuSans-Bold-47" transform="translate(2184.796875 0)"/>
     <use xlink:href="#DejaVuSans-Bold-48" transform="translate(2256.375 0)"/>
     <use xlink:href="#DejaVuSans-Bold-51" transform="translate(2324.203125 0)"/>
     <use xlink:href="#DejaVuSans-Bold-46" transform="translate(2395.390625 0)"/>
     <use xlink:href="#DejaVuSans-Bold-48" transform="translate(2454.671875 0)"/>
    </g>
   </g>
  </g>
 </g>
 <defs>
  <clipPath id="pa95cd646c8">
   <rect x="44.103906" y="30.318125" width="713.095614" height="316.663532"/>
  </clipPath>
 </defs>
</svg>
